<mxfile host="app.diagrams.net" modified="2024-03-21T10:24:14.426Z" agent="Mozilla/5.0 (Windows NT 10.0; Win64; x64) AppleWebKit/537.36 (KHTML, like Gecko) Chrome/122.0.0.0 Safari/537.36" etag="H9I0gIL7-SGH0t_euS0m" version="24.0.7" type="github" pages="4">
  <diagram name="Corrected Diagram" id="efa7a0a1-bf9b-a30e-e6df-94a7791c09e9">
    <mxGraphModel dx="3326" dy="780" grid="1" gridSize="10" guides="1" tooltips="1" connect="1" arrows="1" fold="1" page="1" pageScale="1" pageWidth="826" pageHeight="1169" background="none" math="0" shadow="0">
      <root>
        <mxCell id="0" />
        <mxCell id="1" parent="0" />
        <mxCell id="19" value="&lt;p style=&quot;margin: 0px; margin-top: 4px; text-align: center; text-decoration: underline;&quot;&gt;&lt;strong&gt;DAB&lt;/strong&gt;&lt;/p&gt;&lt;p style=&quot;margin: 0px; margin-top: 4px; text-align: center; text-decoration: underline;&quot;&gt;&lt;span dir=&quot;ltr&quot; class=&quot;ui-provider ee bkv bkw bkx bky bkz bla blb blc bld ble blf blg blh bli blj blk bll blm bln blo blp blq blr bls blt blu blv blw blx bly blz bma bmb bmc&quot;&gt;&amp;lt;&amp;lt;catalogue&amp;gt;&amp;gt;&lt;/span&gt;&lt;br&gt;&lt;/p&gt;&lt;hr&gt;&lt;p style=&quot;margin: 0px; margin-left: 8px;&quot;&gt;Broker&lt;/p&gt;" style="verticalAlign=top;align=left;overflow=fill;fontSize=12;fontFamily=Helvetica;html=1;strokeColor=#003366;shadow=1;fillColor=#D4E1F5;fontColor=#003366" parent="1" vertex="1">
          <mxGeometry x="310.0000000000001" y="91.64000000000044" width="160" height="120" as="geometry" />
        </mxCell>
        <mxCell id="20" value="&lt;p style=&quot;margin: 0px; margin-top: 4px; text-align: center; text-decoration: underline;&quot;&gt;&lt;strong&gt;Monitoring Global&lt;/strong&gt;&lt;/p&gt;&lt;hr&gt;&lt;p style=&quot;margin: 0px; margin-left: 8px;&quot;&gt;Regional&amp;nbsp;&lt;/p&gt;&lt;p style=&quot;margin: 0px; margin-left: 8px;&quot;&gt;&lt;br&gt;&lt;/p&gt;&lt;p style=&quot;margin: 0px; margin-left: 8px;&quot;&gt;Global&lt;/p&gt;" style="verticalAlign=top;align=left;overflow=fill;fontSize=12;fontFamily=Helvetica;html=1;strokeColor=#003366;shadow=1;fillColor=#D4E1F5;fontColor=#003366" parent="1" vertex="1">
          <mxGeometry x="40.00000000000006" y="389.9999999999998" width="160" height="125" as="geometry" />
        </mxCell>
        <mxCell id="21" value="&lt;p style=&quot;margin: 0px; margin-top: 4px; text-align: center; text-decoration: underline;&quot;&gt;&lt;strong&gt;Data Cache&amp;nbsp;&lt;/strong&gt;&lt;/p&gt;&lt;hr&gt;&lt;p style=&quot;margin: 0px; margin-left: 8px;&quot;&gt;Regional&lt;/p&gt;&lt;p style=&quot;margin: 0px; margin-left: 8px;&quot;&gt;&lt;br&gt;&lt;/p&gt;&lt;p style=&quot;margin: 0px; margin-left: 8px;&quot;&gt;&lt;br&gt;&lt;/p&gt;&lt;p style=&quot;margin: 0px; margin-left: 8px;&quot;&gt;Global&lt;/p&gt;" style="verticalAlign=top;align=left;overflow=fill;fontSize=12;fontFamily=Helvetica;html=1;strokeColor=#003366;shadow=1;fillColor=#D4E1F5;fontColor=#003366" parent="1" vertex="1">
          <mxGeometry x="-320" y="299.99999999999983" width="160" height="160" as="geometry" />
        </mxCell>
        <mxCell id="25" value="&lt;p style=&quot;margin: 0px; margin-top: 4px; text-align: center; text-decoration: underline;&quot;&gt;&lt;strong&gt;WHOS Node&lt;/strong&gt;&lt;/p&gt;&lt;hr&gt;&lt;p style=&quot;margin: 0px; margin-left: 8px;&quot;&gt;WIS2.0 Box&lt;/p&gt;&lt;p style=&quot;margin: 0px; margin-left: 8px;&quot;&gt;Hydroserver2&lt;/p&gt;&lt;p style=&quot;margin: 0px; margin-left: 8px;&quot;&gt;MCH Bridge (API)&lt;/p&gt;&lt;p style=&quot;margin: 0px; margin-left: 8px;&quot;&gt;Others&lt;/p&gt;&lt;p style=&quot;margin: 0px; margin-left: 8px;&quot;&gt;.....&lt;/p&gt;" style="verticalAlign=top;align=left;overflow=fill;fontSize=12;fontFamily=Helvetica;html=1;strokeColor=#003366;shadow=1;fillColor=#D4E1F5;fontColor=#003366" parent="1" vertex="1">
          <mxGeometry x="-49.99999999999995" y="45.00000000000037" width="160" height="160" as="geometry" />
        </mxCell>
        <mxCell id="36" value="" style="endArrow=open;endSize=12;startArrow=diamondThin;startSize=14;startFill=0;edgeStyle=orthogonalEdgeStyle;" parent="1" source="19" target="20" edge="1">
          <mxGeometry y="160" as="geometry">
            <mxPoint y="160" as="sourcePoint" />
            <mxPoint x="160" y="160" as="targetPoint" />
            <Array as="points">
              <mxPoint x="390" y="300" />
              <mxPoint x="60" y="300" />
            </Array>
          </mxGeometry>
        </mxCell>
        <mxCell id="37" value="0..n" style="resizable=0;align=left;verticalAlign=top;labelBackgroundColor=#ffffff;fontSize=10;strokeColor=#003366;shadow=1;fillColor=#D4E1F5;fontColor=#003366" parent="36" connectable="0" vertex="1">
          <mxGeometry x="-1" relative="1" as="geometry">
            <mxPoint x="10" as="offset" />
          </mxGeometry>
        </mxCell>
        <mxCell id="75" value="" style="endArrow=open;endSize=12;startArrow=diamondThin;startSize=14;startFill=0;edgeStyle=orthogonalEdgeStyle" parent="1" edge="1">
          <mxGeometry x="1079.36" y="560" as="geometry">
            <mxPoint x="1250" y="923.6599999999996" as="sourcePoint" />
            <mxPoint x="1250" y="850" as="targetPoint" />
          </mxGeometry>
        </mxCell>
        <mxCell id="76" value="0..n" style="resizable=0;align=left;verticalAlign=top;labelBackgroundColor=#ffffff;fontSize=10;strokeColor=#003366;shadow=1;fillColor=#D4E1F5;fontColor=#003366" parent="75" connectable="0" vertex="1">
          <mxGeometry x="-1" relative="1" as="geometry">
            <mxPoint x="10.00000000000009" y="-22.499999999999915" as="offset" />
          </mxGeometry>
        </mxCell>
        <mxCell id="77" value="1" style="resizable=0;align=right;verticalAlign=top;labelBackgroundColor=#ffffff;fontSize=10;strokeColor=#003366;shadow=1;fillColor=#D4E1F5;fontColor=#003366" parent="75" connectable="0" vertex="1">
          <mxGeometry x="1" relative="1" as="geometry">
            <mxPoint x="20" as="offset" />
          </mxGeometry>
        </mxCell>
        <mxCell id="90" value="" style="endArrow=open;endSize=12;startArrow=diamondThin;startSize=14;startFill=0;edgeStyle=orthogonalEdgeStyle;entryX=0.5;entryY=0;entryDx=0;entryDy=0;strokeColor=#FF0000;" parent="1" target="21" edge="1">
          <mxGeometry x="620" y="340" as="geometry">
            <mxPoint x="-50" y="120" as="sourcePoint" />
            <mxPoint x="-240" y="289.9999999999998" as="targetPoint" />
            <Array as="points">
              <mxPoint x="-240" y="120" />
            </Array>
          </mxGeometry>
        </mxCell>
        <mxCell id="91" value="0..1" style="resizable=0;align=left;verticalAlign=top;labelBackgroundColor=#ffffff;fontSize=10;strokeColor=#003366;shadow=1;fillColor=#D4E1F5;fontColor=#003366" parent="90" connectable="0" vertex="1">
          <mxGeometry x="-1" relative="1" as="geometry">
            <mxPoint x="10" as="offset" />
          </mxGeometry>
        </mxCell>
        <mxCell id="92" value="0,..*" style="resizable=0;align=right;verticalAlign=top;labelBackgroundColor=#ffffff;fontSize=10;strokeColor=#003366;shadow=1;fillColor=#D4E1F5;fontColor=#003366" parent="90" connectable="0" vertex="1">
          <mxGeometry x="1" relative="1" as="geometry">
            <mxPoint x="20" y="-24.99999999999981" as="offset" />
          </mxGeometry>
        </mxCell>
        <mxCell id="103" value="1" style="endArrow=open;endSize=12;startArrow=diamondThin;startSize=14;startFill=1;edgeStyle=orthogonalEdgeStyle;align=left;verticalAlign=bottom;" parent="1" target="20" edge="1">
          <mxGeometry x="-0.8181818181818175" y="4.999999999999702" relative="1" as="geometry">
            <mxPoint x="-160" y="410" as="sourcePoint" />
            <mxPoint x="240" y="510" as="targetPoint" />
            <mxPoint as="offset" />
            <Array as="points">
              <mxPoint x="-65" y="410" />
              <mxPoint x="-65" y="418" />
            </Array>
          </mxGeometry>
        </mxCell>
        <mxCell id="p8qKQ9VHWNZwtDoZAId1-117" value="&lt;p style=&quot;margin: 0px; margin-top: 4px; text-align: center; text-decoration: underline;&quot;&gt;&lt;/p&gt;&lt;p style=&quot;margin: 0px; margin-left: 8px;&quot;&gt;&lt;b&gt;&lt;u&gt;WHOS Componnets&lt;/u&gt;&lt;/b&gt;&lt;/p&gt;&lt;p style=&quot;margin: 0px; margin-left: 8px;&quot;&gt;1. DAB&lt;/p&gt;&lt;p style=&quot;margin: 0px; margin-left: 8px;&quot;&gt;2. Data centers&lt;/p&gt;&lt;p style=&quot;margin: 0px; margin-left: 8px;&quot;&gt;3. UIs&lt;/p&gt;&lt;p style=&quot;margin: 0px; margin-left: 8px;&quot;&gt;4. Ontology&lt;/p&gt;&lt;p style=&quot;margin: 0px; margin-left: 8px;&quot;&gt;6. Caches&lt;/p&gt;&lt;p style=&quot;margin: 0px; margin-left: 8px;&quot;&gt;7. Archives&lt;/p&gt;&lt;p style=&quot;margin: 0px; margin-left: 8px;&quot;&gt;8. Nodes&lt;/p&gt;&lt;p style=&quot;margin: 0px; margin-left: 8px;&quot;&gt;9. Data Providers&lt;/p&gt;&lt;p style=&quot;margin: 0px; margin-left: 8px;&quot;&gt;10. Data Users&lt;/p&gt;&lt;p style=&quot;margin: 0px; margin-left: 8px;&quot;&gt;&lt;br&gt;&lt;/p&gt;&lt;p style=&quot;margin: 0px; margin-left: 8px;&quot;&gt;&lt;br&gt;&lt;/p&gt;" style="verticalAlign=top;align=left;overflow=fill;fontSize=12;fontFamily=Helvetica;html=1;strokeColor=#003366;shadow=1;fillColor=#D4E1F5;fontColor=#003366" parent="1" vertex="1">
          <mxGeometry x="-1230" y="10" width="260" height="190" as="geometry" />
        </mxCell>
        <mxCell id="p8qKQ9VHWNZwtDoZAId1-119" value="&lt;p style=&quot;margin: 0px; margin-top: 4px; text-align: center; text-decoration: underline;&quot;&gt;&lt;/p&gt;&lt;p style=&quot;margin: 0px; margin-left: 8px;&quot;&gt;&lt;u style=&quot;&quot;&gt;&lt;b&gt;Stakeholders&lt;/b&gt;&lt;/u&gt;&lt;/p&gt;&lt;p style=&quot;margin: 0px; margin-left: 8px;&quot;&gt;&lt;b&gt;People&lt;/b&gt;&lt;/p&gt;&lt;p style=&quot;margin: 0px; margin-left: 8px;&quot;&gt;&lt;b&gt;Data Providers&lt;/b&gt;&lt;/p&gt;&lt;p style=&quot;margin: 0px; margin-left: 8px;&quot;&gt;&lt;b&gt;Data Users&lt;/b&gt;&lt;/p&gt;&lt;p style=&quot;margin: 0px; margin-left: 8px;&quot;&gt;&lt;b&gt;Advanced data Users&lt;/b&gt;&lt;/p&gt;&lt;p style=&quot;margin: 0px; margin-left: 8px;&quot;&gt;&lt;br&gt;&lt;/p&gt;&lt;p style=&quot;margin: 0px; margin-left: 8px;&quot;&gt;&lt;br&gt;&lt;/p&gt;" style="verticalAlign=top;align=left;overflow=fill;fontSize=12;fontFamily=Helvetica;html=1;strokeColor=#003366;shadow=1;fillColor=#D4E1F5;fontColor=#003366" parent="1" vertex="1">
          <mxGeometry x="-930" y="10" width="180" height="190" as="geometry" />
        </mxCell>
        <mxCell id="p8qKQ9VHWNZwtDoZAId1-120" value="&lt;p style=&quot;margin: 0px; margin-top: 4px; text-align: center; text-decoration: underline;&quot;&gt;&lt;/p&gt;&lt;p style=&quot;margin: 0px; margin-left: 8px;&quot;&gt;&lt;b&gt;WHOS Componets: DAB&lt;/b&gt;&lt;/p&gt;&lt;p style=&quot;margin: 0px; margin-left: 8px;&quot;&gt;1. Accessros&lt;/p&gt;&lt;p style=&quot;margin: 0px 0px 0px 8px;&quot;&gt;&lt;span style=&quot;background-color: initial;&quot;&gt;1. Discovery broker:&lt;/span&gt;&lt;/p&gt;&lt;p style=&quot;margin: 0px 0px 0px 8px;&quot;&gt;&lt;/p&gt;&lt;ul&gt;&lt;li&gt;&lt;span style=&quot;background-color: initial;&quot;&gt;Catalog level&lt;/span&gt;&lt;/li&gt;&lt;li&gt;&lt;span style=&quot;background-color: initial;&quot;&gt;Server level&lt;/span&gt;&lt;/li&gt;&lt;li&gt;&lt;span style=&quot;background-color: initial;&quot;&gt;Site level&lt;/span&gt;&lt;/li&gt;&lt;/ul&gt;&lt;p style=&quot;margin: 0px; margin-left: 8px;&quot;&gt;&amp;nbsp; 2. Access broker&lt;br&gt;&amp;nbsp; 3. Semantic broker&lt;br&gt;&lt;span style=&quot;white-space-collapse: preserve;&quot;&gt;&#x9;&lt;/span&gt;Automatic query expansion&lt;br&gt;&lt;span style=&quot;white-space-collapse: preserve;&quot;&gt;&#x9;&lt;/span&gt;User-assisted query expansion&lt;br&gt;&lt;/p&gt;&lt;p style=&quot;margin: 0px; margin-left: 8px;&quot;&gt;&lt;br&gt;&lt;/p&gt;&lt;p style=&quot;margin: 0px; margin-left: 8px;&quot;&gt;&lt;br&gt;&lt;/p&gt;" style="verticalAlign=top;align=left;overflow=fill;fontSize=12;fontFamily=Helvetica;html=1;strokeColor=#003366;shadow=1;fillColor=#D4E1F5;fontColor=#003366" parent="1" vertex="1">
          <mxGeometry x="-1600" y="240.32" width="210" height="209.68" as="geometry" />
        </mxCell>
        <mxCell id="p8qKQ9VHWNZwtDoZAId1-121" value="&lt;p style=&quot;margin: 0px; margin-top: 4px; text-align: center; text-decoration: underline;&quot;&gt;&lt;/p&gt;&lt;p style=&quot;margin: 0px; margin-left: 8px;&quot;&gt;&lt;b&gt;WHOS Ontology&lt;/b&gt;&lt;/p&gt;&lt;p style=&quot;margin: 0px; margin-left: 8px;&quot;&gt;&lt;b&gt;&lt;br&gt;&lt;/b&gt;&lt;/p&gt;&lt;p style=&quot;margin: 0px; margin-left: 8px;&quot;&gt;&lt;b&gt;1. Functionality:&lt;/b&gt;&lt;/p&gt;&lt;p style=&quot;margin: 0px; margin-left: 8px;&quot;&gt;- Semantic interoperability&lt;/p&gt;&lt;p style=&quot;margin: 0px; margin-left: 8px;&quot;&gt;- Mapping of concepts&lt;/p&gt;&lt;p style=&quot;margin: 0px; margin-left: 8px;&quot;&gt;&lt;b&gt;&lt;br&gt;&lt;/b&gt;&lt;/p&gt;&lt;p style=&quot;margin: 0px; margin-left: 8px;&quot;&gt;&lt;b&gt;2. Relation to:&lt;/b&gt;&lt;/p&gt;&lt;p style=&quot;margin: 0px; margin-left: 8px;&quot;&gt;- CUAHSI&lt;/p&gt;&lt;p style=&quot;margin: 0px; margin-left: 8px;&quot;&gt;- WMO code registry&lt;/p&gt;&lt;p style=&quot;margin: 0px; margin-left: 8px;&quot;&gt;&lt;br&gt;&lt;/p&gt;&lt;p style=&quot;margin: 0px; margin-left: 8px;&quot;&gt;&lt;b&gt;3.Technology:&lt;/b&gt;&lt;/p&gt;&lt;p style=&quot;margin: 0px; margin-left: 8px;&quot;&gt;- SPARQL, end point&lt;/p&gt;&lt;p style=&quot;margin: 0px; margin-left: 8px;&quot;&gt;&amp;nbsp;(&lt;span style=&quot;background-color: initial;&quot;&gt;&lt;b&gt;&lt;i&gt;&lt;font style=&quot;font-size: 9px;&quot;&gt;machine-to-machine interaction&lt;/font&gt;&lt;/i&gt;&lt;/b&gt;&lt;/span&gt;&lt;span style=&quot;background-color: initial;&quot;&gt;)&lt;/span&gt;&lt;/p&gt;&lt;p style=&quot;margin: 0px; margin-left: 8px;&quot;&gt;&lt;span style=&quot;background-color: initial;&quot;&gt;- LodLive, navigator&lt;/span&gt;&lt;/p&gt;&lt;p style=&quot;margin: 0px; margin-left: 8px;&quot;&gt;&lt;br&gt;&lt;/p&gt;&lt;p style=&quot;margin: 0px; margin-left: 8px;&quot;&gt;&lt;br&gt;&lt;/p&gt;&lt;p style=&quot;margin: 0px; margin-left: 8px;&quot;&gt;&lt;br&gt;&lt;/p&gt;&lt;p style=&quot;margin: 0px; margin-left: 8px;&quot;&gt;&lt;br&gt;&lt;/p&gt;&lt;p style=&quot;margin: 0px; margin-left: 8px;&quot;&gt;&lt;br&gt;&lt;/p&gt;&lt;p style=&quot;margin: 0px; margin-left: 8px;&quot;&gt;&lt;br&gt;&lt;/p&gt;" style="verticalAlign=top;align=left;overflow=fill;fontSize=12;fontFamily=Helvetica;html=1;strokeColor=#003366;shadow=1;fillColor=#D4E1F5;fontColor=#003366" parent="1" vertex="1">
          <mxGeometry x="-1360" y="240.32" width="230" height="219.68" as="geometry" />
        </mxCell>
        <mxCell id="p8qKQ9VHWNZwtDoZAId1-122" value="WHOS Architecture" style="rounded=1;whiteSpace=wrap;html=1;" parent="1" vertex="1">
          <mxGeometry x="300" y="10" width="250" height="60" as="geometry" />
        </mxCell>
        <mxCell id="nmjursHmpdUEIppOzTPe-118" style="edgeStyle=orthogonalEdgeStyle;rounded=0;orthogonalLoop=1;jettySize=auto;html=1;exitX=1;exitY=0.5;exitDx=0;exitDy=0;entryX=0.25;entryY=1;entryDx=0;entryDy=0;" parent="1" source="nmjursHmpdUEIppOzTPe-112" target="20" edge="1">
          <mxGeometry relative="1" as="geometry" />
        </mxCell>
        <mxCell id="ByorQN-n8A6gGtA52p3b-138" style="edgeStyle=orthogonalEdgeStyle;rounded=0;orthogonalLoop=1;jettySize=auto;html=1;exitX=1;exitY=0;exitDx=0;exitDy=0;entryX=1;entryY=0.75;entryDx=0;entryDy=0;" parent="1" source="nmjursHmpdUEIppOzTPe-112" target="sPka1O8lK50sSDJXgDmI-113" edge="1">
          <mxGeometry relative="1" as="geometry">
            <mxPoint x="-130.29411764705856" y="600" as="targetPoint" />
          </mxGeometry>
        </mxCell>
        <mxCell id="nmjursHmpdUEIppOzTPe-112" value="&lt;p style=&quot;margin: 0px; margin-top: 4px; text-align: center; text-decoration: underline;&quot;&gt;&lt;strong&gt;User Interface&lt;/strong&gt;&lt;/p&gt;&lt;hr&gt;&lt;p style=&quot;margin: 0px; margin-left: 8px;&quot;&gt;Portal&lt;/p&gt;&lt;p style=&quot;margin: 0px; margin-left: 8px;&quot;&gt;Global Portal&lt;/p&gt;&lt;p style=&quot;margin: 0px; margin-left: 8px;&quot;&gt;Programmatic tools&lt;/p&gt;" style="verticalAlign=top;align=left;overflow=fill;fontSize=12;fontFamily=Helvetica;html=1;strokeColor=#003366;shadow=1;fillColor=#D4E1F5;fontColor=#003366" parent="1" vertex="1">
          <mxGeometry x="-280" y="690" width="180" height="190" as="geometry" />
        </mxCell>
        <mxCell id="ByorQN-n8A6gGtA52p3b-112" value="Relation" style="endArrow=open;html=1;endSize=12;startArrow=diamondThin;startSize=14;startFill=0;edgeStyle=orthogonalEdgeStyle;rounded=0;strokeColor=#FF0000;exitX=0.438;exitY=1;exitDx=0;exitDy=0;exitPerimeter=0;entryX=0.5;entryY=0;entryDx=0;entryDy=0;" parent="1" source="21" target="nmjursHmpdUEIppOzTPe-112" edge="1">
          <mxGeometry relative="1" as="geometry">
            <mxPoint x="-210" y="480" as="sourcePoint" />
            <mxPoint x="-220" y="590" as="targetPoint" />
          </mxGeometry>
        </mxCell>
        <mxCell id="ByorQN-n8A6gGtA52p3b-113" value="0..n" style="edgeLabel;resizable=0;html=1;align=left;verticalAlign=top;" parent="ByorQN-n8A6gGtA52p3b-112" connectable="0" vertex="1">
          <mxGeometry x="-1" relative="1" as="geometry" />
        </mxCell>
        <mxCell id="ByorQN-n8A6gGtA52p3b-114" value="&lt;font style=&quot;font-size: 12px;&quot;&gt;0,..*&lt;/font&gt;" style="edgeLabel;resizable=0;html=1;align=right;verticalAlign=top;" parent="ByorQN-n8A6gGtA52p3b-112" connectable="0" vertex="1">
          <mxGeometry x="1" relative="1" as="geometry">
            <mxPoint x="30" y="-30" as="offset" />
          </mxGeometry>
        </mxCell>
        <mxCell id="ByorQN-n8A6gGtA52p3b-122" value="Relation" style="endArrow=open;html=1;endSize=12;startArrow=diamondThin;startSize=14;startFill=0;edgeStyle=orthogonalEdgeStyle;rounded=0;exitX=-0.031;exitY=0.364;exitDx=0;exitDy=0;exitPerimeter=0;strokeColor=#FF0000;" parent="1" source="25" target="nmjursHmpdUEIppOzTPe-112" edge="1">
          <mxGeometry x="0.0286" y="30" relative="1" as="geometry">
            <mxPoint x="-480" y="510" as="sourcePoint" />
            <mxPoint x="-330" y="695" as="targetPoint" />
            <Array as="points">
              <mxPoint x="-360" y="103" />
              <mxPoint x="-360" y="695" />
            </Array>
            <mxPoint y="-1" as="offset" />
          </mxGeometry>
        </mxCell>
        <mxCell id="ByorQN-n8A6gGtA52p3b-123" value="0..1" style="edgeLabel;resizable=0;html=1;align=left;verticalAlign=top;" parent="ByorQN-n8A6gGtA52p3b-122" connectable="0" vertex="1">
          <mxGeometry x="-1" relative="1" as="geometry" />
        </mxCell>
        <mxCell id="ByorQN-n8A6gGtA52p3b-124" value="&lt;font style=&quot;font-size: 12px;&quot;&gt;0,..*&lt;/font&gt;" style="edgeLabel;resizable=0;html=1;align=right;verticalAlign=top;" parent="ByorQN-n8A6gGtA52p3b-122" connectable="0" vertex="1">
          <mxGeometry x="1" relative="1" as="geometry">
            <mxPoint x="-10" y="-25" as="offset" />
          </mxGeometry>
        </mxCell>
        <mxCell id="ByorQN-n8A6gGtA52p3b-125" value="&lt;b&gt;Question:&lt;/b&gt; is this aggregation or multiplicity?&lt;div&gt;Note: i am considering these arrows as aggregation&lt;/div&gt;" style="text;html=1;align=center;verticalAlign=middle;whiteSpace=wrap;rounded=0;fillColor=#FF6666;" parent="1" vertex="1">
          <mxGeometry x="-230" y="140" width="150" height="65" as="geometry" />
        </mxCell>
        <mxCell id="ByorQN-n8A6gGtA52p3b-126" value="&lt;p style=&quot;margin: 0px; margin-top: 4px; text-align: center; text-decoration: underline;&quot;&gt;&lt;b&gt;Ontology&lt;/b&gt;&lt;/p&gt;" style="verticalAlign=top;align=left;overflow=fill;fontSize=12;fontFamily=Helvetica;html=1;strokeColor=#003366;shadow=1;fillColor=#D4E1F5;fontColor=#003366" parent="1" vertex="1">
          <mxGeometry x="640.0000000000001" y="5.0000000000004405" width="160" height="120" as="geometry" />
        </mxCell>
        <mxCell id="ByorQN-n8A6gGtA52p3b-128" value="&lt;span style=&quot;color: rgb(15, 23, 42); font-family: Montserrat, sans-serif; text-align: start;&quot;&gt;&lt;font style=&quot;font-size: 12px;&quot;&gt;&lt;b&gt;&#39;WHOS-Arctic web portal&#39;&lt;/b&gt; can we consider this as an example of&amp;nbsp; WHOS node?&lt;/font&gt;&lt;/span&gt;" style="text;html=1;align=center;verticalAlign=middle;whiteSpace=wrap;rounded=0;fillColor=#FF6666;" parent="1" vertex="1">
          <mxGeometry x="-210" y="15" width="150" height="45" as="geometry" />
        </mxCell>
        <mxCell id="ByorQN-n8A6gGtA52p3b-132" value="Relation" style="endArrow=open;html=1;endSize=12;startArrow=diamondThin;startSize=14;startFill=0;edgeStyle=orthogonalEdgeStyle;rounded=0;strokeColor=#FF0000;exitX=0;exitY=0.75;exitDx=0;exitDy=0;" parent="1" source="19" target="nmjursHmpdUEIppOzTPe-112" edge="1">
          <mxGeometry relative="1" as="geometry">
            <mxPoint x="240" y="320" as="sourcePoint" />
            <mxPoint x="-150" y="550" as="targetPoint" />
            <Array as="points">
              <mxPoint x="240" y="182" />
              <mxPoint x="240" y="280" />
              <mxPoint x="-40" y="280" />
              <mxPoint x="-40" y="480" />
              <mxPoint x="-150" y="480" />
            </Array>
          </mxGeometry>
        </mxCell>
        <mxCell id="ByorQN-n8A6gGtA52p3b-133" value="0..1" style="edgeLabel;resizable=0;html=1;align=left;verticalAlign=top;" parent="ByorQN-n8A6gGtA52p3b-132" connectable="0" vertex="1">
          <mxGeometry x="-1" relative="1" as="geometry" />
        </mxCell>
        <mxCell id="ByorQN-n8A6gGtA52p3b-134" value="&lt;font style=&quot;font-size: 12px;&quot;&gt;0,..*&lt;/font&gt;" style="edgeLabel;resizable=0;html=1;align=right;verticalAlign=top;" parent="ByorQN-n8A6gGtA52p3b-132" connectable="0" vertex="1">
          <mxGeometry x="1" relative="1" as="geometry">
            <mxPoint x="30" y="-30" as="offset" />
          </mxGeometry>
        </mxCell>
        <mxCell id="GVXIdYA1icVKulcnw7SD-112" value="Text" style="edgeLabel;html=1;align=center;verticalAlign=middle;resizable=0;points=[];" parent="ByorQN-n8A6gGtA52p3b-132" vertex="1" connectable="0">
          <mxGeometry x="-0.3611" y="-4" relative="1" as="geometry">
            <mxPoint as="offset" />
          </mxGeometry>
        </mxCell>
        <mxCell id="ByorQN-n8A6gGtA52p3b-135" value="Relation" style="endArrow=open;html=1;endSize=12;startArrow=diamondThin;startSize=14;startFill=0;edgeStyle=orthogonalEdgeStyle;rounded=0;exitX=0;exitY=0.5;exitDx=0;exitDy=0;strokeColor=#FF0000;entryX=1.024;entryY=0.343;entryDx=0;entryDy=0;entryPerimeter=0;" parent="1" source="19" target="21" edge="1">
          <mxGeometry relative="1" as="geometry">
            <mxPoint x="-160" y="340" as="sourcePoint" />
            <mxPoint x="390" y="350" as="targetPoint" />
            <Array as="points">
              <mxPoint x="180" y="152" />
              <mxPoint x="180" y="230" />
              <mxPoint x="-120" y="230" />
              <mxPoint x="-120" y="355" />
            </Array>
          </mxGeometry>
        </mxCell>
        <mxCell id="ByorQN-n8A6gGtA52p3b-136" value="0..1" style="edgeLabel;resizable=0;html=1;align=left;verticalAlign=top;" parent="ByorQN-n8A6gGtA52p3b-135" connectable="0" vertex="1">
          <mxGeometry x="-1" relative="1" as="geometry" />
        </mxCell>
        <mxCell id="ByorQN-n8A6gGtA52p3b-137" value="&lt;font style=&quot;font-size: 12px;&quot;&gt;0,..*&lt;/font&gt;" style="edgeLabel;resizable=0;html=1;align=right;verticalAlign=top;" parent="ByorQN-n8A6gGtA52p3b-135" connectable="0" vertex="1">
          <mxGeometry x="1" relative="1" as="geometry" />
        </mxCell>
        <mxCell id="ByorQN-n8A6gGtA52p3b-147" value="Changes in the ontology will affect the DAB" style="text;html=1;align=center;verticalAlign=middle;whiteSpace=wrap;rounded=0;fillColor=#66FF66;" parent="1" vertex="1">
          <mxGeometry x="530" y="90" width="100" height="40" as="geometry" />
        </mxCell>
        <mxCell id="ByorQN-n8A6gGtA52p3b-148" value="Dependency" style="text;html=1;align=center;verticalAlign=middle;whiteSpace=wrap;rounded=0;" parent="1" vertex="1">
          <mxGeometry x="550" y="140" width="60" height="30" as="geometry" />
        </mxCell>
        <mxCell id="ke9NZwDRJzb7mPrDCmST-113" value="" style="endArrow=open;endSize=12;startArrow=diamondThin;startSize=14;startFill=0;edgeStyle=orthogonalEdgeStyle;strokeColor=#FF0000;entryX=1;entryY=0.5;entryDx=0;entryDy=0;exitX=0;exitY=0.32;exitDx=0;exitDy=0;exitPerimeter=0;" parent="1" source="19" target="25" edge="1">
          <mxGeometry x="620" y="340" as="geometry">
            <mxPoint x="250" y="90" as="sourcePoint" />
            <mxPoint x="150" y="330" as="targetPoint" />
            <Array as="points">
              <mxPoint x="250" y="130" />
              <mxPoint x="250" y="125" />
            </Array>
          </mxGeometry>
        </mxCell>
        <mxCell id="ke9NZwDRJzb7mPrDCmST-114" value="0..1" style="resizable=0;align=left;verticalAlign=top;labelBackgroundColor=#ffffff;fontSize=10;strokeColor=#003366;shadow=1;fillColor=#D4E1F5;fontColor=#003366" parent="ke9NZwDRJzb7mPrDCmST-113" connectable="0" vertex="1">
          <mxGeometry x="-1" relative="1" as="geometry">
            <mxPoint x="10" as="offset" />
          </mxGeometry>
        </mxCell>
        <mxCell id="ke9NZwDRJzb7mPrDCmST-115" value="0,..*" style="resizable=0;align=right;verticalAlign=top;labelBackgroundColor=#ffffff;fontSize=10;strokeColor=#003366;shadow=1;fillColor=#D4E1F5;fontColor=#003366" parent="ke9NZwDRJzb7mPrDCmST-113" connectable="0" vertex="1">
          <mxGeometry x="1" relative="1" as="geometry">
            <mxPoint x="20" y="-24.99999999999981" as="offset" />
          </mxGeometry>
        </mxCell>
        <mxCell id="ke9NZwDRJzb7mPrDCmST-116" value="&lt;div style=&quot;text-align: start;&quot;&gt;&lt;span style=&quot;background-color: initial;&quot;&gt;&lt;font style=&quot;font-size: 11px;&quot; face=&quot;Montserrat, sans-serif&quot; color=&quot;#0f172a&quot;&gt;&lt;b style=&quot;&quot;&gt;Aggregation: The DAB could access one or many nodes&lt;/b&gt;&lt;/font&gt;&lt;/span&gt;&lt;/div&gt;" style="text;html=1;align=center;verticalAlign=middle;whiteSpace=wrap;rounded=0;fillColor=#66FF66;" parent="1" vertex="1">
          <mxGeometry x="150" y="70" width="110" height="45" as="geometry" />
        </mxCell>
        <mxCell id="ke9NZwDRJzb7mPrDCmST-120" value="&lt;div style=&quot;text-align: start;&quot;&gt;&lt;font face=&quot;Montserrat, sans-serif&quot; color=&quot;#0f172a&quot;&gt;&lt;b&gt;Association: A portal might have access to a node&lt;/b&gt;&lt;/font&gt;&lt;/div&gt;" style="text;html=1;align=center;verticalAlign=middle;whiteSpace=wrap;rounded=0;fillColor=#66FF66;" parent="1" vertex="1">
          <mxGeometry x="310" y="310.64" width="110" height="49.36" as="geometry" />
        </mxCell>
        <mxCell id="ke9NZwDRJzb7mPrDCmST-122" value="&lt;b&gt;&lt;font style=&quot;font-size: 11px;&quot;&gt;Implementation: User interface is fixed based on the user need&lt;/font&gt;&lt;/b&gt;" style="text;html=1;align=center;verticalAlign=middle;whiteSpace=wrap;rounded=0;fillColor=#66FF66;rotation=-15;" parent="1" vertex="1">
          <mxGeometry x="-110" y="856.1600000000001" width="110" height="60" as="geometry" />
        </mxCell>
        <mxCell id="ke9NZwDRJzb7mPrDCmST-124" value="" style="whiteSpace=wrap;html=1;fillColor=#66FF66;" parent="1" vertex="1">
          <mxGeometry x="880" y="110" width="70" height="20" as="geometry" />
        </mxCell>
        <mxCell id="ke9NZwDRJzb7mPrDCmST-125" value="Justification for the UML arrow" style="text;html=1;align=center;verticalAlign=middle;whiteSpace=wrap;rounded=0;" parent="1" vertex="1">
          <mxGeometry x="950" y="100" width="90" height="40" as="geometry" />
        </mxCell>
        <mxCell id="ke9NZwDRJzb7mPrDCmST-126" value="" style="text;html=1;align=center;verticalAlign=middle;whiteSpace=wrap;rounded=0;fillColor=#FF6666;" parent="1" vertex="1">
          <mxGeometry x="880" y="144.18" width="70" height="21.64" as="geometry" />
        </mxCell>
        <mxCell id="ke9NZwDRJzb7mPrDCmST-128" value="Need clarification" style="text;html=1;align=center;verticalAlign=middle;whiteSpace=wrap;rounded=0;" parent="1" vertex="1">
          <mxGeometry x="965" y="144.18" width="60" height="30" as="geometry" />
        </mxCell>
        <mxCell id="ke9NZwDRJzb7mPrDCmST-130" value="&lt;div style=&quot;text-align: start;&quot;&gt;&lt;span style=&quot;background-color: initial;&quot;&gt;&lt;font style=&quot;font-size: 11px;&quot; face=&quot;Montserrat, sans-serif&quot; color=&quot;#0f172a&quot;&gt;&lt;b style=&quot;&quot;&gt;Aggregation: WHOS node could push data from one or manydata centers&lt;/b&gt;&lt;/font&gt;&lt;/span&gt;&lt;/div&gt;" style="text;html=1;align=center;verticalAlign=middle;whiteSpace=wrap;rounded=0;fillColor=#66FF66;" parent="1" vertex="1">
          <mxGeometry x="-340" y="210" width="110" height="50" as="geometry" />
        </mxCell>
        <mxCell id="ke9NZwDRJzb7mPrDCmST-131" value="&lt;div style=&quot;text-align: start;&quot;&gt;&lt;span style=&quot;background-color: initial;&quot;&gt;&lt;font style=&quot;font-size: 11px;&quot; face=&quot;Montserrat, sans-serif&quot; color=&quot;#0f172a&quot;&gt;&lt;b style=&quot;&quot;&gt;Recommended Data downlaod&lt;/b&gt;&lt;/font&gt;&lt;/span&gt;&lt;/div&gt;" style="text;html=1;align=center;verticalAlign=middle;whiteSpace=wrap;rounded=0;fillColor=#66FF66;" parent="1" vertex="1">
          <mxGeometry x="-460" y="340" width="110" height="50" as="geometry" />
        </mxCell>
        <mxCell id="ke9NZwDRJzb7mPrDCmST-133" value="&lt;b&gt;Question:&lt;/b&gt; is there a way that the DAB have direct access to the data centers and data provides?" style="text;html=1;align=center;verticalAlign=middle;whiteSpace=wrap;rounded=0;fillColor=#FF6666;" parent="1" vertex="1">
          <mxGeometry x="-130" y="270" width="150" height="65" as="geometry" />
        </mxCell>
        <mxCell id="3stKuCWcM-aVxzSx9yWe-112" value="&lt;p style=&quot;margin: 0px; margin-top: 4px; text-align: center; text-decoration: underline;&quot;&gt;&lt;strong&gt;Data Archive&amp;nbsp;&lt;/strong&gt;&lt;/p&gt;&lt;hr&gt;&lt;p style=&quot;margin: 0px; margin-left: 8px;&quot;&gt;Historical storage/longterm/&lt;span style=&quot;background-color: initial;&quot;&gt;Back up&lt;/span&gt;&lt;/p&gt;&lt;p style=&quot;margin: 0px; margin-left: 8px;&quot;&gt;&lt;br&gt;&lt;/p&gt;&lt;p style=&quot;margin: 0px; margin-left: 8px;&quot;&gt;&lt;br&gt;&lt;/p&gt;&lt;p style=&quot;margin: 0px; margin-left: 8px;&quot;&gt;Global&lt;/p&gt;" style="verticalAlign=top;align=left;overflow=fill;fontSize=12;fontFamily=Helvetica;html=1;strokeColor=#003366;shadow=1;fillColor=#D4E1F5;fontColor=#003366" parent="1" vertex="1">
          <mxGeometry x="-1352.5" y="520.32" width="262.5" height="199.68" as="geometry" />
        </mxCell>
        <mxCell id="3stKuCWcM-aVxzSx9yWe-115" value="Relation" style="endArrow=open;html=1;endSize=12;startArrow=diamondThin;startSize=14;startFill=0;edgeStyle=orthogonalEdgeStyle;rounded=0;strokeColor=#FF0000;entryX=1.024;entryY=0.343;entryDx=0;entryDy=0;entryPerimeter=0;exitX=0;exitY=0.903;exitDx=0;exitDy=0;exitPerimeter=0;" parent="1" source="19" edge="1">
          <mxGeometry relative="1" as="geometry">
            <mxPoint x="270" y="310" as="sourcePoint" />
            <mxPoint x="-356" y="620" as="targetPoint" />
            <Array as="points">
              <mxPoint x="310" y="417" />
              <mxPoint x="-20" y="417" />
              <mxPoint x="-20" y="495" />
              <mxPoint x="-320" y="495" />
              <mxPoint x="-320" y="620" />
            </Array>
          </mxGeometry>
        </mxCell>
        <mxCell id="3stKuCWcM-aVxzSx9yWe-116" value="0..1" style="edgeLabel;resizable=0;html=1;align=left;verticalAlign=top;" parent="3stKuCWcM-aVxzSx9yWe-115" connectable="0" vertex="1">
          <mxGeometry x="-1" relative="1" as="geometry" />
        </mxCell>
        <mxCell id="3stKuCWcM-aVxzSx9yWe-117" value="&lt;font style=&quot;font-size: 12px;&quot;&gt;0,..*&lt;/font&gt;" style="edgeLabel;resizable=0;html=1;align=right;verticalAlign=top;" parent="3stKuCWcM-aVxzSx9yWe-115" connectable="0" vertex="1">
          <mxGeometry x="1" relative="1" as="geometry" />
        </mxCell>
        <mxCell id="3stKuCWcM-aVxzSx9yWe-119" value="&lt;p style=&quot;margin: 0px; margin-top: 4px; text-align: center; text-decoration: underline;&quot;&gt;&lt;/p&gt;&lt;p style=&quot;margin: 0px; margin-left: 8px;&quot;&gt;&lt;b&gt;Users&lt;/b&gt;&lt;/p&gt;&lt;p style=&quot;margin: 0px; margin-left: 8px;&quot;&gt;&lt;br&gt;&lt;/p&gt;" style="verticalAlign=top;align=left;overflow=fill;fontSize=12;fontFamily=Helvetica;html=1;strokeColor=#003366;shadow=1;fillColor=#D4E1F5;fontColor=#003366" parent="1" vertex="1">
          <mxGeometry x="-540" y="846.16" width="120" height="93.84" as="geometry" />
        </mxCell>
        <mxCell id="3stKuCWcM-aVxzSx9yWe-120" value="&lt;p style=&quot;margin: 0px; margin-top: 4px; text-align: center; text-decoration: underline;&quot;&gt;&lt;/p&gt;&lt;p style=&quot;margin: 0px; margin-left: 8px;&quot;&gt;&lt;b&gt;Users&lt;/b&gt;&lt;/p&gt;&lt;p style=&quot;margin: 0px; margin-left: 8px;&quot;&gt;&lt;br&gt;&lt;/p&gt;" style="verticalAlign=top;align=left;overflow=fill;fontSize=12;fontFamily=Helvetica;html=1;strokeColor=#003366;shadow=1;fillColor=#D4E1F5;fontColor=#003366" parent="1" vertex="1">
          <mxGeometry x="-195" y="926.16" width="120" height="80" as="geometry" />
        </mxCell>
        <mxCell id="3stKuCWcM-aVxzSx9yWe-121" value="&lt;b&gt;&lt;font style=&quot;font-size: 11px;&quot;&gt;Core Data download&lt;/font&gt;&lt;/b&gt;" style="text;html=1;align=center;verticalAlign=middle;whiteSpace=wrap;rounded=0;fillColor=#66FF66;rotation=-15;" parent="1" vertex="1">
          <mxGeometry x="-417.03" y="821.69" width="110" height="28.84" as="geometry" />
        </mxCell>
        <mxCell id="3stKuCWcM-aVxzSx9yWe-122" value="&lt;b&gt;&lt;font style=&quot;font-size: 11px;&quot;&gt;Scripts&lt;/font&gt;&lt;/b&gt;" style="text;html=1;align=center;verticalAlign=middle;whiteSpace=wrap;rounded=0;fillColor=#66FF66;rotation=-130;" parent="1" vertex="1">
          <mxGeometry x="-210" y="899.38" width="110" height="23.66" as="geometry" />
        </mxCell>
        <mxCell id="3stKuCWcM-aVxzSx9yWe-127" value="&lt;p style=&quot;margin: 0px; margin-top: 4px; text-align: center; text-decoration: underline;&quot;&gt;&lt;/p&gt;&lt;p style=&quot;margin: 0px; margin-left: 8px;&quot;&gt;&lt;b&gt;Data Providers&lt;/b&gt;&lt;/p&gt;" style="verticalAlign=top;align=left;overflow=fill;fontSize=12;fontFamily=Helvetica;html=1;strokeColor=#003366;shadow=1;fillColor=#D4E1F5;fontColor=#003366" parent="1" vertex="1">
          <mxGeometry x="-480" y="15" width="115" height="80" as="geometry" />
        </mxCell>
        <mxCell id="3stKuCWcM-aVxzSx9yWe-129" value="" style="endArrow=open;startArrow=none;endFill=0;startFill=0;endSize=8;html=1;verticalAlign=bottom;labelBackgroundColor=none;strokeWidth=1;rounded=0;entryX=1;entryY=0.65;entryDx=0;entryDy=0;entryPerimeter=0;fillColor=#FF0000;strokeColor=#FF0000;" parent="1" edge="1">
          <mxGeometry width="160" relative="1" as="geometry">
            <mxPoint x="630" y="70" as="sourcePoint" />
            <mxPoint x="470" y="154" as="targetPoint" />
          </mxGeometry>
        </mxCell>
        <mxCell id="3stKuCWcM-aVxzSx9yWe-132" value="&lt;p style=&quot;margin: 0px; margin-top: 4px; text-align: center; text-decoration: underline;&quot;&gt;&lt;b&gt;WIS Global Calogue&lt;/b&gt;&lt;/p&gt;&lt;hr&gt;&lt;p style=&quot;margin: 0px; margin-left: 8px;&quot;&gt;&lt;br&gt;&lt;/p&gt;" style="verticalAlign=top;align=left;overflow=fill;fontSize=12;fontFamily=Helvetica;html=1;strokeColor=#003366;shadow=1;fillColor=#D4E1F5;fontColor=#003366" parent="1" vertex="1">
          <mxGeometry x="640.0000000000001" y="215.00000000000045" width="160" height="120" as="geometry" />
        </mxCell>
        <mxCell id="3stKuCWcM-aVxzSx9yWe-133" value="Use" style="endArrow=open;endSize=12;dashed=1;exitX=0;exitY=0.5;exitDx=0;exitDy=0;entryX=1.012;entryY=0.875;entryDx=0;entryDy=0;entryPerimeter=0;" parent="1" source="3stKuCWcM-aVxzSx9yWe-132" target="25" edge="1">
          <mxGeometry x="430" y="50" as="geometry">
            <mxPoint x="590" y="361.1600000000004" as="sourcePoint" />
            <mxPoint x="422.0799999999999" y="260.00000000000034" as="targetPoint" />
          </mxGeometry>
        </mxCell>
        <mxCell id="3stKuCWcM-aVxzSx9yWe-134" value="" style="endArrow=open;startArrow=none;endFill=0;startFill=0;endSize=8;html=1;verticalAlign=bottom;labelBackgroundColor=none;strokeWidth=1;rounded=0;entryX=1;entryY=0.65;entryDx=0;entryDy=0;entryPerimeter=0;fillColor=#FF0000;strokeColor=#FF0000;" parent="1" source="3stKuCWcM-aVxzSx9yWe-132" edge="1">
          <mxGeometry width="160" relative="1" as="geometry">
            <mxPoint x="630" y="86" as="sourcePoint" />
            <mxPoint x="470" y="170" as="targetPoint" />
          </mxGeometry>
        </mxCell>
        <mxCell id="3stKuCWcM-aVxzSx9yWe-135" value="" style="endArrow=open;startArrow=none;endFill=0;startFill=0;endSize=8;html=1;verticalAlign=bottom;labelBackgroundColor=none;strokeWidth=1;rounded=0;fillColor=#FF0000;strokeColor=#FF0000;exitX=1.012;exitY=0.179;exitDx=0;exitDy=0;exitPerimeter=0;entryX=0;entryY=0.5;entryDx=0;entryDy=0;" parent="1" source="25" target="ByorQN-n8A6gGtA52p3b-126" edge="1">
          <mxGeometry width="160" relative="1" as="geometry">
            <mxPoint x="600" y="360" as="sourcePoint" />
            <mxPoint x="480" y="-110" as="targetPoint" />
          </mxGeometry>
        </mxCell>
        <mxCell id="3stKuCWcM-aVxzSx9yWe-136" value="&lt;p style=&quot;margin: 0px; margin-top: 4px; text-align: center; text-decoration: underline;&quot;&gt;&lt;b&gt;WIS Broker&lt;/b&gt;&lt;/p&gt;" style="verticalAlign=top;align=left;overflow=fill;fontSize=12;fontFamily=Helvetica;html=1;strokeColor=#003366;shadow=1;fillColor=#D4E1F5;fontColor=#003366" parent="1" vertex="1">
          <mxGeometry x="-9.999999999999545" y="610.0000000000006" width="160" height="100" as="geometry" />
        </mxCell>
        <mxCell id="3stKuCWcM-aVxzSx9yWe-137" value="" style="endArrow=classic;html=1;rounded=0;entryX=0.75;entryY=1;entryDx=0;entryDy=0;" parent="1" target="19" edge="1">
          <mxGeometry width="50" height="50" relative="1" as="geometry">
            <mxPoint x="140" y="610" as="sourcePoint" />
            <mxPoint x="180" y="565" as="targetPoint" />
          </mxGeometry>
        </mxCell>
        <mxCell id="3stKuCWcM-aVxzSx9yWe-139" value="" style="endArrow=classic;html=1;rounded=0;entryX=0.688;entryY=1.02;entryDx=0;entryDy=0;entryPerimeter=0;exitX=0.417;exitY=1.022;exitDx=0;exitDy=0;strokeColor=#FF0000;exitPerimeter=0;" parent="1" source="3stKuCWcM-aVxzSx9yWe-136" edge="1">
          <mxGeometry width="50" height="50" relative="1" as="geometry">
            <mxPoint x="30.000000000000455" y="680.0000000000005" as="sourcePoint" />
            <mxPoint x="-100" y="796.16" as="targetPoint" />
          </mxGeometry>
        </mxCell>
        <mxCell id="3stKuCWcM-aVxzSx9yWe-141" value="&lt;b&gt;&lt;font style=&quot;font-size: 11px;&quot;&gt;Notification&lt;/font&gt;&lt;/b&gt;" style="text;html=1;align=center;verticalAlign=middle;whiteSpace=wrap;rounded=0;fillColor=#66FF66;rotation=-15;" parent="1" vertex="1">
          <mxGeometry x="-407.03" y="866.11" width="110" height="28.84" as="geometry" />
        </mxCell>
        <mxCell id="3stKuCWcM-aVxzSx9yWe-142" value="" style="endArrow=classic;html=1;rounded=0;entryX=0.5;entryY=1;entryDx=0;entryDy=0;strokeColor=#FF0000;exitX=0.01;exitY=0.843;exitDx=0;exitDy=0;exitPerimeter=0;" parent="1" source="3stKuCWcM-aVxzSx9yWe-132" edge="1">
          <mxGeometry width="50" height="50" relative="1" as="geometry">
            <mxPoint x="440" y="440" as="sourcePoint" />
            <mxPoint x="-110" y="741" as="targetPoint" />
          </mxGeometry>
        </mxCell>
        <mxCell id="sPka1O8lK50sSDJXgDmI-113" value="&lt;p style=&quot;margin: 0px; margin-top: 4px; text-align: center; text-decoration: underline;&quot;&gt;&lt;strong&gt;Data Archive&lt;/strong&gt;&lt;/p&gt;&lt;hr&gt;&lt;p style=&quot;margin: 0px; margin-left: 8px;&quot;&gt;Regional&lt;/p&gt;&lt;p style=&quot;margin: 0px; margin-left: 8px;&quot;&gt;&lt;br&gt;&lt;/p&gt;&lt;p style=&quot;margin: 0px; margin-left: 8px;&quot;&gt;&lt;br&gt;&lt;/p&gt;&lt;p style=&quot;margin: 0px; margin-left: 8px;&quot;&gt;Global&lt;/p&gt;" style="verticalAlign=top;align=left;overflow=fill;fontSize=12;fontFamily=Helvetica;html=1;strokeColor=#003366;shadow=1;fillColor=#D4E1F5;fontColor=#003366" parent="1" vertex="1">
          <mxGeometry x="-590" y="540.1599999999997" width="160" height="160" as="geometry" />
        </mxCell>
        <mxCell id="sPka1O8lK50sSDJXgDmI-114" value="" style="endArrow=classic;html=1;rounded=0;entryX=0.018;entryY=0.587;entryDx=0;entryDy=0;entryPerimeter=0;exitX=1;exitY=0.25;exitDx=0;exitDy=0;" parent="1" source="sPka1O8lK50sSDJXgDmI-113" target="20" edge="1">
          <mxGeometry width="50" height="50" relative="1" as="geometry">
            <mxPoint x="-150" y="430" as="sourcePoint" />
            <mxPoint x="-150" y="480" as="targetPoint" />
          </mxGeometry>
        </mxCell>
        <mxCell id="sPka1O8lK50sSDJXgDmI-115" value="&lt;div style=&quot;text-align: start;&quot;&gt;&lt;span style=&quot;background-color: initial;&quot;&gt;&lt;font style=&quot;font-size: 11px;&quot; face=&quot;Montserrat, sans-serif&quot; color=&quot;#0f172a&quot;&gt;&lt;b style=&quot;&quot;&gt;Core data&lt;/b&gt;&lt;/font&gt;&lt;/span&gt;&lt;/div&gt;" style="text;html=1;align=center;verticalAlign=middle;whiteSpace=wrap;rounded=0;fillColor=#66FF66;" parent="1" vertex="1">
          <mxGeometry x="-310" y="630" width="110" height="30" as="geometry" />
        </mxCell>
        <mxCell id="sPka1O8lK50sSDJXgDmI-116" value="&lt;div style=&quot;text-align: start;&quot;&gt;&lt;span style=&quot;background-color: initial;&quot;&gt;&lt;font style=&quot;font-size: 11px;&quot; face=&quot;Montserrat, sans-serif&quot; color=&quot;#0f172a&quot;&gt;&lt;b style=&quot;&quot;&gt;Core data&lt;/b&gt;&lt;/font&gt;&lt;/span&gt;&lt;/div&gt;" style="text;html=1;align=center;verticalAlign=middle;whiteSpace=wrap;rounded=0;fillColor=#66FF66;" parent="1" vertex="1">
          <mxGeometry x="-245" y="530" width="65" height="30" as="geometry" />
        </mxCell>
        <mxCell id="sPka1O8lK50sSDJXgDmI-117" value="" style="endArrow=classic;html=1;rounded=0;entryX=0;entryY=0.156;entryDx=0;entryDy=0;entryPerimeter=0;exitX=1;exitY=0.75;exitDx=0;exitDy=0;" parent="1" source="sPka1O8lK50sSDJXgDmI-135" target="25" edge="1">
          <mxGeometry width="50" height="50" relative="1" as="geometry">
            <mxPoint x="-340" y="70" as="sourcePoint" />
            <mxPoint x="-280" as="targetPoint" />
          </mxGeometry>
        </mxCell>
        <mxCell id="sPka1O8lK50sSDJXgDmI-118" value="" style="endArrow=classic;html=1;rounded=0;" parent="1" edge="1">
          <mxGeometry width="50" height="50" relative="1" as="geometry">
            <mxPoint x="-160" y="427.5" as="sourcePoint" />
            <mxPoint x="30" y="450" as="targetPoint" />
          </mxGeometry>
        </mxCell>
        <mxCell id="sPka1O8lK50sSDJXgDmI-120" value="&lt;p style=&quot;margin: 0px; margin-top: 4px; text-align: center; text-decoration: underline;&quot;&gt;&lt;strong&gt;Data Cache&amp;nbsp;&lt;/strong&gt;&lt;/p&gt;&lt;hr&gt;&lt;p style=&quot;margin: 0px; margin-left: 8px;&quot;&gt;Realtime&lt;/p&gt;&lt;p style=&quot;margin: 0px; margin-left: 8px;&quot;&gt;For models&lt;/p&gt;&lt;p style=&quot;margin: 0px; margin-left: 8px;&quot;&gt;&lt;br&gt;&lt;/p&gt;&lt;p style=&quot;margin: 0px; margin-left: 8px;&quot;&gt;Regional&lt;/p&gt;&lt;p style=&quot;margin: 0px; margin-left: 8px;&quot;&gt;&lt;br&gt;&lt;/p&gt;&lt;p style=&quot;margin: 0px; margin-left: 8px;&quot;&gt;&lt;br&gt;&lt;/p&gt;&lt;p style=&quot;margin: 0px; margin-left: 8px;&quot;&gt;Global&lt;/p&gt;" style="verticalAlign=top;align=left;overflow=fill;fontSize=12;fontFamily=Helvetica;html=1;strokeColor=#003366;shadow=1;fillColor=#D4E1F5;fontColor=#003366" parent="1" vertex="1">
          <mxGeometry x="-1600" y="520" width="200" height="200" as="geometry" />
        </mxCell>
        <mxCell id="sPka1O8lK50sSDJXgDmI-121" value="&lt;p style=&quot;margin: 0px; margin-top: 4px; text-align: center; text-decoration: underline;&quot;&gt;&lt;/p&gt;&lt;p style=&quot;margin: 0px; margin-left: 8px;&quot;&gt;&lt;b&gt;&lt;u&gt;WHOS Componets: Issues to consider&lt;/u&gt;&lt;/b&gt;&lt;/p&gt;&lt;p style=&quot;margin: 0px; margin-left: 8px;&quot;&gt;1. Data Policy&lt;/p&gt;&lt;p style=&quot;margin: 0px; margin-left: 8px;&quot;&gt;2. Security&lt;/p&gt;&lt;p style=&quot;margin: 0px; margin-left: 8px;&quot;&gt;3. Cost&lt;/p&gt;&lt;p style=&quot;margin: 0px; margin-left: 8px;&quot;&gt;4. Scales: Regional, National&lt;/p&gt;&lt;p style=&quot;margin: 0px; margin-left: 8px;&quot;&gt;5. Capacity Building&lt;/p&gt;&lt;p style=&quot;margin: 0px; margin-left: 8px;&quot;&gt;6. Unstandardized data&lt;/p&gt;&lt;p style=&quot;margin: 0px; margin-left: 8px;&quot;&gt;7. Standardized data&lt;/p&gt;&lt;p style=&quot;margin: 0px; margin-left: 8px;&quot;&gt;&lt;br&gt;&lt;/p&gt;&lt;p style=&quot;margin: 0px; margin-left: 8px;&quot;&gt;&lt;br&gt;&lt;/p&gt;" style="verticalAlign=top;align=left;overflow=fill;fontSize=12;fontFamily=Helvetica;html=1;strokeColor=#003366;shadow=1;fillColor=#D4E1F5;fontColor=#003366" parent="1" vertex="1">
          <mxGeometry x="-1600" y="10" width="340" height="190" as="geometry" />
        </mxCell>
        <mxCell id="sPka1O8lK50sSDJXgDmI-122" value="&lt;p style=&quot;margin: 0px; margin-top: 4px; text-align: center; text-decoration: underline;&quot;&gt;&lt;/p&gt;&lt;p style=&quot;margin: 0px; margin-left: 8px;&quot;&gt;&lt;b&gt;Catalogue/WIS Global catalogue&lt;/b&gt;&lt;/p&gt;&lt;p style=&quot;margin: 0px; margin-left: 8px;&quot;&gt;&lt;b&gt;&lt;br&gt;&lt;/b&gt;&lt;/p&gt;&lt;p style=&quot;margin: 0px; margin-left: 8px;&quot;&gt;- Search through WIS2.0&lt;/p&gt;&lt;p style=&quot;margin: 0px; margin-left: 8px;&quot;&gt;&lt;br&gt;&lt;/p&gt;&lt;p style=&quot;margin: 0px; margin-left: 8px;&quot;&gt;-&amp;nbsp;&lt;span style=&quot;background-color: initial;&quot;&gt;WIS2.0 components:&lt;/span&gt;&lt;/p&gt;&lt;p style=&quot;margin: 0px; margin-left: 8px;&quot;&gt;&lt;br&gt;&lt;/p&gt;&lt;p style=&quot;margin: 0px; margin-left: 8px;&quot;&gt;&lt;span style=&quot;white-space: pre;&quot;&gt;&#x9;&lt;/span&gt;- Global broker: subscribes and&lt;/p&gt;&lt;p style=&quot;margin: 0px; margin-left: 8px;&quot;&gt;&amp;nbsp; &amp;nbsp; &amp;nbsp; &amp;nbsp; &amp;nbsp; &amp;nbsp;resends notification&lt;/p&gt;&lt;p style=&quot;margin: 0px; margin-left: 8px;&quot;&gt;&lt;br&gt;&lt;/p&gt;&lt;p style=&quot;margin: 0px; margin-left: 8px;&quot;&gt;&lt;span style=&quot;white-space: pre;&quot;&gt;&#x9;&lt;/span&gt;- Global cache:&lt;span style=&quot;background-color: initial;&quot;&gt;&amp;nbsp;download data&amp;nbsp;&lt;/span&gt;&lt;/p&gt;&lt;p style=&quot;margin: 0px; margin-left: 8px;&quot;&gt;&lt;span style=&quot;background-color: initial;&quot;&gt;&amp;nbsp; &amp;nbsp; &amp;nbsp; &amp;nbsp; &amp;nbsp; &amp;nbsp;(core data)&lt;/span&gt;&lt;br&gt;&lt;/p&gt;&lt;p style=&quot;margin: 0px; margin-left: 8px;&quot;&gt;&lt;span style=&quot;background-color: initial;&quot;&gt;&lt;span style=&quot;white-space: pre;&quot;&gt;&#x9;&lt;/span&gt;- WIS node (WHOS node)&lt;br&gt;&lt;/span&gt;&lt;/p&gt;&lt;p style=&quot;margin: 0px; margin-left: 8px;&quot;&gt;&lt;span style=&quot;background-color: initial;&quot;&gt;&lt;span style=&quot;white-space: pre;&quot;&gt;&#x9;&lt;/span&gt;&lt;span style=&quot;white-space: pre;&quot;&gt;&#x9;&lt;/span&gt;&lt;/span&gt;&lt;/p&gt;&lt;p style=&quot;margin: 0px; margin-left: 8px;&quot;&gt;&lt;br&gt;&lt;/p&gt;&lt;p style=&quot;margin: 0px; margin-left: 8px;&quot;&gt;&lt;br&gt;&lt;/p&gt;&lt;p style=&quot;margin: 0px; margin-left: 8px;&quot;&gt;&lt;br&gt;&lt;/p&gt;&lt;p style=&quot;margin: 0px; margin-left: 8px;&quot;&gt;&lt;br&gt;&lt;/p&gt;" style="verticalAlign=top;align=left;overflow=fill;fontSize=12;fontFamily=Helvetica;html=1;strokeColor=#003366;shadow=1;fillColor=#D4E1F5;fontColor=#003366" parent="1" vertex="1">
          <mxGeometry x="-1080" y="240.32" width="240" height="199.68" as="geometry" />
        </mxCell>
        <mxCell id="sPka1O8lK50sSDJXgDmI-123" value="&lt;p style=&quot;margin: 0px; margin-top: 4px; text-align: center; text-decoration: underline;&quot;&gt;&lt;strong&gt;Monitoring Global&lt;/strong&gt;&lt;/p&gt;&lt;hr&gt;&lt;p style=&quot;margin: 0px; margin-left: 8px;&quot;&gt;What: Caches, archives, DAB, ontology&lt;/p&gt;&lt;p style=&quot;margin: 0px; margin-left: 8px;&quot;&gt;&lt;br&gt;&lt;/p&gt;&lt;p style=&quot;margin: 0px; margin-left: 8px;&quot;&gt;Global&lt;/p&gt;" style="verticalAlign=top;align=left;overflow=fill;fontSize=12;fontFamily=Helvetica;html=1;strokeColor=#003366;shadow=1;fillColor=#D4E1F5;fontColor=#003366" parent="1" vertex="1">
          <mxGeometry x="-820" y="240.32" width="230" height="179.68" as="geometry" />
        </mxCell>
        <mxCell id="sPka1O8lK50sSDJXgDmI-124" value="&lt;p style=&quot;margin: 0px; margin-top: 4px; text-align: center; text-decoration: underline;&quot;&gt;&lt;b&gt;WIS Broker&lt;/b&gt;&lt;/p&gt;&lt;p style=&quot;margin: 0px; margin-top: 4px; text-align: center; text-decoration: underline;&quot;&gt;&lt;b&gt;Some functionalities performed by&amp;nbsp;&lt;/b&gt;&lt;/p&gt;&lt;p style=&quot;margin: 0px; margin-top: 4px; text-align: center; text-decoration: underline;&quot;&gt;&lt;b&gt;WHOS Broker&lt;/b&gt;&lt;/p&gt;" style="verticalAlign=top;align=left;overflow=fill;fontSize=12;fontFamily=Helvetica;html=1;strokeColor=#003366;shadow=1;fillColor=#D4E1F5;fontColor=#003366" parent="1" vertex="1">
          <mxGeometry x="-990" y="530" width="240" height="210" as="geometry" />
        </mxCell>
        <mxCell id="sPka1O8lK50sSDJXgDmI-126" value="&lt;p style=&quot;margin: 0px; margin-top: 4px; text-align: center; text-decoration: underline;&quot;&gt;&lt;strong&gt;WHOS Node&lt;/strong&gt;&lt;/p&gt;&lt;hr&gt;&lt;p style=&quot;margin: 0px; margin-left: 8px;&quot;&gt;- WIS2.0 Box: supports python,&lt;/p&gt;&lt;p style=&quot;margin: 0px; margin-left: 8px;&quot;&gt;&amp;nbsp; &amp;nbsp; &amp;nbsp; &amp;nbsp;R, QGIS,...&lt;/p&gt;&lt;p style=&quot;margin: 0px; margin-left: 8px;&quot;&gt;- Hydroserver2&lt;/p&gt;&lt;p style=&quot;margin: 0px; margin-left: 8px;&quot;&gt;- MCH Bridge (API)&lt;/p&gt;&lt;p style=&quot;margin: 0px; margin-left: 8px;&quot;&gt;- Others&lt;/p&gt;&lt;p style=&quot;margin: 0px; margin-left: 8px;&quot;&gt;&amp;nbsp; &amp;nbsp; .....&lt;/p&gt;&lt;p style=&quot;margin: 0px; margin-left: 8px;&quot;&gt;-&amp;nbsp;&lt;font style=&quot;background-color: initial;&quot; color=&quot;#ff0000&quot;&gt;Connection between WHOS&lt;/font&gt;&lt;/p&gt;&lt;p style=&quot;margin: 0px 0px 0px 8px;&quot;&gt;&lt;span style=&quot;background-color: initial;&quot;&gt;&lt;font color=&quot;#ff0000&quot;&gt;&lt;span style=&quot;white-space-collapse: preserve;&quot;&gt;&#x9;&lt;/span&gt;&lt;span style=&quot;white-space-collapse: preserve;&quot;&gt;&#x9;&lt;/span&gt;&amp;nbsp;node and WIS node???&lt;/font&gt;&lt;/span&gt;&lt;/p&gt;" style="verticalAlign=top;align=left;overflow=fill;fontSize=12;fontFamily=Helvetica;html=1;strokeColor=#003366;shadow=1;fillColor=#D4E1F5;fontColor=#003366" parent="1" vertex="1">
          <mxGeometry x="-720" y="15" width="190" height="195" as="geometry" />
        </mxCell>
        <mxCell id="sPka1O8lK50sSDJXgDmI-128" value="&lt;p style=&quot;margin: 0px; margin-top: 4px; text-align: center; text-decoration: underline;&quot;&gt;&lt;strong&gt;Standard&amp;nbsp;&lt;/strong&gt;&lt;/p&gt;&lt;hr&gt;&lt;p style=&quot;margin: 0px; margin-left: 8px;&quot;&gt;1. Standard: WaterML2.0&lt;/p&gt;&lt;p style=&quot;margin: 0px; margin-left: 8px;&quot;&gt;2. Standard API&lt;/p&gt;" style="verticalAlign=top;align=left;overflow=fill;fontSize=12;fontFamily=Helvetica;html=1;strokeColor=#003366;shadow=1;fillColor=#D4E1F5;fontColor=#003366" parent="1" vertex="1">
          <mxGeometry x="-1310" y="794.58" width="262.5" height="199.68" as="geometry" />
        </mxCell>
        <mxCell id="sPka1O8lK50sSDJXgDmI-129" value="&lt;p style=&quot;margin: 0px; margin-top: 4px; text-align: center; text-decoration: underline;&quot;&gt;&lt;strong&gt;User Interface&lt;/strong&gt;&lt;/p&gt;&lt;hr&gt;&lt;p style=&quot;margin: 0px; margin-left: 8px;&quot;&gt;1. Data and Metadata Access&lt;/p&gt;&lt;p style=&quot;margin: 0px; margin-left: 8px;&quot;&gt;a.WDE&lt;/p&gt;&lt;p style=&quot;margin: 0px; margin-left: 8px;&quot;&gt;b. ArcGIS&lt;/p&gt;&lt;p style=&quot;margin: 0px; margin-left: 8px;&quot;&gt;c. GI&lt;/p&gt;&lt;p style=&quot;margin: 0px; margin-left: 8px;&quot;&gt;&lt;br&gt;&lt;/p&gt;&lt;p style=&quot;margin: 0px; margin-left: 8px;&quot;&gt;2. Sripting/tools&lt;/p&gt;&lt;p style=&quot;margin: 0px; margin-left: 8px;&quot;&gt;&lt;br&gt;&lt;/p&gt;&lt;p style=&quot;margin: 0px; margin-left: 8px;&quot;&gt;&lt;br&gt;&lt;/p&gt;&lt;p style=&quot;margin: 0px; margin-left: 8px;&quot;&gt;3. Message notifications&lt;/p&gt;&lt;p style=&quot;margin: 0px; margin-left: 8px;&quot;&gt;&lt;br&gt;&lt;/p&gt;&lt;p style=&quot;margin: 0px; margin-left: 8px;&quot;&gt;4. API&lt;/p&gt;&lt;p style=&quot;margin: 0px; margin-left: 8px;&quot;&gt;&lt;br&gt;&lt;/p&gt;&lt;p style=&quot;margin: 0px; margin-left: 8px;&quot;&gt;&lt;br&gt;&lt;/p&gt;" style="verticalAlign=top;align=left;overflow=fill;fontSize=12;fontFamily=Helvetica;html=1;strokeColor=#003366;shadow=1;fillColor=#D4E1F5;fontColor=#003366" parent="1" vertex="1">
          <mxGeometry x="-1600" y="794.58" width="200" height="245.42" as="geometry" />
        </mxCell>
        <mxCell id="sPka1O8lK50sSDJXgDmI-132" value="Supportive Tools&lt;div&gt;&lt;br&gt;&lt;/div&gt;" style="whiteSpace=wrap;html=1;aspect=fixed;" parent="1" vertex="1">
          <mxGeometry x="-770" y="843.04" width="150" height="150" as="geometry" />
        </mxCell>
        <mxCell id="sPka1O8lK50sSDJXgDmI-134" value="" style="strokeWidth=2;html=1;shape=mxgraph.flowchart.database;whiteSpace=wrap;" parent="1" vertex="1">
          <mxGeometry x="-305" y="15" width="60" height="60" as="geometry" />
        </mxCell>
        <mxCell id="sPka1O8lK50sSDJXgDmI-136" value="" style="endArrow=classic;html=1;rounded=0;entryX=0;entryY=0.156;entryDx=0;entryDy=0;entryPerimeter=0;exitX=1;exitY=0.75;exitDx=0;exitDy=0;" parent="1" source="3stKuCWcM-aVxzSx9yWe-127" target="sPka1O8lK50sSDJXgDmI-135" edge="1">
          <mxGeometry width="50" height="50" relative="1" as="geometry">
            <mxPoint x="-365" y="75" as="sourcePoint" />
            <mxPoint x="-50" y="70" as="targetPoint" />
          </mxGeometry>
        </mxCell>
        <mxCell id="sPka1O8lK50sSDJXgDmI-135" value="Database" style="text;html=1;align=center;verticalAlign=middle;whiteSpace=wrap;rounded=0;" parent="1" vertex="1">
          <mxGeometry x="-297.03" y="75" width="60" height="30" as="geometry" />
        </mxCell>
        <mxCell id="sPka1O8lK50sSDJXgDmI-138" value="" style="shape=datastore;whiteSpace=wrap;html=1;" parent="1" vertex="1">
          <mxGeometry x="-490" y="590" width="60" height="60" as="geometry" />
        </mxCell>
        <mxCell id="sPka1O8lK50sSDJXgDmI-139" value="" style="shape=actor;whiteSpace=wrap;html=1;" parent="1" vertex="1">
          <mxGeometry x="-480" y="850.53" width="40" height="60" as="geometry" />
        </mxCell>
        <mxCell id="sPka1O8lK50sSDJXgDmI-140" value="" style="shape=actor;whiteSpace=wrap;html=1;" parent="1" vertex="1">
          <mxGeometry x="-110" y="936.16" width="40" height="60" as="geometry" />
        </mxCell>
        <mxCell id="sPka1O8lK50sSDJXgDmI-145" value="WaterML2.0" style="swimlane;fontStyle=0;childLayout=stackLayout;horizontal=1;startSize=26;fillColor=none;horizontalStack=0;resizeParent=1;resizeParentMax=0;resizeLast=0;collapsible=1;marginBottom=0;html=1;" parent="1" vertex="1">
          <mxGeometry x="-1020" y="812.16" width="140" height="104" as="geometry" />
        </mxCell>
        <mxCell id="sPka1O8lK50sSDJXgDmI-146" value="Item 1" style="text;strokeColor=none;fillColor=none;align=left;verticalAlign=top;spacingLeft=4;spacingRight=4;overflow=hidden;rotatable=0;points=[[0,0.5],[1,0.5]];portConstraint=eastwest;whiteSpace=wrap;html=1;" parent="sPka1O8lK50sSDJXgDmI-145" vertex="1">
          <mxGeometry y="26" width="140" height="26" as="geometry" />
        </mxCell>
        <mxCell id="sPka1O8lK50sSDJXgDmI-147" value="Item 2" style="text;strokeColor=none;fillColor=none;align=left;verticalAlign=top;spacingLeft=4;spacingRight=4;overflow=hidden;rotatable=0;points=[[0,0.5],[1,0.5]];portConstraint=eastwest;whiteSpace=wrap;html=1;" parent="sPka1O8lK50sSDJXgDmI-145" vertex="1">
          <mxGeometry y="52" width="140" height="26" as="geometry" />
        </mxCell>
        <mxCell id="sPka1O8lK50sSDJXgDmI-148" value="Item 3" style="text;strokeColor=none;fillColor=none;align=left;verticalAlign=top;spacingLeft=4;spacingRight=4;overflow=hidden;rotatable=0;points=[[0,0.5],[1,0.5]];portConstraint=eastwest;whiteSpace=wrap;html=1;" parent="sPka1O8lK50sSDJXgDmI-145" vertex="1">
          <mxGeometry y="78" width="140" height="26" as="geometry" />
        </mxCell>
        <mxCell id="sPka1O8lK50sSDJXgDmI-149" value="" style="verticalLabelPosition=bottom;verticalAlign=top;html=1;shape=mxgraph.basic.tick" parent="1" vertex="1">
          <mxGeometry x="-407.03" y="801.69" width="20" height="20" as="geometry" />
        </mxCell>
        <mxCell id="sPka1O8lK50sSDJXgDmI-153" value="" style="rounded=1;absoluteArcSize=1;html=1;arcSize=10;" parent="1" vertex="1">
          <mxGeometry x="350" y="140" width="110" height="75" as="geometry" />
        </mxCell>
        <mxCell id="sPka1O8lK50sSDJXgDmI-154" value="DAB" style="html=1;shape=mxgraph.er.anchor;whiteSpace=wrap;" parent="sPka1O8lK50sSDJXgDmI-153" vertex="1">
          <mxGeometry width="55" height="75" as="geometry" />
        </mxCell>
        <mxCell id="sPka1O8lK50sSDJXgDmI-155" value="Cata&lt;div&gt;logue&lt;/div&gt;&lt;div&gt;Access service&lt;/div&gt;" style="rounded=1;absoluteArcSize=1;html=1;arcSize=10;whiteSpace=wrap;points=[];strokeColor=inherit;fillColor=inherit;" parent="sPka1O8lK50sSDJXgDmI-153" vertex="1">
          <mxGeometry x="70" y="3.75" width="34.5" height="67.5" as="geometry" />
        </mxCell>
        <mxCell id="sPka1O8lK50sSDJXgDmI-159" value="Actor" style="shape=umlActor;verticalLabelPosition=bottom;verticalAlign=top;html=1;" parent="1" vertex="1">
          <mxGeometry x="-450" y="34.999999999999986" width="30" height="60" as="geometry" />
        </mxCell>
        <mxCell id="sPka1O8lK50sSDJXgDmI-160" value="dispatch" style="html=1;verticalAlign=bottom;startArrow=oval;startFill=1;endArrow=block;startSize=8;curved=0;rounded=0;" parent="1" edge="1">
          <mxGeometry x="0.3125" width="60" relative="1" as="geometry">
            <mxPoint x="-264.05999999999995" y="883.04" as="sourcePoint" />
            <mxPoint x="-410" y="940" as="targetPoint" />
            <mxPoint as="offset" />
          </mxGeometry>
        </mxCell>
        <mxCell id="sPka1O8lK50sSDJXgDmI-165" value="" style="rounded=1;whiteSpace=wrap;html=1;absoluteArcSize=1;arcSize=14;strokeWidth=2;" parent="1" vertex="1">
          <mxGeometry x="-160" y="812.16" width="47.5" height="56.11" as="geometry" />
        </mxCell>
        <mxCell id="sPka1O8lK50sSDJXgDmI-166" value="" style="verticalLabelPosition=middle;verticalAlign=middle;html=1;shape=trapezoid;perimeter=trapezoidPerimeter;whiteSpace=wrap;size=0.23;arcSize=10;flipV=1;labelPosition=center;align=center;" parent="1" vertex="1">
          <mxGeometry x="-305" y="801.69" width="32.97" height="30" as="geometry" />
        </mxCell>
        <mxCell id="sPka1O8lK50sSDJXgDmI-167" value="" style="shape=parallelogram;html=1;strokeWidth=2;perimeter=parallelogramPerimeter;whiteSpace=wrap;rounded=1;arcSize=12;size=0.23;" parent="1" vertex="1">
          <mxGeometry x="-387.03" y="801.69" width="40" height="20" as="geometry" />
        </mxCell>
        <mxCell id="sPka1O8lK50sSDJXgDmI-168" value="" style="strokeWidth=2;html=1;shape=mxgraph.flowchart.direct_data;whiteSpace=wrap;" parent="1" vertex="1">
          <mxGeometry x="-230" y="325.15999999999997" width="57.5" height="30" as="geometry" />
        </mxCell>
        <mxCell id="sPka1O8lK50sSDJXgDmI-169" value="" style="strokeWidth=2;html=1;shape=mxgraph.flowchart.display;whiteSpace=wrap;" parent="1" vertex="1">
          <mxGeometry x="-245" y="822.13" width="50" height="36.16" as="geometry" />
        </mxCell>
        <mxCell id="sPka1O8lK50sSDJXgDmI-170" value="" style="shape=message;html=1;html=1;outlineConnect=0;labelPosition=center;verticalLabelPosition=bottom;align=center;verticalAlign=top;" parent="1" vertex="1">
          <mxGeometry x="-374.53" y="936.16" width="45" height="23.04" as="geometry" />
        </mxCell>
        <mxCell id="sPka1O8lK50sSDJXgDmI-171" value="" style="shape=message;html=1;html=1;outlineConnect=0;labelPosition=center;verticalLabelPosition=bottom;align=center;verticalAlign=top;" parent="1" vertex="1">
          <mxGeometry x="-254.99999999999997" y="940" width="45" height="23.04" as="geometry" />
        </mxCell>
        <mxCell id="sPka1O8lK50sSDJXgDmI-172" value="dispatch" style="html=1;verticalAlign=bottom;startArrow=oval;startFill=1;endArrow=block;startSize=8;curved=0;rounded=0;entryX=0;entryY=0.25;entryDx=0;entryDy=0;exitX=0.25;exitY=1;exitDx=0;exitDy=0;" parent="1" source="nmjursHmpdUEIppOzTPe-112" target="3stKuCWcM-aVxzSx9yWe-120" edge="1">
          <mxGeometry x="0.3125" width="60" relative="1" as="geometry">
            <mxPoint x="-254.05999999999995" y="893.04" as="sourcePoint" />
            <mxPoint x="-400" y="950" as="targetPoint" />
            <mxPoint as="offset" />
          </mxGeometry>
        </mxCell>
        <mxCell id="sPka1O8lK50sSDJXgDmI-173" value="" style="verticalLabelPosition=bottom;verticalAlign=top;html=1;shape=mxgraph.basic.x" parent="1" vertex="1">
          <mxGeometry x="-225" y="247.18" width="15" height="12.82" as="geometry" />
        </mxCell>
        <mxCell id="sPka1O8lK50sSDJXgDmI-174" value="&lt;div style=&quot;text-align: start;&quot;&gt;&lt;span style=&quot;background-color: initial;&quot;&gt;&lt;font style=&quot;font-size: 11px;&quot; face=&quot;Montserrat, sans-serif&quot; color=&quot;#0f172a&quot;&gt;&lt;b style=&quot;&quot;&gt;Recommen&lt;/b&gt;&lt;/font&gt;&lt;/span&gt;&lt;/div&gt;&lt;div style=&quot;text-align: start;&quot;&gt;&lt;span style=&quot;background-color: initial;&quot;&gt;&lt;font style=&quot;font-size: 11px;&quot; face=&quot;Montserrat, sans-serif&quot; color=&quot;#0f172a&quot;&gt;&lt;b style=&quot;&quot;&gt;data&lt;/b&gt;&lt;/font&gt;&lt;/span&gt;&lt;/div&gt;" style="text;html=1;align=center;verticalAlign=middle;whiteSpace=wrap;rounded=0;fillColor=#66FF66;" parent="1" vertex="1">
          <mxGeometry x="-210" y="230" width="65" height="38.59" as="geometry" />
        </mxCell>
        <mxCell id="sPka1O8lK50sSDJXgDmI-175" value="Cloud" style="ellipse;shape=cloud;whiteSpace=wrap;html=1;align=center;" parent="1" vertex="1">
          <mxGeometry x="-230" y="410" width="60" height="50" as="geometry" />
        </mxCell>
        <mxCell id="sPka1O8lK50sSDJXgDmI-176" value="Cloud" style="ellipse;shape=cloud;whiteSpace=wrap;html=1;align=center;" parent="1" vertex="1">
          <mxGeometry x="-502.5" y="650.16" width="62.5" height="50" as="geometry" />
        </mxCell>
        <mxCell id="sPka1O8lK50sSDJXgDmI-177" value="Cloud" style="ellipse;shape=cloud;whiteSpace=wrap;html=1;align=center;" parent="1" vertex="1">
          <mxGeometry x="720" y="80" width="42.5" height="30" as="geometry" />
        </mxCell>
        <mxCell id="sPka1O8lK50sSDJXgDmI-178" value="Associative&#xa;Entity" style="shape=associativeEntity;whiteSpace=wrap;html=1;align=center;" parent="1" vertex="1">
          <mxGeometry x="670" y="35" width="100" height="40" as="geometry" />
        </mxCell>
      </root>
    </mxGraphModel>
  </diagram>
  <diagram name="Working" id="jP-fzL7MpQ3hU_OqC_MD">
    <mxGraphModel dx="2500" dy="780" grid="1" gridSize="10" guides="1" tooltips="1" connect="1" arrows="1" fold="1" page="1" pageScale="1" pageWidth="826" pageHeight="1169" background="none" math="0" shadow="0">
      <root>
        <mxCell id="xz0jueh79__ibbF_jKvQ-0" />
        <mxCell id="xz0jueh79__ibbF_jKvQ-1" parent="xz0jueh79__ibbF_jKvQ-0" />
        <mxCell id="xz0jueh79__ibbF_jKvQ-2" value="&lt;p style=&quot;margin: 0px; margin-top: 4px; text-align: center; text-decoration: underline;&quot;&gt;&lt;strong&gt;DAB&lt;/strong&gt;&lt;/p&gt;&lt;p style=&quot;margin: 0px; margin-top: 4px; text-align: center; text-decoration: underline;&quot;&gt;&lt;span dir=&quot;ltr&quot; class=&quot;ui-provider ee bkv bkw bkx bky bkz bla blb blc bld ble blf blg blh bli blj blk bll blm bln blo blp blq blr bls blt blu blv blw blx bly blz bma bmb bmc&quot;&gt;&amp;lt;&amp;lt;catalogue&amp;gt;&amp;gt;&lt;/span&gt;&lt;br&gt;&lt;/p&gt;&lt;hr&gt;&lt;p style=&quot;margin: 0px; margin-left: 8px;&quot;&gt;Broker&lt;/p&gt;" style="verticalAlign=top;align=left;overflow=fill;fontSize=12;fontFamily=Helvetica;html=1;strokeColor=#003366;shadow=1;fillColor=#D4E1F5;fontColor=#003366" parent="xz0jueh79__ibbF_jKvQ-1" vertex="1">
          <mxGeometry x="310.0000000000001" y="91.64000000000044" width="160" height="120" as="geometry" />
        </mxCell>
        <mxCell id="xz0jueh79__ibbF_jKvQ-3" value="&lt;p style=&quot;margin: 0px; margin-top: 4px; text-align: center; text-decoration: underline;&quot;&gt;&lt;strong&gt;Monitoring Global&lt;/strong&gt;&lt;/p&gt;&lt;hr&gt;&lt;p style=&quot;margin: 0px; margin-left: 8px;&quot;&gt;Regional&amp;nbsp;&lt;/p&gt;&lt;p style=&quot;margin: 0px; margin-left: 8px;&quot;&gt;&lt;br&gt;&lt;/p&gt;&lt;p style=&quot;margin: 0px; margin-left: 8px;&quot;&gt;Global&lt;/p&gt;" style="verticalAlign=top;align=left;overflow=fill;fontSize=12;fontFamily=Helvetica;html=1;strokeColor=#003366;shadow=1;fillColor=#D4E1F5;fontColor=#003366" parent="xz0jueh79__ibbF_jKvQ-1" vertex="1">
          <mxGeometry x="40.00000000000006" y="389.9999999999998" width="160" height="125" as="geometry" />
        </mxCell>
        <mxCell id="xz0jueh79__ibbF_jKvQ-4" value="&lt;p style=&quot;margin: 0px; margin-top: 4px; text-align: center; text-decoration: underline;&quot;&gt;&lt;strong&gt;Data Cache&amp;nbsp;&lt;/strong&gt;&lt;/p&gt;&lt;hr&gt;&lt;p style=&quot;margin: 0px; margin-left: 8px;&quot;&gt;Regional&lt;/p&gt;&lt;p style=&quot;margin: 0px; margin-left: 8px;&quot;&gt;&lt;br&gt;&lt;/p&gt;&lt;p style=&quot;margin: 0px; margin-left: 8px;&quot;&gt;&lt;br&gt;&lt;/p&gt;&lt;p style=&quot;margin: 0px; margin-left: 8px;&quot;&gt;Global&lt;/p&gt;" style="verticalAlign=top;align=left;overflow=fill;fontSize=12;fontFamily=Helvetica;html=1;strokeColor=#003366;shadow=1;fillColor=#D4E1F5;fontColor=#003366" parent="xz0jueh79__ibbF_jKvQ-1" vertex="1">
          <mxGeometry x="-320" y="299.99999999999983" width="160" height="160" as="geometry" />
        </mxCell>
        <mxCell id="xz0jueh79__ibbF_jKvQ-5" value="&lt;p style=&quot;margin: 0px; margin-top: 4px; text-align: center; text-decoration: underline;&quot;&gt;&lt;b&gt;User Interface&lt;/b&gt;&lt;/p&gt;" style="verticalAlign=top;align=left;overflow=fill;fontSize=12;fontFamily=Helvetica;html=1;strokeColor=#003366;shadow=1;fillColor=#D4E1F5;fontColor=#003366" parent="xz0jueh79__ibbF_jKvQ-1" vertex="1">
          <mxGeometry x="600.0000000000005" y="410.00000000000057" width="160" height="100" as="geometry" />
        </mxCell>
        <mxCell id="xz0jueh79__ibbF_jKvQ-6" value="&lt;p style=&quot;margin: 0px; margin-top: 4px; text-align: center; text-decoration: underline;&quot;&gt;&lt;/p&gt;&lt;p style=&quot;margin: 0px; margin-left: 8px;&quot;&gt;&lt;b&gt;Users&lt;/b&gt;&lt;/p&gt;&lt;p style=&quot;margin: 0px; margin-left: 8px;&quot;&gt;&lt;br&gt;&lt;/p&gt;" style="verticalAlign=top;align=left;overflow=fill;fontSize=12;fontFamily=Helvetica;html=1;strokeColor=#003366;shadow=1;fillColor=#D4E1F5;fontColor=#003366" parent="xz0jueh79__ibbF_jKvQ-1" vertex="1">
          <mxGeometry x="160.00000000000023" y="610.0000000000006" width="160" height="150" as="geometry" />
        </mxCell>
        <mxCell id="xz0jueh79__ibbF_jKvQ-7" value="&lt;p style=&quot;margin: 0px; margin-top: 4px; text-align: center; text-decoration: underline;&quot;&gt;&lt;strong&gt;WHOS Node&lt;/strong&gt;&lt;/p&gt;&lt;hr&gt;&lt;p style=&quot;margin: 0px; margin-left: 8px;&quot;&gt;WIS2.0 Box&lt;/p&gt;&lt;p style=&quot;margin: 0px; margin-left: 8px;&quot;&gt;Hydroserver2&lt;/p&gt;&lt;p style=&quot;margin: 0px; margin-left: 8px;&quot;&gt;MCH Bridge (API)&lt;/p&gt;&lt;p style=&quot;margin: 0px; margin-left: 8px;&quot;&gt;Others&lt;/p&gt;&lt;p style=&quot;margin: 0px; margin-left: 8px;&quot;&gt;.....&lt;/p&gt;" style="verticalAlign=top;align=left;overflow=fill;fontSize=12;fontFamily=Helvetica;html=1;strokeColor=#003366;shadow=1;fillColor=#D4E1F5;fontColor=#003366" parent="xz0jueh79__ibbF_jKvQ-1" vertex="1">
          <mxGeometry x="-49.99999999999995" y="45.00000000000037" width="160" height="160" as="geometry" />
        </mxCell>
        <mxCell id="xz0jueh79__ibbF_jKvQ-8" value="&lt;p style=&quot;margin: 0px; margin-top: 4px; text-align: center; text-decoration: underline;&quot;&gt;&lt;b&gt;Capacity Bulding&lt;/b&gt;&lt;/p&gt;" style="verticalAlign=top;align=left;overflow=fill;fontSize=12;fontFamily=Helvetica;html=1;strokeColor=#003366;shadow=1;fillColor=#D4E1F5;fontColor=#003366" parent="xz0jueh79__ibbF_jKvQ-1" vertex="1">
          <mxGeometry x="129.9999999999999" y="881.1600000000003" width="160" height="180" as="geometry" />
        </mxCell>
        <mxCell id="xz0jueh79__ibbF_jKvQ-9" value="&lt;p style=&quot;margin: 0px; margin-top: 4px; text-align: center; text-decoration: underline;&quot;&gt;&lt;b&gt;Advanced Users&lt;/b&gt;&lt;/p&gt;" style="verticalAlign=top;align=left;overflow=fill;fontSize=12;fontFamily=Helvetica;html=1;strokeColor=#003366;shadow=1;fillColor=#D4E1F5;fontColor=#003366" parent="xz0jueh79__ibbF_jKvQ-1" vertex="1">
          <mxGeometry x="590.0000000000002" y="620.0000000000007" width="160" height="200" as="geometry" />
        </mxCell>
        <mxCell id="xz0jueh79__ibbF_jKvQ-10" value="&lt;p style=&quot;margin: 0px; margin-top: 4px; text-align: center; text-decoration: underline;&quot;&gt;&lt;b&gt;Reporting&lt;/b&gt;&lt;/p&gt;" style="verticalAlign=top;align=left;overflow=fill;fontSize=12;fontFamily=Helvetica;html=1;strokeColor=#003366;shadow=1;fillColor=#D4E1F5;fontColor=#003366" parent="xz0jueh79__ibbF_jKvQ-1" vertex="1">
          <mxGeometry x="1170" y="923.6599999999996" width="160" height="95" as="geometry" />
        </mxCell>
        <mxCell id="xz0jueh79__ibbF_jKvQ-11" value="&lt;p style=&quot;margin: 0px; margin-top: 4px; text-align: center; text-decoration: underline;&quot;&gt;&lt;b&gt;Cost&lt;/b&gt;&lt;/p&gt;" style="verticalAlign=top;align=left;overflow=fill;fontSize=12;fontFamily=Helvetica;html=1;strokeColor=#003366;shadow=1;fillColor=#D4E1F5;fontColor=#003366" parent="xz0jueh79__ibbF_jKvQ-1" vertex="1">
          <mxGeometry x="940.0000000000001" y="901.1599999999995" width="160" height="140" as="geometry" />
        </mxCell>
        <mxCell id="xz0jueh79__ibbF_jKvQ-12" value="&lt;p style=&quot;margin: 0px; margin-top: 4px; text-align: center; text-decoration: underline;&quot;&gt;&lt;b&gt;Quality&lt;/b&gt;&lt;/p&gt;" style="verticalAlign=top;align=left;overflow=fill;fontSize=12;fontFamily=Helvetica;html=1;strokeColor=#003366;shadow=1;fillColor=#D4E1F5;fontColor=#003366" parent="xz0jueh79__ibbF_jKvQ-1" vertex="1">
          <mxGeometry x="630" y="926.1599999999995" width="160" height="90" as="geometry" />
        </mxCell>
        <mxCell id="xz0jueh79__ibbF_jKvQ-13" value="&lt;p style=&quot;margin: 0px ; margin-top: 4px ; text-align: center ; text-decoration: underline&quot;&gt;&lt;b&gt;Security&lt;/b&gt;&lt;/p&gt;" style="verticalAlign=top;align=left;overflow=fill;fontSize=12;fontFamily=Helvetica;html=1;strokeColor=#003366;shadow=1;fillColor=#D4E1F5;fontColor=#003366" parent="xz0jueh79__ibbF_jKvQ-1" vertex="1">
          <mxGeometry x="440.00000000000006" y="926.1600000000003" width="160" height="90" as="geometry" />
        </mxCell>
        <mxCell id="xz0jueh79__ibbF_jKvQ-14" value="" style="endArrow=open;endSize=12;startArrow=diamondThin;startSize=14;startFill=0;edgeStyle=orthogonalEdgeStyle;" parent="xz0jueh79__ibbF_jKvQ-1" source="xz0jueh79__ibbF_jKvQ-2" target="xz0jueh79__ibbF_jKvQ-3" edge="1">
          <mxGeometry y="160" as="geometry">
            <mxPoint y="160" as="sourcePoint" />
            <mxPoint x="160" y="160" as="targetPoint" />
            <Array as="points">
              <mxPoint x="390" y="300" />
              <mxPoint x="60" y="300" />
            </Array>
          </mxGeometry>
        </mxCell>
        <mxCell id="xz0jueh79__ibbF_jKvQ-15" value="0..n" style="resizable=0;align=left;verticalAlign=top;labelBackgroundColor=#ffffff;fontSize=10;strokeColor=#003366;shadow=1;fillColor=#D4E1F5;fontColor=#003366" parent="xz0jueh79__ibbF_jKvQ-14" connectable="0" vertex="1">
          <mxGeometry x="-1" relative="1" as="geometry">
            <mxPoint x="10" as="offset" />
          </mxGeometry>
        </mxCell>
        <mxCell id="xz0jueh79__ibbF_jKvQ-16" value="1" style="resizable=0;align=right;verticalAlign=top;labelBackgroundColor=#ffffff;fontSize=10;strokeColor=#003366;shadow=1;fillColor=#D4E1F5;fontColor=#003366" parent="xz0jueh79__ibbF_jKvQ-14" connectable="0" vertex="1">
          <mxGeometry x="1" relative="1" as="geometry">
            <mxPoint x="590" y="105" as="offset" />
          </mxGeometry>
        </mxCell>
        <mxCell id="xz0jueh79__ibbF_jKvQ-17" value="" style="endArrow=open;endSize=12;startArrow=diamondThin;startSize=14;startFill=0;edgeStyle=orthogonalEdgeStyle;rounded=0" parent="xz0jueh79__ibbF_jKvQ-1" source="xz0jueh79__ibbF_jKvQ-5" edge="1">
          <mxGeometry x="519.3599999999999" y="180" as="geometry">
            <mxPoint x="519.3599999999999" y="180" as="sourcePoint" />
            <mxPoint x="880" y="520" as="targetPoint" />
          </mxGeometry>
        </mxCell>
        <mxCell id="xz0jueh79__ibbF_jKvQ-18" value="0..n" style="resizable=0;align=left;verticalAlign=top;labelBackgroundColor=#ffffff;fontSize=10;strokeColor=#003366;shadow=1;fillColor=#D4E1F5;fontColor=#003366" parent="xz0jueh79__ibbF_jKvQ-17" connectable="0" vertex="1">
          <mxGeometry x="-1" relative="1" as="geometry">
            <mxPoint x="8.919999999999618" as="offset" />
          </mxGeometry>
        </mxCell>
        <mxCell id="xz0jueh79__ibbF_jKvQ-19" value="1" style="resizable=0;align=right;verticalAlign=top;labelBackgroundColor=#ffffff;fontSize=10;strokeColor=#003366;shadow=1;fillColor=#D4E1F5;fontColor=#003366" parent="xz0jueh79__ibbF_jKvQ-17" connectable="0" vertex="1">
          <mxGeometry x="1" relative="1" as="geometry">
            <mxPoint x="-550" y="-159.99999999999997" as="offset" />
          </mxGeometry>
        </mxCell>
        <mxCell id="xz0jueh79__ibbF_jKvQ-20" value="" style="endArrow=open;endSize=12;startArrow=diamondThin;startSize=14;startFill=0;edgeStyle=orthogonalEdgeStyle;exitX=1;exitY=0.25;rounded=0" parent="xz0jueh79__ibbF_jKvQ-1" source="xz0jueh79__ibbF_jKvQ-9" edge="1">
          <mxGeometry x="769.3599999999999" y="450" as="geometry">
            <mxPoint x="769.3599999999999" y="450" as="sourcePoint" />
            <mxPoint x="880" y="520" as="targetPoint" />
          </mxGeometry>
        </mxCell>
        <mxCell id="xz0jueh79__ibbF_jKvQ-21" value="0..n" style="resizable=0;align=left;verticalAlign=top;labelBackgroundColor=#ffffff;fontSize=10;strokeColor=#003366;shadow=1;fillColor=#D4E1F5;fontColor=#003366" parent="xz0jueh79__ibbF_jKvQ-20" connectable="0" vertex="1">
          <mxGeometry x="-1" relative="1" as="geometry">
            <mxPoint x="8.919999999999803" y="3.039999999999177" as="offset" />
          </mxGeometry>
        </mxCell>
        <mxCell id="xz0jueh79__ibbF_jKvQ-22" value="1" style="resizable=0;align=right;verticalAlign=top;labelBackgroundColor=#ffffff;fontSize=10;strokeColor=#003366;shadow=1;fillColor=#D4E1F5;fontColor=#003366" parent="xz0jueh79__ibbF_jKvQ-20" connectable="0" vertex="1">
          <mxGeometry x="1" relative="1" as="geometry">
            <mxPoint x="-10" as="offset" />
          </mxGeometry>
        </mxCell>
        <mxCell id="xz0jueh79__ibbF_jKvQ-23" value="" style="endArrow=open;endSize=12;startArrow=diamondThin;startSize=14;startFill=0;edgeStyle=orthogonalEdgeStyle" parent="xz0jueh79__ibbF_jKvQ-1" source="xz0jueh79__ibbF_jKvQ-5" target="xz0jueh79__ibbF_jKvQ-9" edge="1">
          <mxGeometry x="389.35999999999996" y="350" as="geometry">
            <mxPoint x="389.35999999999996" y="350" as="sourcePoint" />
            <mxPoint x="549.3599999999999" y="350" as="targetPoint" />
          </mxGeometry>
        </mxCell>
        <mxCell id="xz0jueh79__ibbF_jKvQ-24" value="0..n" style="resizable=0;align=left;verticalAlign=top;labelBackgroundColor=#ffffff;fontSize=10;strokeColor=#003366;shadow=1;fillColor=#D4E1F5;fontColor=#003366" parent="xz0jueh79__ibbF_jKvQ-23" connectable="0" vertex="1">
          <mxGeometry x="-1" relative="1" as="geometry">
            <mxPoint x="8.91999999999958" as="offset" />
          </mxGeometry>
        </mxCell>
        <mxCell id="xz0jueh79__ibbF_jKvQ-25" value="1" style="resizable=0;align=right;verticalAlign=top;labelBackgroundColor=#ffffff;fontSize=10;strokeColor=#003366;shadow=1;fillColor=#D4E1F5;fontColor=#003366" parent="xz0jueh79__ibbF_jKvQ-23" connectable="0" vertex="1">
          <mxGeometry x="1" relative="1" as="geometry">
            <mxPoint x="18.919999999999582" y="-21.960000000000644" as="offset" />
          </mxGeometry>
        </mxCell>
        <mxCell id="xz0jueh79__ibbF_jKvQ-26" value="" style="endArrow=open;endSize=12;startArrow=diamondThin;startSize=14;startFill=0;edgeStyle=orthogonalEdgeStyle;entryX=0.75;entryY=1" parent="xz0jueh79__ibbF_jKvQ-1" source="xz0jueh79__ibbF_jKvQ-12" target="xz0jueh79__ibbF_jKvQ-9" edge="1">
          <mxGeometry x="479.35999999999996" y="790" as="geometry">
            <mxPoint x="479.35999999999996" y="790" as="sourcePoint" />
            <mxPoint x="639.3599999999999" y="790" as="targetPoint" />
          </mxGeometry>
        </mxCell>
        <mxCell id="xz0jueh79__ibbF_jKvQ-27" value="0..n" style="resizable=0;align=left;verticalAlign=top;labelBackgroundColor=#ffffff;fontSize=10;strokeColor=#003366;shadow=1;fillColor=#D4E1F5;fontColor=#003366" parent="xz0jueh79__ibbF_jKvQ-26" connectable="0" vertex="1">
          <mxGeometry x="-1" relative="1" as="geometry">
            <mxPoint x="-30" y="-97.50000000000027" as="offset" />
          </mxGeometry>
        </mxCell>
        <mxCell id="xz0jueh79__ibbF_jKvQ-28" value="1" style="resizable=0;align=right;verticalAlign=top;labelBackgroundColor=#ffffff;fontSize=10;strokeColor=#003366;shadow=1;fillColor=#D4E1F5;fontColor=#003366" parent="xz0jueh79__ibbF_jKvQ-26" connectable="0" vertex="1">
          <mxGeometry x="1" relative="1" as="geometry">
            <mxPoint x="-11.080000000000421" as="offset" />
          </mxGeometry>
        </mxCell>
        <mxCell id="xz0jueh79__ibbF_jKvQ-29" value="" style="endArrow=open;endSize=12;startArrow=diamondThin;startSize=14;startFill=0;edgeStyle=orthogonalEdgeStyle" parent="xz0jueh79__ibbF_jKvQ-1" source="xz0jueh79__ibbF_jKvQ-12" target="xz0jueh79__ibbF_jKvQ-11" edge="1">
          <mxGeometry x="469.3599999999999" y="526.1600000000003" as="geometry">
            <mxPoint x="469.3599999999999" y="526.1600000000003" as="sourcePoint" />
            <mxPoint x="980" y="1061.1600000000005" as="targetPoint" />
          </mxGeometry>
        </mxCell>
        <mxCell id="xz0jueh79__ibbF_jKvQ-30" value="0..n" style="resizable=0;align=left;verticalAlign=top;labelBackgroundColor=#ffffff;fontSize=10;strokeColor=#003366;shadow=1;fillColor=#D4E1F5;fontColor=#003366" parent="xz0jueh79__ibbF_jKvQ-29" connectable="0" vertex="1">
          <mxGeometry x="-1" relative="1" as="geometry">
            <mxPoint x="10" as="offset" />
          </mxGeometry>
        </mxCell>
        <mxCell id="xz0jueh79__ibbF_jKvQ-31" value="1" style="resizable=0;align=right;verticalAlign=top;labelBackgroundColor=#ffffff;fontSize=10;strokeColor=#003366;shadow=1;fillColor=#D4E1F5;fontColor=#003366" parent="xz0jueh79__ibbF_jKvQ-29" connectable="0" vertex="1">
          <mxGeometry x="1" relative="1" as="geometry">
            <mxPoint x="-10" as="offset" />
          </mxGeometry>
        </mxCell>
        <mxCell id="xz0jueh79__ibbF_jKvQ-32" value="" style="endArrow=open;endSize=12;startArrow=diamondThin;startSize=14;startFill=0;edgeStyle=orthogonalEdgeStyle;entryX=0.25;entryY=1;rounded=0" parent="xz0jueh79__ibbF_jKvQ-1" source="xz0jueh79__ibbF_jKvQ-13" target="xz0jueh79__ibbF_jKvQ-9" edge="1">
          <mxGeometry x="419.35999999999996" y="820" as="geometry">
            <mxPoint x="419.35999999999996" y="820" as="sourcePoint" />
            <mxPoint x="579.3599999999999" y="820" as="targetPoint" />
          </mxGeometry>
        </mxCell>
        <mxCell id="xz0jueh79__ibbF_jKvQ-33" value="0..n" style="resizable=0;align=left;verticalAlign=top;labelBackgroundColor=#ffffff;fontSize=10;strokeColor=#003366;shadow=1;fillColor=#D4E1F5;fontColor=#003366" parent="xz0jueh79__ibbF_jKvQ-32" connectable="0" vertex="1">
          <mxGeometry x="-1" relative="1" as="geometry">
            <mxPoint x="10" y="-26.160000000000235" as="offset" />
          </mxGeometry>
        </mxCell>
        <mxCell id="xz0jueh79__ibbF_jKvQ-34" value="1" style="resizable=0;align=right;verticalAlign=top;labelBackgroundColor=#ffffff;fontSize=10;strokeColor=#003366;shadow=1;fillColor=#D4E1F5;fontColor=#003366" parent="xz0jueh79__ibbF_jKvQ-32" connectable="0" vertex="1">
          <mxGeometry x="1" relative="1" as="geometry">
            <mxPoint x="-11.080000000000421" as="offset" />
          </mxGeometry>
        </mxCell>
        <mxCell id="xz0jueh79__ibbF_jKvQ-35" value="" style="endArrow=open;endSize=12;startArrow=diamondThin;startSize=14;startFill=0;edgeStyle=orthogonalEdgeStyle" parent="xz0jueh79__ibbF_jKvQ-1" source="xz0jueh79__ibbF_jKvQ-10" edge="1">
          <mxGeometry x="1079.36" y="560" as="geometry">
            <mxPoint x="1079.36" y="560" as="sourcePoint" />
            <mxPoint x="1250" y="850" as="targetPoint" />
          </mxGeometry>
        </mxCell>
        <mxCell id="xz0jueh79__ibbF_jKvQ-36" value="0..n" style="resizable=0;align=left;verticalAlign=top;labelBackgroundColor=#ffffff;fontSize=10;strokeColor=#003366;shadow=1;fillColor=#D4E1F5;fontColor=#003366" parent="xz0jueh79__ibbF_jKvQ-35" connectable="0" vertex="1">
          <mxGeometry x="-1" relative="1" as="geometry">
            <mxPoint x="10.00000000000009" y="-22.499999999999915" as="offset" />
          </mxGeometry>
        </mxCell>
        <mxCell id="xz0jueh79__ibbF_jKvQ-37" value="1" style="resizable=0;align=right;verticalAlign=top;labelBackgroundColor=#ffffff;fontSize=10;strokeColor=#003366;shadow=1;fillColor=#D4E1F5;fontColor=#003366" parent="xz0jueh79__ibbF_jKvQ-35" connectable="0" vertex="1">
          <mxGeometry x="1" relative="1" as="geometry">
            <mxPoint x="20" as="offset" />
          </mxGeometry>
        </mxCell>
        <mxCell id="xz0jueh79__ibbF_jKvQ-38" value="" style="endArrow=open;endSize=12;startArrow=diamondThin;startSize=14;startFill=0;edgeStyle=orthogonalEdgeStyle" parent="xz0jueh79__ibbF_jKvQ-1" source="xz0jueh79__ibbF_jKvQ-3" target="xz0jueh79__ibbF_jKvQ-6" edge="1">
          <mxGeometry x="519.3599999999999" y="200" as="geometry">
            <mxPoint x="519.3599999999999" y="200" as="sourcePoint" />
            <mxPoint x="679.3599999999999" y="200" as="targetPoint" />
          </mxGeometry>
        </mxCell>
        <mxCell id="xz0jueh79__ibbF_jKvQ-39" value="0..n" style="resizable=0;align=left;verticalAlign=top;labelBackgroundColor=#ffffff;fontSize=10;strokeColor=#003366;shadow=1;fillColor=#D4E1F5;fontColor=#003366" parent="xz0jueh79__ibbF_jKvQ-38" connectable="0" vertex="1">
          <mxGeometry x="-1" relative="1" as="geometry">
            <mxPoint x="-40" as="offset" />
          </mxGeometry>
        </mxCell>
        <mxCell id="xz0jueh79__ibbF_jKvQ-40" value="1" style="resizable=0;align=right;verticalAlign=top;labelBackgroundColor=#ffffff;fontSize=10;strokeColor=#003366;shadow=1;fillColor=#D4E1F5;fontColor=#003366" parent="xz0jueh79__ibbF_jKvQ-38" connectable="0" vertex="1">
          <mxGeometry x="1" relative="1" as="geometry">
            <mxPoint x="19.99999999999981" y="-24.999999999999815" as="offset" />
          </mxGeometry>
        </mxCell>
        <mxCell id="xz0jueh79__ibbF_jKvQ-41" value="" style="endArrow=open;endSize=12;startArrow=diamondThin;startSize=14;startFill=0;edgeStyle=orthogonalEdgeStyle;entryX=0.5;entryY=0;entryDx=0;entryDy=0;strokeColor=#FF0000;" parent="xz0jueh79__ibbF_jKvQ-1" target="xz0jueh79__ibbF_jKvQ-4" edge="1">
          <mxGeometry x="620" y="340" as="geometry">
            <mxPoint x="-50" y="120" as="sourcePoint" />
            <mxPoint x="-240" y="289.9999999999998" as="targetPoint" />
            <Array as="points">
              <mxPoint x="-240" y="120" />
            </Array>
          </mxGeometry>
        </mxCell>
        <mxCell id="xz0jueh79__ibbF_jKvQ-42" value="0..1" style="resizable=0;align=left;verticalAlign=top;labelBackgroundColor=#ffffff;fontSize=10;strokeColor=#003366;shadow=1;fillColor=#D4E1F5;fontColor=#003366" parent="xz0jueh79__ibbF_jKvQ-41" connectable="0" vertex="1">
          <mxGeometry x="-1" relative="1" as="geometry">
            <mxPoint x="10" as="offset" />
          </mxGeometry>
        </mxCell>
        <mxCell id="xz0jueh79__ibbF_jKvQ-43" value="0,..*" style="resizable=0;align=right;verticalAlign=top;labelBackgroundColor=#ffffff;fontSize=10;strokeColor=#003366;shadow=1;fillColor=#D4E1F5;fontColor=#003366" parent="xz0jueh79__ibbF_jKvQ-41" connectable="0" vertex="1">
          <mxGeometry x="1" relative="1" as="geometry">
            <mxPoint x="20" y="-24.99999999999981" as="offset" />
          </mxGeometry>
        </mxCell>
        <mxCell id="xz0jueh79__ibbF_jKvQ-44" value="" style="endArrow=open;endSize=12;startArrow=diamondThin;startSize=14;startFill=0;edgeStyle=orthogonalEdgeStyle" parent="xz0jueh79__ibbF_jKvQ-1" source="xz0jueh79__ibbF_jKvQ-9" target="xz0jueh79__ibbF_jKvQ-6" edge="1">
          <mxGeometry x="369.35999999999996" y="360" as="geometry">
            <mxPoint x="369.35999999999996" y="360" as="sourcePoint" />
            <mxPoint x="529.3599999999999" y="360" as="targetPoint" />
            <Array as="points" />
          </mxGeometry>
        </mxCell>
        <mxCell id="xz0jueh79__ibbF_jKvQ-45" value="0..n" style="resizable=0;align=left;verticalAlign=top;labelBackgroundColor=#ffffff;fontSize=10;strokeColor=#003366;shadow=1;fillColor=#D4E1F5;fontColor=#003366" parent="xz0jueh79__ibbF_jKvQ-44" connectable="0" vertex="1">
          <mxGeometry x="-1" relative="1" as="geometry">
            <mxPoint x="-31.08000000000042" as="offset" />
          </mxGeometry>
        </mxCell>
        <mxCell id="xz0jueh79__ibbF_jKvQ-46" value="1" style="resizable=0;align=right;verticalAlign=top;labelBackgroundColor=#ffffff;fontSize=10;strokeColor=#003366;shadow=1;fillColor=#D4E1F5;fontColor=#003366" parent="xz0jueh79__ibbF_jKvQ-44" connectable="0" vertex="1">
          <mxGeometry x="1" relative="1" as="geometry">
            <mxPoint x="19.99999999999981" y="1.8947806286936006e-13" as="offset" />
          </mxGeometry>
        </mxCell>
        <mxCell id="xz0jueh79__ibbF_jKvQ-47" value="Use" style="endArrow=open;endSize=12;dashed=1" parent="xz0jueh79__ibbF_jKvQ-1" source="xz0jueh79__ibbF_jKvQ-5" target="xz0jueh79__ibbF_jKvQ-2" edge="1">
          <mxGeometry x="430" y="50" as="geometry">
            <mxPoint x="430" y="50" as="sourcePoint" />
            <mxPoint x="590" y="50" as="targetPoint" />
          </mxGeometry>
        </mxCell>
        <mxCell id="xz0jueh79__ibbF_jKvQ-48" value="1" style="endArrow=open;endSize=12;startArrow=diamondThin;startSize=14;startFill=1;edgeStyle=orthogonalEdgeStyle;align=left;verticalAlign=bottom;" parent="xz0jueh79__ibbF_jKvQ-1" target="xz0jueh79__ibbF_jKvQ-3" edge="1">
          <mxGeometry x="-0.8181818181818175" y="4.999999999999702" relative="1" as="geometry">
            <mxPoint x="-160" y="410" as="sourcePoint" />
            <mxPoint x="240" y="510" as="targetPoint" />
            <mxPoint as="offset" />
            <Array as="points">
              <mxPoint x="-65" y="410" />
              <mxPoint x="-65" y="418" />
            </Array>
          </mxGeometry>
        </mxCell>
        <mxCell id="xz0jueh79__ibbF_jKvQ-49" value="" style="endArrow=none;edgeStyle=orthogonalEdgeStyle;" parent="xz0jueh79__ibbF_jKvQ-1" source="xz0jueh79__ibbF_jKvQ-8" target="xz0jueh79__ibbF_jKvQ-13" edge="1">
          <mxGeometry x="190" y="950" as="geometry">
            <mxPoint x="190" y="950" as="sourcePoint" />
            <mxPoint x="350" y="950" as="targetPoint" />
          </mxGeometry>
        </mxCell>
        <mxCell id="xz0jueh79__ibbF_jKvQ-50" value="parent" style="resizable=0;align=left;verticalAlign=bottom;labelBackgroundColor=#ffffff;fontSize=10;strokeColor=#003366;shadow=1;fillColor=#D4E1F5;fontColor=#003366" parent="xz0jueh79__ibbF_jKvQ-49" connectable="0" vertex="1">
          <mxGeometry x="-1" relative="1" as="geometry">
            <mxPoint x="10" y="-10" as="offset" />
          </mxGeometry>
        </mxCell>
        <mxCell id="xz0jueh79__ibbF_jKvQ-51" value="child" style="resizable=0;align=right;verticalAlign=bottom;labelBackgroundColor=#ffffff;fontSize=10;strokeColor=#003366;shadow=1;fillColor=#D4E1F5;fontColor=#003366" parent="xz0jueh79__ibbF_jKvQ-49" connectable="0" vertex="1">
          <mxGeometry x="1" relative="1" as="geometry">
            <mxPoint x="-10" y="23.83999999999977" as="offset" />
          </mxGeometry>
        </mxCell>
        <mxCell id="xz0jueh79__ibbF_jKvQ-52" value="" style="endArrow=none;edgeStyle=orthogonalEdgeStyle;" parent="xz0jueh79__ibbF_jKvQ-1" source="xz0jueh79__ibbF_jKvQ-11" target="xz0jueh79__ibbF_jKvQ-10" edge="1">
          <mxGeometry x="910" y="972.4999999999998" as="geometry">
            <mxPoint x="910" y="972.4999999999998" as="sourcePoint" />
            <mxPoint x="1070" y="972.4999999999998" as="targetPoint" />
          </mxGeometry>
        </mxCell>
        <mxCell id="xz0jueh79__ibbF_jKvQ-53" value="parent" style="resizable=0;align=left;verticalAlign=bottom;labelBackgroundColor=#ffffff;fontSize=10;strokeColor=#003366;shadow=1;fillColor=#D4E1F5;fontColor=#003366" parent="xz0jueh79__ibbF_jKvQ-52" connectable="0" vertex="1">
          <mxGeometry x="-1" relative="1" as="geometry">
            <mxPoint x="10" as="offset" />
          </mxGeometry>
        </mxCell>
        <mxCell id="xz0jueh79__ibbF_jKvQ-54" value="child" style="resizable=0;align=right;verticalAlign=bottom;labelBackgroundColor=#ffffff;fontSize=10;strokeColor=#003366;shadow=1;fillColor=#D4E1F5;fontColor=#003366" parent="xz0jueh79__ibbF_jKvQ-52" connectable="0" vertex="1">
          <mxGeometry x="1" relative="1" as="geometry">
            <mxPoint x="-10" y="25" as="offset" />
          </mxGeometry>
        </mxCell>
        <mxCell id="xz0jueh79__ibbF_jKvQ-55" value="&lt;p style=&quot;margin: 0px; margin-top: 4px; text-align: center; text-decoration: underline;&quot;&gt;&lt;/p&gt;&lt;p style=&quot;margin: 0px; margin-left: 8px;&quot;&gt;&lt;b&gt;WHOS Componnets&lt;/b&gt;&lt;/p&gt;&lt;p style=&quot;margin: 0px; margin-left: 8px;&quot;&gt;1. DAB&lt;/p&gt;&lt;p style=&quot;margin: 0px; margin-left: 8px;&quot;&gt;2. Data centers&lt;/p&gt;&lt;p style=&quot;margin: 0px; margin-left: 8px;&quot;&gt;3. UIs&lt;/p&gt;&lt;p style=&quot;margin: 0px; margin-left: 8px;&quot;&gt;4. Ontology&lt;/p&gt;&lt;p style=&quot;margin: 0px; margin-left: 8px;&quot;&gt;6. Caches&lt;/p&gt;&lt;p style=&quot;margin: 0px; margin-left: 8px;&quot;&gt;7. Archives&lt;/p&gt;&lt;p style=&quot;margin: 0px; margin-left: 8px;&quot;&gt;8. Nodes&lt;/p&gt;&lt;p style=&quot;margin: 0px; margin-left: 8px;&quot;&gt;9. Data Providers&lt;/p&gt;&lt;p style=&quot;margin: 0px; margin-left: 8px;&quot;&gt;10. Data User&lt;/p&gt;&lt;p style=&quot;margin: 0px; margin-left: 8px;&quot;&gt;&lt;br&gt;&lt;/p&gt;&lt;p style=&quot;margin: 0px; margin-left: 8px;&quot;&gt;&lt;br&gt;&lt;/p&gt;" style="verticalAlign=top;align=left;overflow=fill;fontSize=12;fontFamily=Helvetica;html=1;strokeColor=#003366;shadow=1;fillColor=#D4E1F5;fontColor=#003366" parent="xz0jueh79__ibbF_jKvQ-1" vertex="1">
          <mxGeometry x="-810" y="30.000000000000085" width="160" height="190" as="geometry" />
        </mxCell>
        <mxCell id="xz0jueh79__ibbF_jKvQ-56" value="&lt;p style=&quot;margin: 0px; margin-top: 4px; text-align: center; text-decoration: underline;&quot;&gt;&lt;/p&gt;&lt;p style=&quot;margin: 0px; margin-left: 8px;&quot;&gt;&lt;b&gt;WHOS Componets: Issues to consider&lt;/b&gt;&lt;/p&gt;&lt;p style=&quot;margin: 0px; margin-left: 8px;&quot;&gt;1. Data Policy&lt;/p&gt;&lt;p style=&quot;margin: 0px; margin-left: 8px;&quot;&gt;2. Security&lt;/p&gt;&lt;p style=&quot;margin: 0px; margin-left: 8px;&quot;&gt;3. Cost&lt;/p&gt;&lt;p style=&quot;margin: 0px; margin-left: 8px;&quot;&gt;4. Scales, Regional, National&lt;/p&gt;&lt;p style=&quot;margin: 0px; margin-left: 8px;&quot;&gt;&lt;br&gt;&lt;/p&gt;&lt;p style=&quot;margin: 0px; margin-left: 8px;&quot;&gt;&lt;br&gt;&lt;/p&gt;" style="verticalAlign=top;align=left;overflow=fill;fontSize=12;fontFamily=Helvetica;html=1;strokeColor=#003366;shadow=1;fillColor=#D4E1F5;fontColor=#003366" parent="xz0jueh79__ibbF_jKvQ-1" vertex="1">
          <mxGeometry x="-610" y="15" width="230" height="190" as="geometry" />
        </mxCell>
        <mxCell id="xz0jueh79__ibbF_jKvQ-57" value="&lt;p style=&quot;margin: 0px; margin-top: 4px; text-align: center; text-decoration: underline;&quot;&gt;&lt;/p&gt;&lt;p style=&quot;margin: 0px; margin-left: 8px;&quot;&gt;&lt;b&gt;WHOS Componets: DAB&lt;/b&gt;&lt;/p&gt;&lt;p style=&quot;margin: 0px; margin-left: 8px;&quot;&gt;1. Accessros&lt;/p&gt;&lt;p style=&quot;margin: 0px; margin-left: 8px;&quot;&gt;&lt;br&gt;&lt;/p&gt;&lt;p style=&quot;margin: 0px; margin-left: 8px;&quot;&gt;&lt;br&gt;&lt;/p&gt;" style="verticalAlign=top;align=left;overflow=fill;fontSize=12;fontFamily=Helvetica;html=1;strokeColor=#003366;shadow=1;fillColor=#D4E1F5;fontColor=#003366" parent="xz0jueh79__ibbF_jKvQ-1" vertex="1">
          <mxGeometry x="-800" y="260.0000000000001" width="160" height="190" as="geometry" />
        </mxCell>
        <mxCell id="xz0jueh79__ibbF_jKvQ-58" value="&lt;p style=&quot;margin: 0px; margin-top: 4px; text-align: center; text-decoration: underline;&quot;&gt;&lt;/p&gt;&lt;p style=&quot;margin: 0px; margin-left: 8px;&quot;&gt;&lt;b&gt;WHOS Components: GC/GCA&lt;/b&gt;&lt;/p&gt;&lt;p style=&quot;margin: 0px; margin-left: 8px;&quot;&gt;&lt;b&gt;1. Data Centers (DC)&lt;/b&gt;&lt;/p&gt;&lt;p style=&quot;margin: 0px; margin-left: 8px;&quot;&gt;&lt;b&gt;&lt;br&gt;&lt;/b&gt;&lt;/p&gt;&lt;p style=&quot;margin: 0px; margin-left: 8px;&quot;&gt;&lt;b&gt;&lt;br&gt;&lt;/b&gt;&lt;/p&gt;&lt;p style=&quot;margin: 0px; margin-left: 8px;&quot;&gt;&lt;b&gt;2. Global Caches and Archives&lt;/b&gt;&lt;/p&gt;&lt;p style=&quot;margin: 0px; margin-left: 8px;&quot;&gt;&lt;br&gt;&lt;/p&gt;&lt;p style=&quot;margin: 0px; margin-left: 8px;&quot;&gt;&lt;br&gt;&lt;/p&gt;&lt;p style=&quot;margin: 0px; margin-left: 8px;&quot;&gt;&lt;br&gt;&lt;/p&gt;" style="verticalAlign=top;align=left;overflow=fill;fontSize=12;fontFamily=Helvetica;html=1;strokeColor=#003366;shadow=1;fillColor=#D4E1F5;fontColor=#003366" parent="xz0jueh79__ibbF_jKvQ-1" vertex="1">
          <mxGeometry x="-810" y="480" width="230" height="190" as="geometry" />
        </mxCell>
        <mxCell id="xz0jueh79__ibbF_jKvQ-59" value="WHOS Architecture" style="rounded=1;whiteSpace=wrap;html=1;" parent="xz0jueh79__ibbF_jKvQ-1" vertex="1">
          <mxGeometry x="300" y="10" width="250" height="60" as="geometry" />
        </mxCell>
        <mxCell id="xz0jueh79__ibbF_jKvQ-60" style="edgeStyle=orthogonalEdgeStyle;rounded=0;orthogonalLoop=1;jettySize=auto;html=1;exitX=0.75;exitY=1;exitDx=0;exitDy=0;entryX=0.669;entryY=0.007;entryDx=0;entryDy=0;entryPerimeter=0;" parent="xz0jueh79__ibbF_jKvQ-1" source="xz0jueh79__ibbF_jKvQ-2" target="xz0jueh79__ibbF_jKvQ-6" edge="1">
          <mxGeometry relative="1" as="geometry" />
        </mxCell>
        <mxCell id="xz0jueh79__ibbF_jKvQ-61" style="edgeStyle=orthogonalEdgeStyle;rounded=0;orthogonalLoop=1;jettySize=auto;html=1;exitX=1;exitY=0.5;exitDx=0;exitDy=0;entryX=0.25;entryY=1;entryDx=0;entryDy=0;" parent="xz0jueh79__ibbF_jKvQ-1" source="xz0jueh79__ibbF_jKvQ-63" target="xz0jueh79__ibbF_jKvQ-3" edge="1">
          <mxGeometry relative="1" as="geometry" />
        </mxCell>
        <mxCell id="xz0jueh79__ibbF_jKvQ-62" style="edgeStyle=orthogonalEdgeStyle;rounded=0;orthogonalLoop=1;jettySize=auto;html=1;exitX=1;exitY=0;exitDx=0;exitDy=0;" parent="xz0jueh79__ibbF_jKvQ-1" source="xz0jueh79__ibbF_jKvQ-63" edge="1">
          <mxGeometry relative="1" as="geometry">
            <mxPoint x="-130.29411764705856" y="600" as="targetPoint" />
          </mxGeometry>
        </mxCell>
        <mxCell id="xz0jueh79__ibbF_jKvQ-63" value="&lt;p style=&quot;margin: 0px; margin-top: 4px; text-align: center; text-decoration: underline;&quot;&gt;&lt;strong&gt;User Interface&lt;/strong&gt;&lt;/p&gt;&lt;hr&gt;&lt;p style=&quot;margin: 0px; margin-left: 8px;&quot;&gt;Portal&lt;/p&gt;&lt;p style=&quot;margin: 0px; margin-left: 8px;&quot;&gt;Global Portal&lt;/p&gt;&lt;p style=&quot;margin: 0px; margin-left: 8px;&quot;&gt;Programmatic tools&lt;/p&gt;" style="verticalAlign=top;align=left;overflow=fill;fontSize=12;fontFamily=Helvetica;html=1;strokeColor=#003366;shadow=1;fillColor=#D4E1F5;fontColor=#003366" parent="xz0jueh79__ibbF_jKvQ-1" vertex="1">
          <mxGeometry x="-280" y="690" width="180" height="190" as="geometry" />
        </mxCell>
        <mxCell id="xz0jueh79__ibbF_jKvQ-64" value="Relation" style="endArrow=open;html=1;endSize=12;startArrow=diamondThin;startSize=14;startFill=0;edgeStyle=orthogonalEdgeStyle;rounded=0;strokeColor=#FF0000;exitX=0.438;exitY=1;exitDx=0;exitDy=0;exitPerimeter=0;entryX=0.5;entryY=0;entryDx=0;entryDy=0;" parent="xz0jueh79__ibbF_jKvQ-1" source="xz0jueh79__ibbF_jKvQ-4" target="xz0jueh79__ibbF_jKvQ-63" edge="1">
          <mxGeometry relative="1" as="geometry">
            <mxPoint x="-210" y="480" as="sourcePoint" />
            <mxPoint x="-220" y="590" as="targetPoint" />
          </mxGeometry>
        </mxCell>
        <mxCell id="xz0jueh79__ibbF_jKvQ-65" value="0..n" style="edgeLabel;resizable=0;html=1;align=left;verticalAlign=top;" parent="xz0jueh79__ibbF_jKvQ-64" connectable="0" vertex="1">
          <mxGeometry x="-1" relative="1" as="geometry" />
        </mxCell>
        <mxCell id="xz0jueh79__ibbF_jKvQ-66" value="&lt;font style=&quot;font-size: 12px;&quot;&gt;0,..*&lt;/font&gt;" style="edgeLabel;resizable=0;html=1;align=right;verticalAlign=top;" parent="xz0jueh79__ibbF_jKvQ-64" connectable="0" vertex="1">
          <mxGeometry x="1" relative="1" as="geometry">
            <mxPoint x="30" y="-30" as="offset" />
          </mxGeometry>
        </mxCell>
        <mxCell id="xz0jueh79__ibbF_jKvQ-67" value="Relation" style="endArrow=open;html=1;endSize=12;startArrow=diamondThin;startSize=14;startFill=0;edgeStyle=orthogonalEdgeStyle;rounded=0;exitX=-0.031;exitY=0.364;exitDx=0;exitDy=0;exitPerimeter=0;strokeColor=#FF0000;" parent="xz0jueh79__ibbF_jKvQ-1" source="xz0jueh79__ibbF_jKvQ-7" target="xz0jueh79__ibbF_jKvQ-63" edge="1">
          <mxGeometry x="0.0286" y="30" relative="1" as="geometry">
            <mxPoint x="-480" y="510" as="sourcePoint" />
            <mxPoint x="-330" y="695" as="targetPoint" />
            <Array as="points">
              <mxPoint x="-360" y="103" />
              <mxPoint x="-360" y="695" />
            </Array>
            <mxPoint y="-1" as="offset" />
          </mxGeometry>
        </mxCell>
        <mxCell id="xz0jueh79__ibbF_jKvQ-68" value="0..1" style="edgeLabel;resizable=0;html=1;align=left;verticalAlign=top;" parent="xz0jueh79__ibbF_jKvQ-67" connectable="0" vertex="1">
          <mxGeometry x="-1" relative="1" as="geometry" />
        </mxCell>
        <mxCell id="xz0jueh79__ibbF_jKvQ-69" value="&lt;font style=&quot;font-size: 12px;&quot;&gt;0,..*&lt;/font&gt;" style="edgeLabel;resizable=0;html=1;align=right;verticalAlign=top;" parent="xz0jueh79__ibbF_jKvQ-67" connectable="0" vertex="1">
          <mxGeometry x="1" relative="1" as="geometry">
            <mxPoint x="-10" y="-25" as="offset" />
          </mxGeometry>
        </mxCell>
        <mxCell id="xz0jueh79__ibbF_jKvQ-70" value="&lt;b&gt;Question:&lt;/b&gt; is this aggregation or multiplicity?&lt;div&gt;Note: i am considering these arrows as aggregation&lt;/div&gt;" style="text;html=1;align=center;verticalAlign=middle;whiteSpace=wrap;rounded=0;fillColor=#FF6666;" parent="xz0jueh79__ibbF_jKvQ-1" vertex="1">
          <mxGeometry x="-230" y="140" width="150" height="65" as="geometry" />
        </mxCell>
        <mxCell id="xz0jueh79__ibbF_jKvQ-71" value="&lt;p style=&quot;margin: 0px; margin-top: 4px; text-align: center; text-decoration: underline;&quot;&gt;&lt;b&gt;Ontology&lt;/b&gt;&lt;/p&gt;" style="verticalAlign=top;align=left;overflow=fill;fontSize=12;fontFamily=Helvetica;html=1;strokeColor=#003366;shadow=1;fillColor=#D4E1F5;fontColor=#003366" parent="xz0jueh79__ibbF_jKvQ-1" vertex="1">
          <mxGeometry x="640.0000000000001" y="5.0000000000004405" width="160" height="120" as="geometry" />
        </mxCell>
        <mxCell id="xz0jueh79__ibbF_jKvQ-72" value="&lt;span style=&quot;color: rgb(15, 23, 42); font-family: Montserrat, sans-serif; text-align: start;&quot;&gt;&lt;font style=&quot;font-size: 12px;&quot;&gt;&lt;b&gt;&#39;WHOS-Arctic web portal&#39;&lt;/b&gt; can we consider this as an example of&amp;nbsp; WHOS node?&lt;/font&gt;&lt;/span&gt;" style="text;html=1;align=center;verticalAlign=middle;whiteSpace=wrap;rounded=0;fillColor=#FF6666;" parent="xz0jueh79__ibbF_jKvQ-1" vertex="1">
          <mxGeometry x="-210" y="15" width="150" height="45" as="geometry" />
        </mxCell>
        <mxCell id="xz0jueh79__ibbF_jKvQ-73" value="Relation" style="endArrow=open;html=1;endSize=12;startArrow=diamondThin;startSize=14;startFill=0;edgeStyle=orthogonalEdgeStyle;rounded=0;strokeColor=#FF0000;exitX=0;exitY=0.75;exitDx=0;exitDy=0;" parent="xz0jueh79__ibbF_jKvQ-1" source="xz0jueh79__ibbF_jKvQ-2" target="xz0jueh79__ibbF_jKvQ-63" edge="1">
          <mxGeometry relative="1" as="geometry">
            <mxPoint x="240" y="320" as="sourcePoint" />
            <mxPoint x="-150" y="550" as="targetPoint" />
            <Array as="points">
              <mxPoint x="240" y="182" />
              <mxPoint x="240" y="280" />
              <mxPoint x="-40" y="280" />
              <mxPoint x="-40" y="480" />
              <mxPoint x="-150" y="480" />
            </Array>
          </mxGeometry>
        </mxCell>
        <mxCell id="xz0jueh79__ibbF_jKvQ-74" value="0..1" style="edgeLabel;resizable=0;html=1;align=left;verticalAlign=top;" parent="xz0jueh79__ibbF_jKvQ-73" connectable="0" vertex="1">
          <mxGeometry x="-1" relative="1" as="geometry" />
        </mxCell>
        <mxCell id="xz0jueh79__ibbF_jKvQ-75" value="&lt;font style=&quot;font-size: 12px;&quot;&gt;0,..*&lt;/font&gt;" style="edgeLabel;resizable=0;html=1;align=right;verticalAlign=top;" parent="xz0jueh79__ibbF_jKvQ-73" connectable="0" vertex="1">
          <mxGeometry x="1" relative="1" as="geometry">
            <mxPoint x="30" y="-30" as="offset" />
          </mxGeometry>
        </mxCell>
        <mxCell id="xz0jueh79__ibbF_jKvQ-76" value="Text" style="edgeLabel;html=1;align=center;verticalAlign=middle;resizable=0;points=[];" parent="xz0jueh79__ibbF_jKvQ-73" vertex="1" connectable="0">
          <mxGeometry x="-0.3611" y="-4" relative="1" as="geometry">
            <mxPoint as="offset" />
          </mxGeometry>
        </mxCell>
        <mxCell id="xz0jueh79__ibbF_jKvQ-77" value="Relation" style="endArrow=open;html=1;endSize=12;startArrow=diamondThin;startSize=14;startFill=0;edgeStyle=orthogonalEdgeStyle;rounded=0;exitX=0;exitY=0.5;exitDx=0;exitDy=0;strokeColor=#FF0000;entryX=1.024;entryY=0.343;entryDx=0;entryDy=0;entryPerimeter=0;" parent="xz0jueh79__ibbF_jKvQ-1" source="xz0jueh79__ibbF_jKvQ-2" target="xz0jueh79__ibbF_jKvQ-4" edge="1">
          <mxGeometry relative="1" as="geometry">
            <mxPoint x="-160" y="340" as="sourcePoint" />
            <mxPoint x="390" y="350" as="targetPoint" />
            <Array as="points">
              <mxPoint x="180" y="152" />
              <mxPoint x="180" y="230" />
              <mxPoint x="-120" y="230" />
              <mxPoint x="-120" y="355" />
            </Array>
          </mxGeometry>
        </mxCell>
        <mxCell id="xz0jueh79__ibbF_jKvQ-78" value="0..1" style="edgeLabel;resizable=0;html=1;align=left;verticalAlign=top;" parent="xz0jueh79__ibbF_jKvQ-77" connectable="0" vertex="1">
          <mxGeometry x="-1" relative="1" as="geometry" />
        </mxCell>
        <mxCell id="xz0jueh79__ibbF_jKvQ-79" value="&lt;font style=&quot;font-size: 12px;&quot;&gt;0,..*&lt;/font&gt;" style="edgeLabel;resizable=0;html=1;align=right;verticalAlign=top;" parent="xz0jueh79__ibbF_jKvQ-77" connectable="0" vertex="1">
          <mxGeometry x="1" relative="1" as="geometry" />
        </mxCell>
        <mxCell id="xz0jueh79__ibbF_jKvQ-80" value="" style="endArrow=block;dashed=1;endFill=0;endSize=12;html=1;rounded=0;exitX=1;exitY=0.25;exitDx=0;exitDy=0;strokeColor=#FF0000;" parent="xz0jueh79__ibbF_jKvQ-1" source="xz0jueh79__ibbF_jKvQ-6" edge="1">
          <mxGeometry width="160" relative="1" as="geometry">
            <mxPoint x="480" y="162" as="sourcePoint" />
            <mxPoint x="600" y="460" as="targetPoint" />
            <Array as="points" />
          </mxGeometry>
        </mxCell>
        <mxCell id="xz0jueh79__ibbF_jKvQ-81" value="" style="endArrow=block;dashed=1;endFill=0;endSize=12;html=1;rounded=0;entryX=0.193;entryY=0.991;entryDx=0;entryDy=0;strokeColor=#FF0000;entryPerimeter=0;exitX=0.25;exitY=0;exitDx=0;exitDy=0;" parent="xz0jueh79__ibbF_jKvQ-1" source="xz0jueh79__ibbF_jKvQ-9" target="xz0jueh79__ibbF_jKvQ-5" edge="1">
          <mxGeometry width="160" relative="1" as="geometry">
            <mxPoint x="620" y="560" as="sourcePoint" />
            <mxPoint x="710" y="440" as="targetPoint" />
            <Array as="points" />
          </mxGeometry>
        </mxCell>
        <mxCell id="xz0jueh79__ibbF_jKvQ-82" value="Changes in the ontology will affect the DAB" style="text;html=1;align=center;verticalAlign=middle;whiteSpace=wrap;rounded=0;fillColor=#66FF66;" parent="xz0jueh79__ibbF_jKvQ-1" vertex="1">
          <mxGeometry x="530" y="90" width="100" height="40" as="geometry" />
        </mxCell>
        <mxCell id="xz0jueh79__ibbF_jKvQ-83" value="Dependency" style="text;html=1;align=center;verticalAlign=middle;whiteSpace=wrap;rounded=0;" parent="xz0jueh79__ibbF_jKvQ-1" vertex="1">
          <mxGeometry x="550" y="140" width="60" height="30" as="geometry" />
        </mxCell>
        <mxCell id="xz0jueh79__ibbF_jKvQ-84" value="&lt;span style=&quot;color: rgb(15, 23, 42); font-family: Montserrat, sans-serif; text-align: start;&quot;&gt;&lt;font style=&quot;font-size: 12px;&quot;&gt;&lt;b&gt;&#39;WHOS-Arctic web portal&#39;&lt;/b&gt; is an example of user interface&lt;/font&gt;&lt;/span&gt;" style="text;html=1;align=center;verticalAlign=middle;whiteSpace=wrap;rounded=0;fillColor=#66FF66;" parent="xz0jueh79__ibbF_jKvQ-1" vertex="1">
          <mxGeometry x="780" y="390" width="150" height="45" as="geometry" />
        </mxCell>
        <mxCell id="xz0jueh79__ibbF_jKvQ-85" value="" style="endArrow=open;endSize=12;startArrow=diamondThin;startSize=14;startFill=0;edgeStyle=orthogonalEdgeStyle;strokeColor=#FF0000;entryX=1;entryY=0.5;entryDx=0;entryDy=0;exitX=0;exitY=0.32;exitDx=0;exitDy=0;exitPerimeter=0;" parent="xz0jueh79__ibbF_jKvQ-1" source="xz0jueh79__ibbF_jKvQ-2" target="xz0jueh79__ibbF_jKvQ-7" edge="1">
          <mxGeometry x="620" y="340" as="geometry">
            <mxPoint x="250" y="90" as="sourcePoint" />
            <mxPoint x="150" y="330" as="targetPoint" />
            <Array as="points">
              <mxPoint x="250" y="130" />
              <mxPoint x="250" y="125" />
            </Array>
          </mxGeometry>
        </mxCell>
        <mxCell id="xz0jueh79__ibbF_jKvQ-86" value="0..1" style="resizable=0;align=left;verticalAlign=top;labelBackgroundColor=#ffffff;fontSize=10;strokeColor=#003366;shadow=1;fillColor=#D4E1F5;fontColor=#003366" parent="xz0jueh79__ibbF_jKvQ-85" connectable="0" vertex="1">
          <mxGeometry x="-1" relative="1" as="geometry">
            <mxPoint x="10" as="offset" />
          </mxGeometry>
        </mxCell>
        <mxCell id="xz0jueh79__ibbF_jKvQ-87" value="0,..*" style="resizable=0;align=right;verticalAlign=top;labelBackgroundColor=#ffffff;fontSize=10;strokeColor=#003366;shadow=1;fillColor=#D4E1F5;fontColor=#003366" parent="xz0jueh79__ibbF_jKvQ-85" connectable="0" vertex="1">
          <mxGeometry x="1" relative="1" as="geometry">
            <mxPoint x="20" y="-24.99999999999981" as="offset" />
          </mxGeometry>
        </mxCell>
        <mxCell id="xz0jueh79__ibbF_jKvQ-88" value="&lt;div style=&quot;text-align: start;&quot;&gt;&lt;span style=&quot;background-color: initial;&quot;&gt;&lt;font style=&quot;font-size: 11px;&quot; face=&quot;Montserrat, sans-serif&quot; color=&quot;#0f172a&quot;&gt;&lt;b style=&quot;&quot;&gt;Aggregation: The DAB could access one or many nodes&lt;/b&gt;&lt;/font&gt;&lt;/span&gt;&lt;/div&gt;" style="text;html=1;align=center;verticalAlign=middle;whiteSpace=wrap;rounded=0;fillColor=#66FF66;" parent="xz0jueh79__ibbF_jKvQ-1" vertex="1">
          <mxGeometry x="150" y="70" width="110" height="45" as="geometry" />
        </mxCell>
        <mxCell id="xz0jueh79__ibbF_jKvQ-89" value="" style="endArrow=open;startArrow=none;endFill=0;startFill=0;endSize=8;html=1;verticalAlign=bottom;labelBackgroundColor=none;strokeWidth=1;rounded=0;entryX=1;entryY=0.65;entryDx=0;entryDy=0;entryPerimeter=0;fillColor=#FF0000;strokeColor=#FF0000;" parent="xz0jueh79__ibbF_jKvQ-1" target="xz0jueh79__ibbF_jKvQ-7" edge="1">
          <mxGeometry width="160" relative="1" as="geometry">
            <mxPoint x="600" y="430" as="sourcePoint" />
            <mxPoint x="500" y="360" as="targetPoint" />
          </mxGeometry>
        </mxCell>
        <mxCell id="xz0jueh79__ibbF_jKvQ-90" value="&lt;div style=&quot;text-align: start;&quot;&gt;&lt;font face=&quot;Montserrat, sans-serif&quot; color=&quot;#0f172a&quot;&gt;&lt;b&gt;Association: A portal might have access to a node&lt;/b&gt;&lt;/font&gt;&lt;/div&gt;" style="text;html=1;align=center;verticalAlign=middle;whiteSpace=wrap;rounded=0;fillColor=#66FF66;" parent="xz0jueh79__ibbF_jKvQ-1" vertex="1">
          <mxGeometry x="310" y="310.64" width="110" height="49.36" as="geometry" />
        </mxCell>
        <mxCell id="xz0jueh79__ibbF_jKvQ-91" value="&lt;b&gt;&lt;font style=&quot;font-size: 11px;&quot;&gt;Implementation: User interface is fixed based on the user need&lt;/font&gt;&lt;/b&gt;" style="text;html=1;align=center;verticalAlign=middle;whiteSpace=wrap;rounded=0;fillColor=#66FF66;" parent="xz0jueh79__ibbF_jKvQ-1" vertex="1">
          <mxGeometry x="345.79" y="500" width="124.21" height="50.64" as="geometry" />
        </mxCell>
        <mxCell id="xz0jueh79__ibbF_jKvQ-92" value="&lt;b&gt;&lt;font style=&quot;font-size: 11px;&quot;&gt;Implementation: User interface is fixed based on the user need&lt;/font&gt;&lt;/b&gt;" style="text;html=1;align=center;verticalAlign=middle;whiteSpace=wrap;rounded=0;fillColor=#66FF66;rotation=-15;" parent="xz0jueh79__ibbF_jKvQ-1" vertex="1">
          <mxGeometry x="520" y="560" width="110" height="60" as="geometry" />
        </mxCell>
        <mxCell id="xz0jueh79__ibbF_jKvQ-93" style="edgeStyle=orthogonalEdgeStyle;rounded=0;orthogonalLoop=1;jettySize=auto;html=1;exitX=1;exitY=0;exitDx=0;exitDy=0;" parent="xz0jueh79__ibbF_jKvQ-1" source="xz0jueh79__ibbF_jKvQ-9" target="xz0jueh79__ibbF_jKvQ-9" edge="1">
          <mxGeometry relative="1" as="geometry" />
        </mxCell>
        <mxCell id="xz0jueh79__ibbF_jKvQ-94" value="" style="whiteSpace=wrap;html=1;fillColor=#66FF66;" parent="xz0jueh79__ibbF_jKvQ-1" vertex="1">
          <mxGeometry x="880" y="110" width="70" height="20" as="geometry" />
        </mxCell>
        <mxCell id="xz0jueh79__ibbF_jKvQ-95" value="Justification for the UML arrow" style="text;html=1;align=center;verticalAlign=middle;whiteSpace=wrap;rounded=0;" parent="xz0jueh79__ibbF_jKvQ-1" vertex="1">
          <mxGeometry x="950" y="100" width="90" height="40" as="geometry" />
        </mxCell>
        <mxCell id="xz0jueh79__ibbF_jKvQ-96" value="" style="text;html=1;align=center;verticalAlign=middle;whiteSpace=wrap;rounded=0;fillColor=#FF6666;" parent="xz0jueh79__ibbF_jKvQ-1" vertex="1">
          <mxGeometry x="880" y="144.18" width="70" height="21.64" as="geometry" />
        </mxCell>
        <mxCell id="xz0jueh79__ibbF_jKvQ-97" value="Need clarification" style="text;html=1;align=center;verticalAlign=middle;whiteSpace=wrap;rounded=0;" parent="xz0jueh79__ibbF_jKvQ-1" vertex="1">
          <mxGeometry x="965" y="144.18" width="60" height="30" as="geometry" />
        </mxCell>
        <mxCell id="xz0jueh79__ibbF_jKvQ-98" value="&lt;div style=&quot;text-align: start;&quot;&gt;&lt;span style=&quot;background-color: initial;&quot;&gt;&lt;font style=&quot;font-size: 11px;&quot; face=&quot;Montserrat, sans-serif&quot; color=&quot;#0f172a&quot;&gt;&lt;b style=&quot;&quot;&gt;Aggregation: WHOS node could pushing data from one or manydata centers&lt;/b&gt;&lt;/font&gt;&lt;/span&gt;&lt;/div&gt;" style="text;html=1;align=center;verticalAlign=middle;whiteSpace=wrap;rounded=0;fillColor=#66FF66;" parent="xz0jueh79__ibbF_jKvQ-1" vertex="1">
          <mxGeometry x="-340" y="210" width="110" height="50" as="geometry" />
        </mxCell>
        <mxCell id="xz0jueh79__ibbF_jKvQ-99" value="&lt;div style=&quot;text-align: start;&quot;&gt;&lt;span style=&quot;background-color: initial;&quot;&gt;&lt;font style=&quot;font-size: 11px;&quot; face=&quot;Montserrat, sans-serif&quot; color=&quot;#0f172a&quot;&gt;&lt;b style=&quot;&quot;&gt;Aggregation: WHOS node could pull data from one or manydata centers&lt;/b&gt;&lt;/font&gt;&lt;/span&gt;&lt;/div&gt;" style="text;html=1;align=center;verticalAlign=middle;whiteSpace=wrap;rounded=0;fillColor=#66FF66;" parent="xz0jueh79__ibbF_jKvQ-1" vertex="1">
          <mxGeometry x="-460" y="340" width="110" height="50" as="geometry" />
        </mxCell>
        <mxCell id="xz0jueh79__ibbF_jKvQ-100" value="&lt;b&gt;Question:&lt;/b&gt; is there a way that the DAB have direct access to the data centers and data provides?" style="text;html=1;align=center;verticalAlign=middle;whiteSpace=wrap;rounded=0;fillColor=#FF6666;" parent="xz0jueh79__ibbF_jKvQ-1" vertex="1">
          <mxGeometry x="-130" y="270" width="150" height="65" as="geometry" />
        </mxCell>
        <mxCell id="xz0jueh79__ibbF_jKvQ-101" value="" style="endArrow=classic;html=1;rounded=0;entryX=0.688;entryY=1.02;entryDx=0;entryDy=0;entryPerimeter=0;exitX=0.433;exitY=-0.015;exitDx=0;exitDy=0;exitPerimeter=0;strokeColor=#FF0000;" parent="xz0jueh79__ibbF_jKvQ-1" target="xz0jueh79__ibbF_jKvQ-13" edge="1">
          <mxGeometry width="50" height="50" relative="1" as="geometry">
            <mxPoint x="614.9499999999998" y="1138.05" as="sourcePoint" />
            <mxPoint x="630" y="930" as="targetPoint" />
          </mxGeometry>
        </mxCell>
        <mxCell id="xz0jueh79__ibbF_jKvQ-102" value="" style="endArrow=classic;html=1;rounded=0;entryX=0.5;entryY=1;entryDx=0;entryDy=0;strokeColor=#FF0000;" parent="xz0jueh79__ibbF_jKvQ-1" target="xz0jueh79__ibbF_jKvQ-8" edge="1">
          <mxGeometry width="50" height="50" relative="1" as="geometry">
            <mxPoint x="620" y="1140" as="sourcePoint" />
            <mxPoint x="560" y="1028" as="targetPoint" />
          </mxGeometry>
        </mxCell>
        <mxCell id="xz0jueh79__ibbF_jKvQ-103" value="" style="endArrow=classic;html=1;rounded=0;exitX=0.433;exitY=-0.008;exitDx=0;exitDy=0;exitPerimeter=0;strokeColor=#FF0000;" parent="xz0jueh79__ibbF_jKvQ-1" edge="1">
          <mxGeometry width="50" height="50" relative="1" as="geometry">
            <mxPoint x="614.9499999999998" y="1138.96" as="sourcePoint" />
            <mxPoint x="720" y="1020" as="targetPoint" />
          </mxGeometry>
        </mxCell>
        <mxCell id="xz0jueh79__ibbF_jKvQ-104" value="" style="endArrow=classic;html=1;rounded=0;exitX=0.44;exitY=-0.008;exitDx=0;exitDy=0;exitPerimeter=0;strokeColor=#FF0000;" parent="xz0jueh79__ibbF_jKvQ-1" edge="1">
          <mxGeometry width="50" height="50" relative="1" as="geometry">
            <mxPoint x="616" y="1138.96" as="sourcePoint" />
            <mxPoint x="1250" y="1020" as="targetPoint" />
          </mxGeometry>
        </mxCell>
        <mxCell id="xz0jueh79__ibbF_jKvQ-105" value="&lt;p style=&quot;margin: 0px; margin-top: 4px; text-align: center; text-decoration: underline;&quot;&gt;&lt;strong&gt;Data Archive&amp;nbsp;&lt;/strong&gt;&lt;/p&gt;&lt;hr&gt;&lt;p style=&quot;margin: 0px; margin-left: 8px;&quot;&gt;Regional&lt;/p&gt;&lt;p style=&quot;margin: 0px; margin-left: 8px;&quot;&gt;&lt;br&gt;&lt;/p&gt;&lt;p style=&quot;margin: 0px; margin-left: 8px;&quot;&gt;&lt;br&gt;&lt;/p&gt;&lt;p style=&quot;margin: 0px; margin-left: 8px;&quot;&gt;Global&lt;/p&gt;" style="verticalAlign=top;align=left;overflow=fill;fontSize=12;fontFamily=Helvetica;html=1;strokeColor=#003366;shadow=1;fillColor=#D4E1F5;fontColor=#003366" parent="xz0jueh79__ibbF_jKvQ-1" vertex="1">
          <mxGeometry x="-510" y="509.99999999999983" width="160" height="160" as="geometry" />
        </mxCell>
        <mxCell id="xz0jueh79__ibbF_jKvQ-106" value="" style="endArrow=block;dashed=1;endFill=0;endSize=12;html=1;rounded=0;exitX=1;exitY=0.25;exitDx=0;exitDy=0;strokeColor=#FF0000;" parent="xz0jueh79__ibbF_jKvQ-1" edge="1">
          <mxGeometry width="160" relative="1" as="geometry">
            <mxPoint x="320" y="648" as="sourcePoint" />
            <mxPoint x="600" y="460" as="targetPoint" />
            <Array as="points" />
          </mxGeometry>
        </mxCell>
        <mxCell id="xz0jueh79__ibbF_jKvQ-107" value="Relation" style="endArrow=open;html=1;endSize=12;startArrow=diamondThin;startSize=14;startFill=0;edgeStyle=orthogonalEdgeStyle;rounded=0;strokeColor=#FF0000;entryX=1.024;entryY=0.343;entryDx=0;entryDy=0;entryPerimeter=0;exitX=0;exitY=0.903;exitDx=0;exitDy=0;exitPerimeter=0;" parent="xz0jueh79__ibbF_jKvQ-1" source="xz0jueh79__ibbF_jKvQ-2" edge="1">
          <mxGeometry relative="1" as="geometry">
            <mxPoint x="270" y="310" as="sourcePoint" />
            <mxPoint x="-356" y="620" as="targetPoint" />
            <Array as="points">
              <mxPoint x="310" y="417" />
              <mxPoint x="-20" y="417" />
              <mxPoint x="-20" y="495" />
              <mxPoint x="-320" y="495" />
              <mxPoint x="-320" y="620" />
            </Array>
          </mxGeometry>
        </mxCell>
        <mxCell id="xz0jueh79__ibbF_jKvQ-108" value="0..1" style="edgeLabel;resizable=0;html=1;align=left;verticalAlign=top;" parent="xz0jueh79__ibbF_jKvQ-107" connectable="0" vertex="1">
          <mxGeometry x="-1" relative="1" as="geometry" />
        </mxCell>
        <mxCell id="xz0jueh79__ibbF_jKvQ-109" value="&lt;font style=&quot;font-size: 12px;&quot;&gt;0,..*&lt;/font&gt;" style="edgeLabel;resizable=0;html=1;align=right;verticalAlign=top;" parent="xz0jueh79__ibbF_jKvQ-107" connectable="0" vertex="1">
          <mxGeometry x="1" relative="1" as="geometry" />
        </mxCell>
        <mxCell id="xz0jueh79__ibbF_jKvQ-110" value="" style="endArrow=open;startArrow=none;endFill=0;startFill=0;endSize=8;html=1;verticalAlign=bottom;labelBackgroundColor=none;strokeWidth=1;rounded=0;entryX=0.884;entryY=-0.014;entryDx=0;entryDy=0;entryPerimeter=0;fillColor=#FF0000;strokeColor=#FF0000;exitX=0.428;exitY=0.998;exitDx=0;exitDy=0;exitPerimeter=0;" parent="xz0jueh79__ibbF_jKvQ-1" source="xz0jueh79__ibbF_jKvQ-2" target="xz0jueh79__ibbF_jKvQ-63" edge="1">
          <mxGeometry width="160" relative="1" as="geometry">
            <mxPoint x="290" y="761" as="sourcePoint" />
            <mxPoint x="-200" y="480" as="targetPoint" />
          </mxGeometry>
        </mxCell>
        <mxCell id="xz0jueh79__ibbF_jKvQ-111" value="&lt;p style=&quot;margin: 0px; margin-top: 4px; text-align: center; text-decoration: underline;&quot;&gt;&lt;/p&gt;&lt;p style=&quot;margin: 0px; margin-left: 8px;&quot;&gt;&lt;b&gt;Users&lt;/b&gt;&lt;/p&gt;&lt;p style=&quot;margin: 0px; margin-left: 8px;&quot;&gt;&lt;br&gt;&lt;/p&gt;" style="verticalAlign=top;align=left;overflow=fill;fontSize=12;fontFamily=Helvetica;html=1;strokeColor=#003366;shadow=1;fillColor=#D4E1F5;fontColor=#003366" parent="xz0jueh79__ibbF_jKvQ-1" vertex="1">
          <mxGeometry x="-540" y="846.16" width="120" height="80" as="geometry" />
        </mxCell>
        <mxCell id="xz0jueh79__ibbF_jKvQ-112" value="&lt;p style=&quot;margin: 0px; margin-top: 4px; text-align: center; text-decoration: underline;&quot;&gt;&lt;/p&gt;&lt;p style=&quot;margin: 0px; margin-left: 8px;&quot;&gt;&lt;b&gt;Users&lt;/b&gt;&lt;/p&gt;&lt;p style=&quot;margin: 0px; margin-left: 8px;&quot;&gt;&lt;br&gt;&lt;/p&gt;" style="verticalAlign=top;align=left;overflow=fill;fontSize=12;fontFamily=Helvetica;html=1;strokeColor=#003366;shadow=1;fillColor=#D4E1F5;fontColor=#003366" parent="xz0jueh79__ibbF_jKvQ-1" vertex="1">
          <mxGeometry x="-195" y="926.16" width="120" height="80" as="geometry" />
        </mxCell>
        <mxCell id="xz0jueh79__ibbF_jKvQ-113" value="&lt;b&gt;&lt;font style=&quot;font-size: 11px;&quot;&gt;Data download&lt;/font&gt;&lt;/b&gt;" style="text;html=1;align=center;verticalAlign=middle;whiteSpace=wrap;rounded=0;fillColor=#66FF66;rotation=-15;" parent="xz0jueh79__ibbF_jKvQ-1" vertex="1">
          <mxGeometry x="-417.03" y="821.69" width="110" height="28.84" as="geometry" />
        </mxCell>
        <mxCell id="xz0jueh79__ibbF_jKvQ-114" value="&lt;b&gt;&lt;font style=&quot;font-size: 11px;&quot;&gt;Scripts&lt;/font&gt;&lt;/b&gt;" style="text;html=1;align=center;verticalAlign=middle;whiteSpace=wrap;rounded=0;fillColor=#66FF66;rotation=-130;" parent="xz0jueh79__ibbF_jKvQ-1" vertex="1">
          <mxGeometry x="-210" y="899.38" width="110" height="23.66" as="geometry" />
        </mxCell>
        <mxCell id="xz0jueh79__ibbF_jKvQ-115" value="" style="endArrow=block;dashed=1;endFill=0;endSize=12;html=1;rounded=0;exitX=1;exitY=0.25;exitDx=0;exitDy=0;strokeColor=#FF0000;entryX=0;entryY=0.75;entryDx=0;entryDy=0;" parent="xz0jueh79__ibbF_jKvQ-1" target="xz0jueh79__ibbF_jKvQ-3" edge="1">
          <mxGeometry width="160" relative="1" as="geometry">
            <mxPoint x="-370" y="610" as="sourcePoint" />
            <mxPoint x="-90" y="422" as="targetPoint" />
            <Array as="points" />
          </mxGeometry>
        </mxCell>
        <mxCell id="xz0jueh79__ibbF_jKvQ-116" value="" style="endArrow=block;dashed=1;endFill=0;endSize=12;html=1;rounded=0;exitX=1;exitY=0.25;exitDx=0;exitDy=0;strokeColor=#FF0000;entryX=0;entryY=0.75;entryDx=0;entryDy=0;" parent="xz0jueh79__ibbF_jKvQ-1" edge="1">
          <mxGeometry width="160" relative="1" as="geometry">
            <mxPoint x="-370" y="610" as="sourcePoint" />
            <mxPoint x="40" y="484" as="targetPoint" />
            <Array as="points" />
          </mxGeometry>
        </mxCell>
        <mxCell id="xz0jueh79__ibbF_jKvQ-117" value="" style="endArrow=block;dashed=1;endFill=0;endSize=12;html=1;rounded=0;exitX=1;exitY=0.25;exitDx=0;exitDy=0;strokeColor=#FF0000;entryX=-0.01;entryY=0.434;entryDx=0;entryDy=0;entryPerimeter=0;" parent="xz0jueh79__ibbF_jKvQ-1" target="xz0jueh79__ibbF_jKvQ-3" edge="1">
          <mxGeometry width="160" relative="1" as="geometry">
            <mxPoint x="-160" y="396" as="sourcePoint" />
            <mxPoint x="250" y="270" as="targetPoint" />
            <Array as="points" />
          </mxGeometry>
        </mxCell>
        <mxCell id="xz0jueh79__ibbF_jKvQ-118" value="" style="endArrow=block;dashed=1;endFill=0;endSize=12;html=1;rounded=0;strokeColor=#FF0000;entryX=1.02;entryY=0.171;entryDx=0;entryDy=0;entryPerimeter=0;" parent="xz0jueh79__ibbF_jKvQ-1" target="xz0jueh79__ibbF_jKvQ-3" edge="1">
          <mxGeometry width="160" relative="1" as="geometry">
            <mxPoint x="380" y="220" as="sourcePoint" />
            <mxPoint x="448" y="428" as="targetPoint" />
            <Array as="points" />
          </mxGeometry>
        </mxCell>
        <mxCell id="xz0jueh79__ibbF_jKvQ-119" value="&lt;p style=&quot;margin: 0px; margin-top: 4px; text-align: center; text-decoration: underline;&quot;&gt;&lt;/p&gt;&lt;p style=&quot;margin: 0px; margin-left: 8px;&quot;&gt;&lt;b&gt;Data Providers&lt;/b&gt;&lt;/p&gt;" style="verticalAlign=top;align=left;overflow=fill;fontSize=12;fontFamily=Helvetica;html=1;strokeColor=#003366;shadow=1;fillColor=#D4E1F5;fontColor=#003366" parent="xz0jueh79__ibbF_jKvQ-1" vertex="1">
          <mxGeometry x="-350" y="45" width="115" height="80" as="geometry" />
        </mxCell>
        <mxCell id="xz0jueh79__ibbF_jKvQ-120" value="" style="endArrow=block;dashed=1;endFill=0;endSize=12;html=1;rounded=0;strokeColor=#FF0000;exitX=1;exitY=0.25;exitDx=0;exitDy=0;entryX=-0.008;entryY=0.17;entryDx=0;entryDy=0;entryPerimeter=0;" parent="xz0jueh79__ibbF_jKvQ-1" source="xz0jueh79__ibbF_jKvQ-119" target="xz0jueh79__ibbF_jKvQ-7" edge="1">
          <mxGeometry width="160" relative="1" as="geometry">
            <mxPoint x="-200" y="80" as="sourcePoint" />
            <mxPoint x="-60" y="70" as="targetPoint" />
            <Array as="points" />
          </mxGeometry>
        </mxCell>
        <mxCell id="xz0jueh79__ibbF_jKvQ-121" value="" style="endArrow=open;startArrow=none;endFill=0;startFill=0;endSize=8;html=1;verticalAlign=bottom;labelBackgroundColor=none;strokeWidth=1;rounded=0;entryX=1;entryY=0.65;entryDx=0;entryDy=0;entryPerimeter=0;fillColor=#FF0000;strokeColor=#FF0000;" parent="xz0jueh79__ibbF_jKvQ-1" edge="1">
          <mxGeometry width="160" relative="1" as="geometry">
            <mxPoint x="630" y="70" as="sourcePoint" />
            <mxPoint x="470" y="154" as="targetPoint" />
          </mxGeometry>
        </mxCell>
        <mxCell id="xz0jueh79__ibbF_jKvQ-122" value="&lt;p style=&quot;margin: 0px; margin-top: 4px; text-align: center; text-decoration: underline;&quot;&gt;&lt;b&gt;WIS Global Calogue&lt;/b&gt;&lt;/p&gt;&lt;hr&gt;&lt;p style=&quot;margin: 0px; margin-left: 8px;&quot;&gt;&lt;br&gt;&lt;/p&gt;" style="verticalAlign=top;align=left;overflow=fill;fontSize=12;fontFamily=Helvetica;html=1;strokeColor=#003366;shadow=1;fillColor=#D4E1F5;fontColor=#003366" parent="xz0jueh79__ibbF_jKvQ-1" vertex="1">
          <mxGeometry x="640.0000000000001" y="215.00000000000045" width="160" height="120" as="geometry" />
        </mxCell>
        <mxCell id="xz0jueh79__ibbF_jKvQ-123" value="Use" style="endArrow=open;endSize=12;dashed=1;exitX=0;exitY=0.5;exitDx=0;exitDy=0;entryX=1.012;entryY=0.875;entryDx=0;entryDy=0;entryPerimeter=0;" parent="xz0jueh79__ibbF_jKvQ-1" source="xz0jueh79__ibbF_jKvQ-122" target="xz0jueh79__ibbF_jKvQ-7" edge="1">
          <mxGeometry x="430" y="50" as="geometry">
            <mxPoint x="590" y="361.1600000000004" as="sourcePoint" />
            <mxPoint x="422.0799999999999" y="260.00000000000034" as="targetPoint" />
          </mxGeometry>
        </mxCell>
        <mxCell id="xz0jueh79__ibbF_jKvQ-124" value="" style="endArrow=open;startArrow=none;endFill=0;startFill=0;endSize=8;html=1;verticalAlign=bottom;labelBackgroundColor=none;strokeWidth=1;rounded=0;entryX=1;entryY=0.65;entryDx=0;entryDy=0;entryPerimeter=0;fillColor=#FF0000;strokeColor=#FF0000;" parent="xz0jueh79__ibbF_jKvQ-1" source="xz0jueh79__ibbF_jKvQ-122" edge="1">
          <mxGeometry width="160" relative="1" as="geometry">
            <mxPoint x="630" y="86" as="sourcePoint" />
            <mxPoint x="470" y="170" as="targetPoint" />
          </mxGeometry>
        </mxCell>
        <mxCell id="xz0jueh79__ibbF_jKvQ-125" value="" style="endArrow=open;startArrow=none;endFill=0;startFill=0;endSize=8;html=1;verticalAlign=bottom;labelBackgroundColor=none;strokeWidth=1;rounded=0;fillColor=#FF0000;strokeColor=#FF0000;exitX=1.012;exitY=0.179;exitDx=0;exitDy=0;exitPerimeter=0;entryX=0;entryY=0.5;entryDx=0;entryDy=0;" parent="xz0jueh79__ibbF_jKvQ-1" source="xz0jueh79__ibbF_jKvQ-7" target="xz0jueh79__ibbF_jKvQ-71" edge="1">
          <mxGeometry width="160" relative="1" as="geometry">
            <mxPoint x="600" y="360" as="sourcePoint" />
            <mxPoint x="480" y="-110" as="targetPoint" />
          </mxGeometry>
        </mxCell>
        <mxCell id="xz0jueh79__ibbF_jKvQ-126" value="&lt;p style=&quot;margin: 0px; margin-top: 4px; text-align: center; text-decoration: underline;&quot;&gt;&lt;b&gt;WIS Broker&lt;/b&gt;&lt;/p&gt;" style="verticalAlign=top;align=left;overflow=fill;fontSize=12;fontFamily=Helvetica;html=1;strokeColor=#003366;shadow=1;fillColor=#D4E1F5;fontColor=#003366" parent="xz0jueh79__ibbF_jKvQ-1" vertex="1">
          <mxGeometry x="-9.999999999999545" y="610.0000000000006" width="160" height="100" as="geometry" />
        </mxCell>
        <mxCell id="xz0jueh79__ibbF_jKvQ-127" value="" style="endArrow=classic;html=1;rounded=0;entryX=0.75;entryY=1;entryDx=0;entryDy=0;" parent="xz0jueh79__ibbF_jKvQ-1" target="xz0jueh79__ibbF_jKvQ-2" edge="1">
          <mxGeometry width="50" height="50" relative="1" as="geometry">
            <mxPoint x="140" y="610" as="sourcePoint" />
            <mxPoint x="180" y="565" as="targetPoint" />
          </mxGeometry>
        </mxCell>
        <mxCell id="xz0jueh79__ibbF_jKvQ-128" value="" style="endArrow=block;dashed=1;endFill=0;endSize=12;html=1;rounded=0;exitX=1;exitY=0.25;exitDx=0;exitDy=0;strokeColor=#FF0000;entryX=-0.01;entryY=0.434;entryDx=0;entryDy=0;entryPerimeter=0;" parent="xz0jueh79__ibbF_jKvQ-1" edge="1">
          <mxGeometry width="160" relative="1" as="geometry">
            <mxPoint x="-160" y="396" as="sourcePoint" />
            <mxPoint x="38" y="444" as="targetPoint" />
            <Array as="points" />
          </mxGeometry>
        </mxCell>
        <mxCell id="xz0jueh79__ibbF_jKvQ-129" value="" style="endArrow=classic;html=1;rounded=0;entryX=0.688;entryY=1.02;entryDx=0;entryDy=0;entryPerimeter=0;exitX=0.417;exitY=1.022;exitDx=0;exitDy=0;strokeColor=#FF0000;exitPerimeter=0;" parent="xz0jueh79__ibbF_jKvQ-1" source="xz0jueh79__ibbF_jKvQ-126" edge="1">
          <mxGeometry width="50" height="50" relative="1" as="geometry">
            <mxPoint x="30.000000000000455" y="680.0000000000005" as="sourcePoint" />
            <mxPoint x="-100" y="796.16" as="targetPoint" />
          </mxGeometry>
        </mxCell>
        <mxCell id="xz0jueh79__ibbF_jKvQ-130" value="&lt;b&gt;&lt;font style=&quot;font-size: 11px;&quot;&gt;Notification&lt;/font&gt;&lt;/b&gt;" style="text;html=1;align=center;verticalAlign=middle;whiteSpace=wrap;rounded=0;fillColor=#66FF66;rotation=-15;" parent="xz0jueh79__ibbF_jKvQ-1" vertex="1">
          <mxGeometry x="-407.03" y="880" width="110" height="28.84" as="geometry" />
        </mxCell>
        <mxCell id="xz0jueh79__ibbF_jKvQ-131" value="" style="endArrow=classic;html=1;rounded=0;entryX=0.5;entryY=1;entryDx=0;entryDy=0;strokeColor=#FF0000;exitX=0.01;exitY=0.843;exitDx=0;exitDy=0;exitPerimeter=0;" parent="xz0jueh79__ibbF_jKvQ-1" source="xz0jueh79__ibbF_jKvQ-122" edge="1">
          <mxGeometry width="50" height="50" relative="1" as="geometry">
            <mxPoint x="440" y="440" as="sourcePoint" />
            <mxPoint x="-110" y="741" as="targetPoint" />
          </mxGeometry>
        </mxCell>
        <mxCell id="H7e9hR3cebRyQdY7iCz0-3" value="&lt;b&gt;User (e.g. specific NMHS)&lt;/b&gt;" style="whiteSpace=wrap;html=1;aspect=fixed;" parent="xz0jueh79__ibbF_jKvQ-1" vertex="1">
          <mxGeometry x="1110" y="520" width="80" height="80" as="geometry" />
        </mxCell>
        <mxCell id="H7e9hR3cebRyQdY7iCz0-4" value="&lt;b&gt;Global broker&lt;/b&gt;" style="whiteSpace=wrap;html=1;aspect=fixed;" parent="xz0jueh79__ibbF_jKvQ-1" vertex="1">
          <mxGeometry x="1360" y="380" width="80" height="80" as="geometry" />
        </mxCell>
        <mxCell id="H7e9hR3cebRyQdY7iCz0-5" value="&lt;b&gt;Global cache&lt;/b&gt;" style="whiteSpace=wrap;html=1;aspect=fixed;" parent="xz0jueh79__ibbF_jKvQ-1" vertex="1">
          <mxGeometry x="1390" y="645" width="80" height="80" as="geometry" />
        </mxCell>
        <mxCell id="H7e9hR3cebRyQdY7iCz0-6" value="&lt;b&gt;Data provider&lt;/b&gt;&lt;div&gt;&lt;b&gt;(e.g. ECMWF)&lt;/b&gt;&lt;/div&gt;" style="whiteSpace=wrap;html=1;aspect=fixed;" parent="xz0jueh79__ibbF_jKvQ-1" vertex="1">
          <mxGeometry x="1530" y="505" width="80" height="80" as="geometry" />
        </mxCell>
        <mxCell id="H7e9hR3cebRyQdY7iCz0-11" value="" style="endArrow=none;dashed=1;html=1;dashPattern=1 3;strokeWidth=2;rounded=0;entryX=0;entryY=0.5;entryDx=0;entryDy=0;" parent="xz0jueh79__ibbF_jKvQ-1" target="H7e9hR3cebRyQdY7iCz0-4" edge="1">
          <mxGeometry width="50" height="50" relative="1" as="geometry">
            <mxPoint x="1150" y="520" as="sourcePoint" />
            <mxPoint x="1200" y="470" as="targetPoint" />
          </mxGeometry>
        </mxCell>
        <mxCell id="H7e9hR3cebRyQdY7iCz0-12" value="Subscribe" style="text;html=1;align=center;verticalAlign=middle;whiteSpace=wrap;rounded=0;fillColor=#FF99CC;" parent="xz0jueh79__ibbF_jKvQ-1" vertex="1">
          <mxGeometry x="1190" y="420" width="80" height="45" as="geometry" />
        </mxCell>
        <mxCell id="H7e9hR3cebRyQdY7iCz0-13" value="" style="endArrow=none;dashed=1;html=1;dashPattern=1 3;strokeWidth=2;rounded=0;entryX=0;entryY=0.5;entryDx=0;entryDy=0;exitX=0.5;exitY=1;exitDx=0;exitDy=0;" parent="xz0jueh79__ibbF_jKvQ-1" source="H7e9hR3cebRyQdY7iCz0-3" target="H7e9hR3cebRyQdY7iCz0-5" edge="1">
          <mxGeometry width="50" height="50" relative="1" as="geometry">
            <mxPoint x="1220" y="710" as="sourcePoint" />
            <mxPoint x="1430" y="610" as="targetPoint" />
          </mxGeometry>
        </mxCell>
        <mxCell id="H7e9hR3cebRyQdY7iCz0-14" value="Download core data" style="text;html=1;align=center;verticalAlign=middle;whiteSpace=wrap;rounded=0;fillColor=#FF99CC;" parent="xz0jueh79__ibbF_jKvQ-1" vertex="1">
          <mxGeometry x="1260" y="610" width="90" height="50" as="geometry" />
        </mxCell>
        <mxCell id="H7e9hR3cebRyQdY7iCz0-15" value="" style="endArrow=none;dashed=1;html=1;dashPattern=1 3;strokeWidth=2;rounded=0;entryX=0;entryY=0.5;entryDx=0;entryDy=0;exitX=1;exitY=0.5;exitDx=0;exitDy=0;" parent="xz0jueh79__ibbF_jKvQ-1" source="H7e9hR3cebRyQdY7iCz0-3" target="H7e9hR3cebRyQdY7iCz0-6" edge="1">
          <mxGeometry width="50" height="50" relative="1" as="geometry">
            <mxPoint x="1190" y="547.5" as="sourcePoint" />
            <mxPoint x="1430" y="632.5" as="targetPoint" />
          </mxGeometry>
        </mxCell>
        <mxCell id="H7e9hR3cebRyQdY7iCz0-17" value="Download recommended data" style="text;html=1;align=center;verticalAlign=middle;whiteSpace=wrap;rounded=0;fillColor=#FF99CC;" parent="xz0jueh79__ibbF_jKvQ-1" vertex="1">
          <mxGeometry x="1310" y="510" width="90" height="49.68" as="geometry" />
        </mxCell>
        <mxCell id="H7e9hR3cebRyQdY7iCz0-19" value="" style="endArrow=none;dashed=1;html=1;dashPattern=1 3;strokeWidth=2;rounded=0;entryX=0.5;entryY=1;entryDx=0;entryDy=0;exitX=1;exitY=0.5;exitDx=0;exitDy=0;" parent="xz0jueh79__ibbF_jKvQ-1" source="H7e9hR3cebRyQdY7iCz0-5" target="H7e9hR3cebRyQdY7iCz0-6" edge="1">
          <mxGeometry width="50" height="50" relative="1" as="geometry">
            <mxPoint x="1430" y="680" as="sourcePoint" />
            <mxPoint x="1760" y="660" as="targetPoint" />
          </mxGeometry>
        </mxCell>
        <mxCell id="H7e9hR3cebRyQdY7iCz0-21" value="" style="endArrow=none;dashed=1;html=1;dashPattern=1 3;strokeWidth=2;rounded=0;entryX=0.5;entryY=0;entryDx=0;entryDy=0;exitX=1;exitY=0.5;exitDx=0;exitDy=0;" parent="xz0jueh79__ibbF_jKvQ-1" source="H7e9hR3cebRyQdY7iCz0-4" target="H7e9hR3cebRyQdY7iCz0-6" edge="1">
          <mxGeometry width="50" height="50" relative="1" as="geometry">
            <mxPoint x="1450" y="420" as="sourcePoint" />
            <mxPoint x="1760" y="390" as="targetPoint" />
          </mxGeometry>
        </mxCell>
        <mxCell id="H7e9hR3cebRyQdY7iCz0-23" value="Could specific organizations subscribe to the broker ??" style="text;html=1;align=center;verticalAlign=middle;whiteSpace=wrap;rounded=0;fillColor=#FF0000;" parent="xz0jueh79__ibbF_jKvQ-1" vertex="1">
          <mxGeometry x="1490" y="410" width="120" height="50" as="geometry" />
        </mxCell>
        <mxCell id="qrMReDebcwUhYUUukPge-0" value="Could specific organizations download from cache ??" style="text;html=1;align=center;verticalAlign=middle;whiteSpace=wrap;rounded=0;fillColor=#FF0000;" parent="xz0jueh79__ibbF_jKvQ-1" vertex="1">
          <mxGeometry x="1490" y="620" width="120" height="50" as="geometry" />
        </mxCell>
      </root>
    </mxGraphModel>
  </diagram>
  <diagram name="WHOS operational plan2" id="lgxUQoXvejUB-9aSRBp2">
    <mxGraphModel dx="2500" dy="780" grid="1" gridSize="10" guides="1" tooltips="1" connect="1" arrows="1" fold="1" page="1" pageScale="1" pageWidth="826" pageHeight="1169" background="none" math="0" shadow="0">
      <root>
        <mxCell id="NaLUj4CSaD-ZdcwMRhFD-0" />
        <mxCell id="NaLUj4CSaD-ZdcwMRhFD-1" parent="NaLUj4CSaD-ZdcwMRhFD-0" />
        <mxCell id="NaLUj4CSaD-ZdcwMRhFD-2" value="&lt;p style=&quot;margin: 0px; margin-top: 4px; text-align: center; text-decoration: underline;&quot;&gt;&lt;strong&gt;DAB&lt;/strong&gt;&lt;/p&gt;&lt;p style=&quot;margin: 0px; margin-left: 8px;&quot;&gt;&lt;br&gt;&lt;/p&gt;&lt;p style=&quot;margin: 0px; margin-left: 8px;&quot;&gt;&lt;span style=&quot;background-color: initial;&quot;&gt;1. Discovery broker:&lt;/span&gt;&lt;/p&gt;&lt;p style=&quot;margin: 0px; margin-left: 8px;&quot;&gt;&lt;/p&gt;&lt;ul&gt;&lt;li&gt;&lt;span style=&quot;background-color: initial;&quot;&gt;Catalog level&lt;/span&gt;&lt;/li&gt;&lt;li&gt;&lt;span style=&quot;background-color: initial;&quot;&gt;Server level&lt;/span&gt;&lt;/li&gt;&lt;li&gt;&lt;span style=&quot;background-color: initial;&quot;&gt;Site level&lt;/span&gt;&lt;/li&gt;&lt;/ul&gt;&amp;nbsp; 2. Access broker&lt;br&gt;&amp;nbsp; 3. Semantic broker&lt;br&gt;&lt;span style=&quot;white-space: pre;&quot;&gt;&#x9;&lt;/span&gt;Automatic query expansion&lt;br&gt;&lt;span style=&quot;white-space: pre;&quot;&gt;&#x9;&lt;/span&gt;User-assisted query expansion&lt;br&gt;&lt;br&gt;&lt;p&gt;&lt;/p&gt;&lt;p style=&quot;margin: 0px; margin-left: 8px;&quot;&gt;&lt;span style=&quot;background-color: initial;&quot;&gt;&lt;span style=&quot;white-space: pre;&quot;&gt;&#x9;&lt;/span&gt;&lt;br&gt;&lt;/span&gt;&lt;/p&gt;&lt;p style=&quot;margin: 0px; margin-left: 8px;&quot;&gt;&lt;br&gt;&lt;/p&gt;" style="verticalAlign=top;align=left;overflow=fill;fontSize=12;fontFamily=Helvetica;html=1;strokeColor=#003366;shadow=1;fillColor=#D4E1F5;fontColor=#003366" parent="NaLUj4CSaD-ZdcwMRhFD-1" vertex="1">
          <mxGeometry x="310" y="91.64" width="250" height="188.36" as="geometry" />
        </mxCell>
        <mxCell id="NaLUj4CSaD-ZdcwMRhFD-3" value="&lt;p style=&quot;margin: 0px; margin-top: 4px; text-align: center; text-decoration: underline;&quot;&gt;&lt;strong&gt;Monitoring&lt;/strong&gt;&lt;/p&gt;&lt;hr&gt;&lt;p style=&quot;margin: 0px; margin-left: 8px;&quot;&gt;Regional&amp;nbsp;&lt;/p&gt;&lt;p style=&quot;margin: 0px; margin-left: 8px;&quot;&gt;&lt;br&gt;&lt;/p&gt;&lt;p style=&quot;margin: 0px; margin-left: 8px;&quot;&gt;Global&lt;/p&gt;&lt;p style=&quot;margin: 0px; margin-left: 8px;&quot;&gt;&lt;br&gt;&lt;/p&gt;&lt;p style=&quot;margin: 0px; margin-left: 8px;&quot;&gt;&lt;br&gt;&lt;/p&gt;" style="verticalAlign=top;align=left;overflow=fill;fontSize=12;fontFamily=Helvetica;html=1;strokeColor=#003366;shadow=1;fillColor=#D4E1F5;fontColor=#003366" parent="NaLUj4CSaD-ZdcwMRhFD-1" vertex="1">
          <mxGeometry x="310.00000000000006" y="329.9999999999998" width="160" height="125" as="geometry" />
        </mxCell>
        <mxCell id="NaLUj4CSaD-ZdcwMRhFD-4" value="&lt;p style=&quot;margin: 0px; margin-top: 4px; text-align: center; text-decoration: underline;&quot;&gt;&lt;strong&gt;Data Center&lt;/strong&gt;&lt;/p&gt;&lt;hr&gt;&lt;p style=&quot;margin: 0px; margin-left: 8px;&quot;&gt;Regional&lt;/p&gt;&lt;p style=&quot;margin: 0px; margin-left: 8px;&quot;&gt;&lt;br&gt;&lt;/p&gt;&lt;p style=&quot;margin: 0px; margin-left: 8px;&quot;&gt;&lt;br&gt;&lt;/p&gt;&lt;p style=&quot;margin: 0px; margin-left: 8px;&quot;&gt;Global&lt;/p&gt;&lt;p style=&quot;margin: 0px; margin-left: 8px;&quot;&gt;-&amp;nbsp; GRDC&lt;/p&gt;&lt;p style=&quot;margin: 0px; margin-left: 8px;&quot;&gt;-&amp;nbsp; IGRAC&lt;/p&gt;&lt;p style=&quot;margin: 0px; margin-left: 8px;&quot;&gt;-&amp;nbsp; HydroLARE&lt;/p&gt;" style="verticalAlign=top;align=left;overflow=fill;fontSize=12;fontFamily=Helvetica;html=1;strokeColor=#003366;shadow=1;fillColor=#D4E1F5;fontColor=#003366" parent="NaLUj4CSaD-ZdcwMRhFD-1" vertex="1">
          <mxGeometry x="40.00000000000002" y="284.99999999999983" width="160" height="160" as="geometry" />
        </mxCell>
        <mxCell id="NaLUj4CSaD-ZdcwMRhFD-5" value="&lt;p style=&quot;margin: 0px; margin-top: 4px; text-align: center; text-decoration: underline;&quot;&gt;&lt;b&gt;User Interface&lt;/b&gt;&lt;/p&gt;&lt;p style=&quot;margin: 4px 0px 0px; text-align: center;&quot;&gt;&lt;b style=&quot;&quot;&gt;- &lt;/b&gt;Water Data Explorer&lt;/p&gt;&lt;p style=&quot;margin: 4px 0px 0px; text-align: center;&quot;&gt;- API interface: GWIS Javascript,&amp;nbsp;&lt;/p&gt;&lt;p style=&quot;margin: 4px 0px 0px; text-align: center;&quot;&gt;ArcGIS online&lt;/p&gt;&lt;p style=&quot;margin: 4px 0px 0px; text-align: center;&quot;&gt;&lt;br&gt;&lt;/p&gt;&lt;p style=&quot;margin: 4px 0px 0px; text-align: center;&quot;&gt;&lt;br&gt;&lt;/p&gt;&lt;p style=&quot;margin: 4px 0px 0px; text-align: center;&quot;&gt;&lt;br&gt;&lt;/p&gt;&lt;p style=&quot;margin: 0px; margin-top: 4px; text-align: center; text-decoration: underline;&quot;&gt;&lt;b&gt;&lt;br&gt;&lt;/b&gt;&lt;/p&gt;" style="verticalAlign=top;align=left;overflow=fill;fontSize=12;fontFamily=Helvetica;html=1;strokeColor=#003366;shadow=1;fillColor=#D4E1F5;fontColor=#003366" parent="NaLUj4CSaD-ZdcwMRhFD-1" vertex="1">
          <mxGeometry x="600" y="410" width="200" height="110" as="geometry" />
        </mxCell>
        <mxCell id="NaLUj4CSaD-ZdcwMRhFD-6" value="&lt;p style=&quot;margin: 0px; margin-top: 4px; text-align: center; text-decoration: underline;&quot;&gt;&lt;/p&gt;&lt;p style=&quot;margin: 0px; margin-left: 8px;&quot;&gt;&lt;b&gt;Users&lt;/b&gt;&lt;/p&gt;&lt;p style=&quot;margin: 0px; margin-left: 8px;&quot;&gt;- Institutions&lt;/p&gt;&lt;p style=&quot;margin: 0px; margin-left: 8px;&quot;&gt;- NMHSs&lt;/p&gt;&lt;p style=&quot;margin: 0px; margin-left: 8px;&quot;&gt;- Researchers&lt;/p&gt;" style="verticalAlign=top;align=left;overflow=fill;fontSize=12;fontFamily=Helvetica;html=1;strokeColor=#003366;shadow=1;fillColor=#D4E1F5;fontColor=#003366" parent="NaLUj4CSaD-ZdcwMRhFD-1" vertex="1">
          <mxGeometry x="170.00000000000023" y="570.0000000000006" width="160" height="150" as="geometry" />
        </mxCell>
        <mxCell id="NaLUj4CSaD-ZdcwMRhFD-7" value="&lt;p style=&quot;margin: 0px; margin-top: 4px; text-align: center; text-decoration: underline;&quot;&gt;&lt;strong&gt;WHOS Node&lt;/strong&gt;&lt;/p&gt;&lt;hr&gt;&lt;p style=&quot;margin: 0px; margin-left: 8px;&quot;&gt;WIS2.0 Box&lt;/p&gt;&lt;p style=&quot;margin: 0px; margin-left: 8px;&quot;&gt;Hydroserver&lt;/p&gt;&lt;p style=&quot;margin: 0px; margin-left: 8px;&quot;&gt;.....&lt;/p&gt;" style="verticalAlign=top;align=left;overflow=fill;fontSize=12;fontFamily=Helvetica;html=1;strokeColor=#003366;shadow=1;fillColor=#D4E1F5;fontColor=#003366" parent="NaLUj4CSaD-ZdcwMRhFD-1" vertex="1">
          <mxGeometry x="40.00000000000005" y="21.640000000000366" width="160" height="160" as="geometry" />
        </mxCell>
        <mxCell id="NaLUj4CSaD-ZdcwMRhFD-8" value="&lt;p style=&quot;margin: 0px; margin-top: 4px; text-align: center; text-decoration: underline;&quot;&gt;&lt;b&gt;Capacity Bulding&lt;/b&gt;&lt;/p&gt;" style="verticalAlign=top;align=left;overflow=fill;fontSize=12;fontFamily=Helvetica;html=1;strokeColor=#003366;shadow=1;fillColor=#D4E1F5;fontColor=#003366" parent="NaLUj4CSaD-ZdcwMRhFD-1" vertex="1">
          <mxGeometry x="129.9999999999999" y="881.1600000000003" width="160" height="180" as="geometry" />
        </mxCell>
        <mxCell id="NaLUj4CSaD-ZdcwMRhFD-9" value="&lt;p style=&quot;margin: 0px; margin-top: 4px; text-align: center; text-decoration: underline;&quot;&gt;&lt;b&gt;Advanced Users&lt;/b&gt;&lt;/p&gt;&lt;p style=&quot;margin: 4px 0px 0px; text-align: center;&quot;&gt;&lt;b style=&quot;&quot;&gt;-&amp;nbsp; Modelling community&lt;/b&gt;&lt;/p&gt;&lt;p style=&quot;margin: 4px 0px 0px; text-align: center;&quot;&gt;-&amp;nbsp;&lt;/p&gt;" style="verticalAlign=top;align=left;overflow=fill;fontSize=12;fontFamily=Helvetica;html=1;strokeColor=#003366;shadow=1;fillColor=#D4E1F5;fontColor=#003366" parent="NaLUj4CSaD-ZdcwMRhFD-1" vertex="1">
          <mxGeometry x="591.0800000000003" y="570.0000000000007" width="160" height="200" as="geometry" />
        </mxCell>
        <mxCell id="NaLUj4CSaD-ZdcwMRhFD-10" value="&lt;p style=&quot;margin: 0px; margin-top: 4px; text-align: center; text-decoration: underline;&quot;&gt;&lt;b&gt;Reporting&lt;/b&gt;&lt;/p&gt;" style="verticalAlign=top;align=left;overflow=fill;fontSize=12;fontFamily=Helvetica;html=1;strokeColor=#003366;shadow=1;fillColor=#D4E1F5;fontColor=#003366" parent="NaLUj4CSaD-ZdcwMRhFD-1" vertex="1">
          <mxGeometry x="1170" y="912.4999999999997" width="160" height="95" as="geometry" />
        </mxCell>
        <mxCell id="NaLUj4CSaD-ZdcwMRhFD-11" value="&lt;p style=&quot;margin: 0px; margin-top: 4px; text-align: center; text-decoration: underline;&quot;&gt;&lt;b&gt;Cost&lt;/b&gt;&lt;/p&gt;&lt;p style=&quot;margin: 0px; margin-top: 4px; text-align: center; text-decoration: underline;&quot;&gt;&lt;b&gt;&lt;br&gt;&lt;/b&gt;&lt;/p&gt;" style="verticalAlign=top;align=left;overflow=fill;fontSize=12;fontFamily=Helvetica;html=1;strokeColor=#003366;shadow=1;fillColor=#D4E1F5;fontColor=#003366" parent="NaLUj4CSaD-ZdcwMRhFD-1" vertex="1">
          <mxGeometry x="940.0000000000001" y="889.9999999999995" width="160" height="140" as="geometry" />
        </mxCell>
        <mxCell id="NaLUj4CSaD-ZdcwMRhFD-12" value="&lt;p style=&quot;margin: 0px; margin-top: 4px; text-align: center; text-decoration: underline;&quot;&gt;&lt;b&gt;Quality&lt;/b&gt;&lt;/p&gt;" style="verticalAlign=top;align=left;overflow=fill;fontSize=12;fontFamily=Helvetica;html=1;strokeColor=#003366;shadow=1;fillColor=#D4E1F5;fontColor=#003366" parent="NaLUj4CSaD-ZdcwMRhFD-1" vertex="1">
          <mxGeometry x="630" y="914.9999999999995" width="160" height="90" as="geometry" />
        </mxCell>
        <mxCell id="NaLUj4CSaD-ZdcwMRhFD-13" value="&lt;p style=&quot;margin: 0px ; margin-top: 4px ; text-align: center ; text-decoration: underline&quot;&gt;&lt;b&gt;Security&lt;/b&gt;&lt;/p&gt;" style="verticalAlign=top;align=left;overflow=fill;fontSize=12;fontFamily=Helvetica;html=1;strokeColor=#003366;shadow=1;fillColor=#D4E1F5;fontColor=#003366" parent="NaLUj4CSaD-ZdcwMRhFD-1" vertex="1">
          <mxGeometry x="440.00000000000006" y="926.1600000000003" width="160" height="90" as="geometry" />
        </mxCell>
        <mxCell id="NaLUj4CSaD-ZdcwMRhFD-14" value="" style="endArrow=open;endSize=12;startArrow=diamondThin;startSize=14;startFill=0;edgeStyle=orthogonalEdgeStyle;" parent="NaLUj4CSaD-ZdcwMRhFD-1" source="NaLUj4CSaD-ZdcwMRhFD-2" target="NaLUj4CSaD-ZdcwMRhFD-3" edge="1">
          <mxGeometry y="160" as="geometry">
            <mxPoint y="160" as="sourcePoint" />
            <mxPoint x="160" y="160" as="targetPoint" />
          </mxGeometry>
        </mxCell>
        <mxCell id="NaLUj4CSaD-ZdcwMRhFD-15" value="0..n" style="resizable=0;align=left;verticalAlign=top;labelBackgroundColor=#ffffff;fontSize=10;strokeColor=#003366;shadow=1;fillColor=#D4E1F5;fontColor=#003366" parent="NaLUj4CSaD-ZdcwMRhFD-14" connectable="0" vertex="1">
          <mxGeometry x="-1" relative="1" as="geometry">
            <mxPoint x="10" as="offset" />
          </mxGeometry>
        </mxCell>
        <mxCell id="NaLUj4CSaD-ZdcwMRhFD-16" value="1" style="resizable=0;align=right;verticalAlign=top;labelBackgroundColor=#ffffff;fontSize=10;strokeColor=#003366;shadow=1;fillColor=#D4E1F5;fontColor=#003366" parent="NaLUj4CSaD-ZdcwMRhFD-14" connectable="0" vertex="1">
          <mxGeometry x="1" relative="1" as="geometry">
            <mxPoint x="590" y="105" as="offset" />
          </mxGeometry>
        </mxCell>
        <mxCell id="NaLUj4CSaD-ZdcwMRhFD-17" value="" style="endArrow=open;endSize=12;startArrow=diamondThin;startSize=14;startFill=0;edgeStyle=orthogonalEdgeStyle;rounded=0" parent="NaLUj4CSaD-ZdcwMRhFD-1" source="NaLUj4CSaD-ZdcwMRhFD-5" edge="1">
          <mxGeometry x="519.3599999999999" y="180" as="geometry">
            <mxPoint x="519.3599999999999" y="180" as="sourcePoint" />
            <mxPoint x="880" y="520" as="targetPoint" />
          </mxGeometry>
        </mxCell>
        <mxCell id="NaLUj4CSaD-ZdcwMRhFD-18" value="0..n" style="resizable=0;align=left;verticalAlign=top;labelBackgroundColor=#ffffff;fontSize=10;strokeColor=#003366;shadow=1;fillColor=#D4E1F5;fontColor=#003366" parent="NaLUj4CSaD-ZdcwMRhFD-17" connectable="0" vertex="1">
          <mxGeometry x="-1" relative="1" as="geometry">
            <mxPoint x="8.919999999999618" as="offset" />
          </mxGeometry>
        </mxCell>
        <mxCell id="NaLUj4CSaD-ZdcwMRhFD-19" value="1" style="resizable=0;align=right;verticalAlign=top;labelBackgroundColor=#ffffff;fontSize=10;strokeColor=#003366;shadow=1;fillColor=#D4E1F5;fontColor=#003366" parent="NaLUj4CSaD-ZdcwMRhFD-17" connectable="0" vertex="1">
          <mxGeometry x="1" relative="1" as="geometry">
            <mxPoint x="-550" y="-159.99999999999997" as="offset" />
          </mxGeometry>
        </mxCell>
        <mxCell id="NaLUj4CSaD-ZdcwMRhFD-20" value="" style="endArrow=open;endSize=12;startArrow=diamondThin;startSize=14;startFill=0;edgeStyle=orthogonalEdgeStyle;exitX=1;exitY=0.25;rounded=0" parent="NaLUj4CSaD-ZdcwMRhFD-1" source="NaLUj4CSaD-ZdcwMRhFD-9" edge="1">
          <mxGeometry x="769.3599999999999" y="450" as="geometry">
            <mxPoint x="769.3599999999999" y="450" as="sourcePoint" />
            <mxPoint x="880" y="520" as="targetPoint" />
          </mxGeometry>
        </mxCell>
        <mxCell id="NaLUj4CSaD-ZdcwMRhFD-21" value="0..n" style="resizable=0;align=left;verticalAlign=top;labelBackgroundColor=#ffffff;fontSize=10;strokeColor=#003366;shadow=1;fillColor=#D4E1F5;fontColor=#003366" parent="NaLUj4CSaD-ZdcwMRhFD-20" connectable="0" vertex="1">
          <mxGeometry x="-1" relative="1" as="geometry">
            <mxPoint x="8.919999999999803" y="3.039999999999177" as="offset" />
          </mxGeometry>
        </mxCell>
        <mxCell id="NaLUj4CSaD-ZdcwMRhFD-22" value="1" style="resizable=0;align=right;verticalAlign=top;labelBackgroundColor=#ffffff;fontSize=10;strokeColor=#003366;shadow=1;fillColor=#D4E1F5;fontColor=#003366" parent="NaLUj4CSaD-ZdcwMRhFD-20" connectable="0" vertex="1">
          <mxGeometry x="1" relative="1" as="geometry">
            <mxPoint x="-10" as="offset" />
          </mxGeometry>
        </mxCell>
        <mxCell id="NaLUj4CSaD-ZdcwMRhFD-23" value="" style="endArrow=open;endSize=12;startArrow=diamondThin;startSize=14;startFill=0;edgeStyle=orthogonalEdgeStyle" parent="NaLUj4CSaD-ZdcwMRhFD-1" source="NaLUj4CSaD-ZdcwMRhFD-5" target="NaLUj4CSaD-ZdcwMRhFD-9" edge="1">
          <mxGeometry x="389.35999999999996" y="350" as="geometry">
            <mxPoint x="389.35999999999996" y="350" as="sourcePoint" />
            <mxPoint x="549.3599999999999" y="350" as="targetPoint" />
          </mxGeometry>
        </mxCell>
        <mxCell id="NaLUj4CSaD-ZdcwMRhFD-24" value="0..n" style="resizable=0;align=left;verticalAlign=top;labelBackgroundColor=#ffffff;fontSize=10;strokeColor=#003366;shadow=1;fillColor=#D4E1F5;fontColor=#003366" parent="NaLUj4CSaD-ZdcwMRhFD-23" connectable="0" vertex="1">
          <mxGeometry x="-1" relative="1" as="geometry">
            <mxPoint x="8.91999999999958" as="offset" />
          </mxGeometry>
        </mxCell>
        <mxCell id="NaLUj4CSaD-ZdcwMRhFD-25" value="1" style="resizable=0;align=right;verticalAlign=top;labelBackgroundColor=#ffffff;fontSize=10;strokeColor=#003366;shadow=1;fillColor=#D4E1F5;fontColor=#003366" parent="NaLUj4CSaD-ZdcwMRhFD-23" connectable="0" vertex="1">
          <mxGeometry x="1" relative="1" as="geometry">
            <mxPoint x="18.919999999999582" y="-21.960000000000644" as="offset" />
          </mxGeometry>
        </mxCell>
        <mxCell id="NaLUj4CSaD-ZdcwMRhFD-26" value="" style="endArrow=open;endSize=12;startArrow=diamondThin;startSize=14;startFill=0;edgeStyle=orthogonalEdgeStyle;entryX=0.75;entryY=1" parent="NaLUj4CSaD-ZdcwMRhFD-1" source="NaLUj4CSaD-ZdcwMRhFD-12" target="NaLUj4CSaD-ZdcwMRhFD-9" edge="1">
          <mxGeometry x="479.35999999999996" y="790" as="geometry">
            <mxPoint x="479.35999999999996" y="790" as="sourcePoint" />
            <mxPoint x="639.3599999999999" y="790" as="targetPoint" />
          </mxGeometry>
        </mxCell>
        <mxCell id="NaLUj4CSaD-ZdcwMRhFD-27" value="0..n" style="resizable=0;align=left;verticalAlign=top;labelBackgroundColor=#ffffff;fontSize=10;strokeColor=#003366;shadow=1;fillColor=#D4E1F5;fontColor=#003366" parent="NaLUj4CSaD-ZdcwMRhFD-26" connectable="0" vertex="1">
          <mxGeometry x="-1" relative="1" as="geometry">
            <mxPoint x="-30" y="-97.50000000000027" as="offset" />
          </mxGeometry>
        </mxCell>
        <mxCell id="NaLUj4CSaD-ZdcwMRhFD-28" value="1" style="resizable=0;align=right;verticalAlign=top;labelBackgroundColor=#ffffff;fontSize=10;strokeColor=#003366;shadow=1;fillColor=#D4E1F5;fontColor=#003366" parent="NaLUj4CSaD-ZdcwMRhFD-26" connectable="0" vertex="1">
          <mxGeometry x="1" relative="1" as="geometry">
            <mxPoint x="-11.080000000000421" as="offset" />
          </mxGeometry>
        </mxCell>
        <mxCell id="NaLUj4CSaD-ZdcwMRhFD-29" value="" style="endArrow=open;endSize=12;startArrow=diamondThin;startSize=14;startFill=0;edgeStyle=orthogonalEdgeStyle" parent="NaLUj4CSaD-ZdcwMRhFD-1" source="NaLUj4CSaD-ZdcwMRhFD-12" target="NaLUj4CSaD-ZdcwMRhFD-11" edge="1">
          <mxGeometry x="469.3599999999999" y="526.1600000000003" as="geometry">
            <mxPoint x="469.3599999999999" y="526.1600000000003" as="sourcePoint" />
            <mxPoint x="980" y="1061.1600000000005" as="targetPoint" />
          </mxGeometry>
        </mxCell>
        <mxCell id="NaLUj4CSaD-ZdcwMRhFD-30" value="0..n" style="resizable=0;align=left;verticalAlign=top;labelBackgroundColor=#ffffff;fontSize=10;strokeColor=#003366;shadow=1;fillColor=#D4E1F5;fontColor=#003366" parent="NaLUj4CSaD-ZdcwMRhFD-29" connectable="0" vertex="1">
          <mxGeometry x="-1" relative="1" as="geometry">
            <mxPoint x="10" as="offset" />
          </mxGeometry>
        </mxCell>
        <mxCell id="NaLUj4CSaD-ZdcwMRhFD-31" value="1" style="resizable=0;align=right;verticalAlign=top;labelBackgroundColor=#ffffff;fontSize=10;strokeColor=#003366;shadow=1;fillColor=#D4E1F5;fontColor=#003366" parent="NaLUj4CSaD-ZdcwMRhFD-29" connectable="0" vertex="1">
          <mxGeometry x="1" relative="1" as="geometry">
            <mxPoint x="-10" as="offset" />
          </mxGeometry>
        </mxCell>
        <mxCell id="NaLUj4CSaD-ZdcwMRhFD-32" value="" style="endArrow=open;endSize=12;startArrow=diamondThin;startSize=14;startFill=0;edgeStyle=orthogonalEdgeStyle;entryX=0.25;entryY=1;rounded=0" parent="NaLUj4CSaD-ZdcwMRhFD-1" source="NaLUj4CSaD-ZdcwMRhFD-13" target="NaLUj4CSaD-ZdcwMRhFD-9" edge="1">
          <mxGeometry x="419.35999999999996" y="820" as="geometry">
            <mxPoint x="419.35999999999996" y="820" as="sourcePoint" />
            <mxPoint x="579.3599999999999" y="820" as="targetPoint" />
          </mxGeometry>
        </mxCell>
        <mxCell id="NaLUj4CSaD-ZdcwMRhFD-33" value="0..n" style="resizable=0;align=left;verticalAlign=top;labelBackgroundColor=#ffffff;fontSize=10;strokeColor=#003366;shadow=1;fillColor=#D4E1F5;fontColor=#003366" parent="NaLUj4CSaD-ZdcwMRhFD-32" connectable="0" vertex="1">
          <mxGeometry x="-1" relative="1" as="geometry">
            <mxPoint x="10" y="-26.160000000000235" as="offset" />
          </mxGeometry>
        </mxCell>
        <mxCell id="NaLUj4CSaD-ZdcwMRhFD-34" value="1" style="resizable=0;align=right;verticalAlign=top;labelBackgroundColor=#ffffff;fontSize=10;strokeColor=#003366;shadow=1;fillColor=#D4E1F5;fontColor=#003366" parent="NaLUj4CSaD-ZdcwMRhFD-32" connectable="0" vertex="1">
          <mxGeometry x="1" relative="1" as="geometry">
            <mxPoint x="-11.080000000000421" as="offset" />
          </mxGeometry>
        </mxCell>
        <mxCell id="NaLUj4CSaD-ZdcwMRhFD-35" value="" style="endArrow=open;endSize=12;startArrow=diamondThin;startSize=14;startFill=0;edgeStyle=orthogonalEdgeStyle" parent="NaLUj4CSaD-ZdcwMRhFD-1" source="NaLUj4CSaD-ZdcwMRhFD-10" edge="1">
          <mxGeometry x="1079.36" y="560" as="geometry">
            <mxPoint x="1079.36" y="560" as="sourcePoint" />
            <mxPoint x="1250" y="850" as="targetPoint" />
          </mxGeometry>
        </mxCell>
        <mxCell id="NaLUj4CSaD-ZdcwMRhFD-36" value="0..n" style="resizable=0;align=left;verticalAlign=top;labelBackgroundColor=#ffffff;fontSize=10;strokeColor=#003366;shadow=1;fillColor=#D4E1F5;fontColor=#003366" parent="NaLUj4CSaD-ZdcwMRhFD-35" connectable="0" vertex="1">
          <mxGeometry x="-1" relative="1" as="geometry">
            <mxPoint x="10.00000000000009" y="-22.499999999999915" as="offset" />
          </mxGeometry>
        </mxCell>
        <mxCell id="NaLUj4CSaD-ZdcwMRhFD-37" value="1" style="resizable=0;align=right;verticalAlign=top;labelBackgroundColor=#ffffff;fontSize=10;strokeColor=#003366;shadow=1;fillColor=#D4E1F5;fontColor=#003366" parent="NaLUj4CSaD-ZdcwMRhFD-35" connectable="0" vertex="1">
          <mxGeometry x="1" relative="1" as="geometry">
            <mxPoint x="20" as="offset" />
          </mxGeometry>
        </mxCell>
        <mxCell id="NaLUj4CSaD-ZdcwMRhFD-38" value="" style="endArrow=open;endSize=12;startArrow=diamondThin;startSize=14;startFill=0;edgeStyle=orthogonalEdgeStyle" parent="NaLUj4CSaD-ZdcwMRhFD-1" source="NaLUj4CSaD-ZdcwMRhFD-3" target="NaLUj4CSaD-ZdcwMRhFD-6" edge="1">
          <mxGeometry x="519.3599999999999" y="200" as="geometry">
            <mxPoint x="519.3599999999999" y="200" as="sourcePoint" />
            <mxPoint x="679.3599999999999" y="200" as="targetPoint" />
          </mxGeometry>
        </mxCell>
        <mxCell id="NaLUj4CSaD-ZdcwMRhFD-39" value="0..n" style="resizable=0;align=left;verticalAlign=top;labelBackgroundColor=#ffffff;fontSize=10;strokeColor=#003366;shadow=1;fillColor=#D4E1F5;fontColor=#003366" parent="NaLUj4CSaD-ZdcwMRhFD-38" connectable="0" vertex="1">
          <mxGeometry x="-1" relative="1" as="geometry">
            <mxPoint x="-40" as="offset" />
          </mxGeometry>
        </mxCell>
        <mxCell id="NaLUj4CSaD-ZdcwMRhFD-40" value="1" style="resizable=0;align=right;verticalAlign=top;labelBackgroundColor=#ffffff;fontSize=10;strokeColor=#003366;shadow=1;fillColor=#D4E1F5;fontColor=#003366" parent="NaLUj4CSaD-ZdcwMRhFD-38" connectable="0" vertex="1">
          <mxGeometry x="1" relative="1" as="geometry">
            <mxPoint x="19.99999999999981" y="-24.999999999999815" as="offset" />
          </mxGeometry>
        </mxCell>
        <mxCell id="NaLUj4CSaD-ZdcwMRhFD-41" value="" style="endArrow=open;endSize=12;startArrow=diamondThin;startSize=14;startFill=0;edgeStyle=orthogonalEdgeStyle" parent="NaLUj4CSaD-ZdcwMRhFD-1" source="NaLUj4CSaD-ZdcwMRhFD-7" target="NaLUj4CSaD-ZdcwMRhFD-4" edge="1">
          <mxGeometry x="620" y="340" as="geometry">
            <mxPoint x="620" y="340" as="sourcePoint" />
            <mxPoint x="780" y="340" as="targetPoint" />
          </mxGeometry>
        </mxCell>
        <mxCell id="NaLUj4CSaD-ZdcwMRhFD-42" value="0..n" style="resizable=0;align=left;verticalAlign=top;labelBackgroundColor=#ffffff;fontSize=10;strokeColor=#003366;shadow=1;fillColor=#D4E1F5;fontColor=#003366" parent="NaLUj4CSaD-ZdcwMRhFD-41" connectable="0" vertex="1">
          <mxGeometry x="-1" relative="1" as="geometry">
            <mxPoint x="10" as="offset" />
          </mxGeometry>
        </mxCell>
        <mxCell id="NaLUj4CSaD-ZdcwMRhFD-43" value="1" style="resizable=0;align=right;verticalAlign=top;labelBackgroundColor=#ffffff;fontSize=10;strokeColor=#003366;shadow=1;fillColor=#D4E1F5;fontColor=#003366" parent="NaLUj4CSaD-ZdcwMRhFD-41" connectable="0" vertex="1">
          <mxGeometry x="1" relative="1" as="geometry">
            <mxPoint x="20" y="-24.99999999999981" as="offset" />
          </mxGeometry>
        </mxCell>
        <mxCell id="NaLUj4CSaD-ZdcwMRhFD-44" value="" style="endArrow=open;endSize=12;startArrow=diamondThin;startSize=14;startFill=0;edgeStyle=orthogonalEdgeStyle" parent="NaLUj4CSaD-ZdcwMRhFD-1" source="NaLUj4CSaD-ZdcwMRhFD-9" target="NaLUj4CSaD-ZdcwMRhFD-6" edge="1">
          <mxGeometry x="369.35999999999996" y="360" as="geometry">
            <mxPoint x="369.35999999999996" y="360" as="sourcePoint" />
            <mxPoint x="529.3599999999999" y="360" as="targetPoint" />
            <Array as="points" />
          </mxGeometry>
        </mxCell>
        <mxCell id="NaLUj4CSaD-ZdcwMRhFD-45" value="0..n" style="resizable=0;align=left;verticalAlign=top;labelBackgroundColor=#ffffff;fontSize=10;strokeColor=#003366;shadow=1;fillColor=#D4E1F5;fontColor=#003366" parent="NaLUj4CSaD-ZdcwMRhFD-44" connectable="0" vertex="1">
          <mxGeometry x="-1" relative="1" as="geometry">
            <mxPoint x="-31.08000000000042" as="offset" />
          </mxGeometry>
        </mxCell>
        <mxCell id="NaLUj4CSaD-ZdcwMRhFD-46" value="1" style="resizable=0;align=right;verticalAlign=top;labelBackgroundColor=#ffffff;fontSize=10;strokeColor=#003366;shadow=1;fillColor=#D4E1F5;fontColor=#003366" parent="NaLUj4CSaD-ZdcwMRhFD-44" connectable="0" vertex="1">
          <mxGeometry x="1" relative="1" as="geometry">
            <mxPoint x="19.99999999999981" y="1.8947806286936006e-13" as="offset" />
          </mxGeometry>
        </mxCell>
        <mxCell id="NaLUj4CSaD-ZdcwMRhFD-47" value="Use" style="endArrow=open;endSize=12;dashed=1" parent="NaLUj4CSaD-ZdcwMRhFD-1" source="NaLUj4CSaD-ZdcwMRhFD-5" target="NaLUj4CSaD-ZdcwMRhFD-2" edge="1">
          <mxGeometry x="430" y="50" as="geometry">
            <mxPoint x="430" y="50" as="sourcePoint" />
            <mxPoint x="590" y="50" as="targetPoint" />
          </mxGeometry>
        </mxCell>
        <mxCell id="NaLUj4CSaD-ZdcwMRhFD-48" value="1" style="endArrow=open;endSize=12;startArrow=diamondThin;startSize=14;startFill=1;edgeStyle=orthogonalEdgeStyle;align=left;verticalAlign=bottom;" parent="NaLUj4CSaD-ZdcwMRhFD-1" source="NaLUj4CSaD-ZdcwMRhFD-4" target="NaLUj4CSaD-ZdcwMRhFD-3" edge="1">
          <mxGeometry x="-0.8181818181818175" y="4.999999999999702" relative="1" as="geometry">
            <mxPoint x="80" y="510" as="sourcePoint" />
            <mxPoint x="240" y="510" as="targetPoint" />
            <mxPoint as="offset" />
          </mxGeometry>
        </mxCell>
        <mxCell id="NaLUj4CSaD-ZdcwMRhFD-49" value="" style="endArrow=none;edgeStyle=orthogonalEdgeStyle;" parent="NaLUj4CSaD-ZdcwMRhFD-1" source="NaLUj4CSaD-ZdcwMRhFD-8" target="NaLUj4CSaD-ZdcwMRhFD-13" edge="1">
          <mxGeometry x="190" y="950" as="geometry">
            <mxPoint x="190" y="950" as="sourcePoint" />
            <mxPoint x="350" y="950" as="targetPoint" />
          </mxGeometry>
        </mxCell>
        <mxCell id="NaLUj4CSaD-ZdcwMRhFD-50" value="parent" style="resizable=0;align=left;verticalAlign=bottom;labelBackgroundColor=#ffffff;fontSize=10;strokeColor=#003366;shadow=1;fillColor=#D4E1F5;fontColor=#003366" parent="NaLUj4CSaD-ZdcwMRhFD-49" connectable="0" vertex="1">
          <mxGeometry x="-1" relative="1" as="geometry">
            <mxPoint x="10" y="-10" as="offset" />
          </mxGeometry>
        </mxCell>
        <mxCell id="NaLUj4CSaD-ZdcwMRhFD-51" value="child" style="resizable=0;align=right;verticalAlign=bottom;labelBackgroundColor=#ffffff;fontSize=10;strokeColor=#003366;shadow=1;fillColor=#D4E1F5;fontColor=#003366" parent="NaLUj4CSaD-ZdcwMRhFD-49" connectable="0" vertex="1">
          <mxGeometry x="1" relative="1" as="geometry">
            <mxPoint x="-10" y="23.83999999999977" as="offset" />
          </mxGeometry>
        </mxCell>
        <mxCell id="NaLUj4CSaD-ZdcwMRhFD-52" value="" style="endArrow=none;edgeStyle=orthogonalEdgeStyle;" parent="NaLUj4CSaD-ZdcwMRhFD-1" source="NaLUj4CSaD-ZdcwMRhFD-11" target="NaLUj4CSaD-ZdcwMRhFD-10" edge="1">
          <mxGeometry x="910" y="972.4999999999998" as="geometry">
            <mxPoint x="910" y="972.4999999999998" as="sourcePoint" />
            <mxPoint x="1070" y="972.4999999999998" as="targetPoint" />
          </mxGeometry>
        </mxCell>
        <mxCell id="NaLUj4CSaD-ZdcwMRhFD-53" value="parent" style="resizable=0;align=left;verticalAlign=bottom;labelBackgroundColor=#ffffff;fontSize=10;strokeColor=#003366;shadow=1;fillColor=#D4E1F5;fontColor=#003366" parent="NaLUj4CSaD-ZdcwMRhFD-52" connectable="0" vertex="1">
          <mxGeometry x="-1" relative="1" as="geometry">
            <mxPoint x="10" as="offset" />
          </mxGeometry>
        </mxCell>
        <mxCell id="NaLUj4CSaD-ZdcwMRhFD-54" value="child" style="resizable=0;align=right;verticalAlign=bottom;labelBackgroundColor=#ffffff;fontSize=10;strokeColor=#003366;shadow=1;fillColor=#D4E1F5;fontColor=#003366" parent="NaLUj4CSaD-ZdcwMRhFD-52" connectable="0" vertex="1">
          <mxGeometry x="1" relative="1" as="geometry">
            <mxPoint x="-10" y="25" as="offset" />
          </mxGeometry>
        </mxCell>
        <mxCell id="NaLUj4CSaD-ZdcwMRhFD-55" value="&lt;p style=&quot;margin: 0px; margin-top: 4px; text-align: center; text-decoration: underline;&quot;&gt;&lt;/p&gt;&lt;p style=&quot;margin: 0px; margin-left: 8px;&quot;&gt;&lt;b&gt;WHOS Componnets&lt;/b&gt;&lt;/p&gt;&lt;p style=&quot;margin: 0px; margin-left: 8px;&quot;&gt;1. DAB&lt;/p&gt;&lt;p style=&quot;margin: 0px; margin-left: 8px;&quot;&gt;2. Data centers&lt;/p&gt;&lt;p style=&quot;margin: 0px; margin-left: 8px;&quot;&gt;3. UIs&lt;/p&gt;&lt;p style=&quot;margin: 0px; margin-left: 8px;&quot;&gt;4. Ontology&lt;/p&gt;&lt;p style=&quot;margin: 0px; margin-left: 8px;&quot;&gt;6. Caches&lt;/p&gt;&lt;p style=&quot;margin: 0px; margin-left: 8px;&quot;&gt;7. Archives&lt;/p&gt;&lt;p style=&quot;margin: 0px; margin-left: 8px;&quot;&gt;8. Nodes&lt;/p&gt;&lt;p style=&quot;margin: 0px; margin-left: 8px;&quot;&gt;9. Data Providers&lt;/p&gt;&lt;p style=&quot;margin: 0px; margin-left: 8px;&quot;&gt;10. Data User&lt;/p&gt;&lt;p style=&quot;margin: 0px; margin-left: 8px;&quot;&gt;&lt;br&gt;&lt;/p&gt;&lt;p style=&quot;margin: 0px; margin-left: 8px;&quot;&gt;&lt;br&gt;&lt;/p&gt;" style="verticalAlign=top;align=left;overflow=fill;fontSize=12;fontFamily=Helvetica;html=1;strokeColor=#003366;shadow=1;fillColor=#D4E1F5;fontColor=#003366" parent="NaLUj4CSaD-ZdcwMRhFD-1" vertex="1">
          <mxGeometry x="-810" y="30.000000000000085" width="160" height="190" as="geometry" />
        </mxCell>
        <mxCell id="NaLUj4CSaD-ZdcwMRhFD-56" value="&lt;p style=&quot;margin: 0px; margin-top: 4px; text-align: center; text-decoration: underline;&quot;&gt;&lt;/p&gt;&lt;p style=&quot;margin: 0px; margin-left: 8px;&quot;&gt;&lt;b&gt;WHOS Componets: Issues to consider&lt;/b&gt;&lt;/p&gt;&lt;p style=&quot;margin: 0px; margin-left: 8px;&quot;&gt;1. Data Policy&lt;/p&gt;&lt;p style=&quot;margin: 0px; margin-left: 8px;&quot;&gt;2. Security&lt;/p&gt;&lt;p style=&quot;margin: 0px; margin-left: 8px;&quot;&gt;3. Cost&lt;/p&gt;&lt;p style=&quot;margin: 0px; margin-left: 8px;&quot;&gt;4. Scales, Regional, National&lt;/p&gt;&lt;p style=&quot;margin: 0px; margin-left: 8px;&quot;&gt;&lt;br&gt;&lt;/p&gt;&lt;p style=&quot;margin: 0px; margin-left: 8px;&quot;&gt;&lt;br&gt;&lt;/p&gt;" style="verticalAlign=top;align=left;overflow=fill;fontSize=12;fontFamily=Helvetica;html=1;strokeColor=#003366;shadow=1;fillColor=#D4E1F5;fontColor=#003366" parent="NaLUj4CSaD-ZdcwMRhFD-1" vertex="1">
          <mxGeometry x="-520" y="30" width="230" height="190" as="geometry" />
        </mxCell>
        <mxCell id="NaLUj4CSaD-ZdcwMRhFD-57" value="&lt;p style=&quot;margin: 0px; margin-top: 4px; text-align: center; text-decoration: underline;&quot;&gt;&lt;/p&gt;&lt;p style=&quot;margin: 0px; margin-left: 8px;&quot;&gt;&lt;b&gt;WHOS Componets: DAB&lt;/b&gt;&lt;/p&gt;&lt;p style=&quot;margin: 0px; margin-left: 8px;&quot;&gt;1. Accessros&lt;/p&gt;&lt;p style=&quot;margin: 0px; margin-left: 8px;&quot;&gt;&lt;br&gt;&lt;/p&gt;&lt;p style=&quot;margin: 0px; margin-left: 8px;&quot;&gt;&lt;br&gt;&lt;/p&gt;" style="verticalAlign=top;align=left;overflow=fill;fontSize=12;fontFamily=Helvetica;html=1;strokeColor=#003366;shadow=1;fillColor=#D4E1F5;fontColor=#003366" parent="NaLUj4CSaD-ZdcwMRhFD-1" vertex="1">
          <mxGeometry x="-800" y="260.0000000000001" width="160" height="190" as="geometry" />
        </mxCell>
        <mxCell id="NaLUj4CSaD-ZdcwMRhFD-58" value="&lt;p style=&quot;margin: 0px; margin-top: 4px; text-align: center; text-decoration: underline;&quot;&gt;&lt;/p&gt;&lt;p style=&quot;margin: 0px; margin-left: 8px;&quot;&gt;&lt;b&gt;WHOS Components: GC/GCA&lt;/b&gt;&lt;/p&gt;&lt;p style=&quot;margin: 0px; margin-left: 8px;&quot;&gt;&lt;b&gt;1. Data Centers (DC)&lt;/b&gt;&lt;/p&gt;&lt;p style=&quot;margin: 0px; margin-left: 8px;&quot;&gt;&lt;b&gt;&lt;br&gt;&lt;/b&gt;&lt;/p&gt;&lt;p style=&quot;margin: 0px; margin-left: 8px;&quot;&gt;&lt;b&gt;&lt;br&gt;&lt;/b&gt;&lt;/p&gt;&lt;p style=&quot;margin: 0px; margin-left: 8px;&quot;&gt;&lt;b&gt;2. Global Caches and Archives&lt;/b&gt;&lt;/p&gt;&lt;p style=&quot;margin: 0px; margin-left: 8px;&quot;&gt;&lt;br&gt;&lt;/p&gt;&lt;p style=&quot;margin: 0px; margin-left: 8px;&quot;&gt;&lt;br&gt;&lt;/p&gt;&lt;p style=&quot;margin: 0px; margin-left: 8px;&quot;&gt;&lt;br&gt;&lt;/p&gt;" style="verticalAlign=top;align=left;overflow=fill;fontSize=12;fontFamily=Helvetica;html=1;strokeColor=#003366;shadow=1;fillColor=#D4E1F5;fontColor=#003366" parent="NaLUj4CSaD-ZdcwMRhFD-1" vertex="1">
          <mxGeometry x="-520" y="260" width="230" height="190" as="geometry" />
        </mxCell>
        <mxCell id="NaLUj4CSaD-ZdcwMRhFD-59" value="WHOS Architecture" style="rounded=1;whiteSpace=wrap;html=1;" parent="NaLUj4CSaD-ZdcwMRhFD-1" vertex="1">
          <mxGeometry x="300" y="10" width="250" height="60" as="geometry" />
        </mxCell>
        <mxCell id="x6Xe2AYcudDKX6tfqZD1-0" value="&lt;p style=&quot;margin: 0px; margin-top: 4px; text-align: center; text-decoration: underline;&quot;&gt;&lt;b&gt;Technologies&lt;/b&gt;&lt;/p&gt;&lt;hr&gt;&amp;nbsp; WaterML2.0&lt;p style=&quot;margin: 0px; margin-left: 8px;&quot;&gt;&amp;nbsp;- data exchange format&lt;/p&gt;&lt;p style=&quot;margin: 0px; margin-left: 8px;&quot;&gt;Water Data Explorer&lt;/p&gt;&lt;p style=&quot;margin: 0px; margin-left: 8px;&quot;&gt;&lt;span style=&quot;&quot;&gt;&lt;span style=&quot;white-space: pre;&quot;&gt;&amp;nbsp;&amp;nbsp;&amp;nbsp;&amp;nbsp;- &lt;/span&gt;&lt;/span&gt;data access,&lt;span style=&quot;background-color: initial;&quot;&gt;discovery,&lt;/span&gt;&lt;/p&gt;&lt;p style=&quot;margin: 0px; margin-left: 8px;&quot;&gt;&lt;span style=&quot;&quot;&gt;&lt;span style=&quot;white-space: pre;&quot;&gt;&amp;nbsp;&amp;nbsp;&amp;nbsp;&amp;nbsp;&lt;/span&gt;&lt;/span&gt;&amp;nbsp;- visualization and downloading&lt;br&gt;&lt;/p&gt;&lt;p style=&quot;margin: 0px; margin-left: 8px;&quot;&gt;Web services&amp;nbsp;&lt;/p&gt;&lt;p style=&quot;margin: 0px; margin-left: 8px;&quot;&gt;&lt;span style=&quot;background-color: initial;&quot;&gt;&lt;span style=&quot;&quot;&gt;&lt;span style=&quot;white-space: pre;&quot;&gt;&amp;nbsp;&amp;nbsp;&amp;nbsp;&amp;nbsp;- &lt;/span&gt;&lt;/span&gt;WaterOneFlow&lt;/span&gt;&lt;/p&gt;" style="verticalAlign=top;align=left;overflow=fill;fontSize=12;fontFamily=Helvetica;html=1;strokeColor=#003366;shadow=1;fillColor=#D4E1F5;fontColor=#003366" parent="NaLUj4CSaD-ZdcwMRhFD-1" vertex="1">
          <mxGeometry x="1090" y="160" width="230" height="152.5" as="geometry" />
        </mxCell>
        <mxCell id="RSkblJsgO9uMwtSo--po-0" value="&lt;p style=&quot;text-align: center; margin: 4px 0px 0px; text-decoration: underline;&quot;&gt;&lt;b&gt;APIs&lt;/b&gt;&lt;/p&gt;&lt;blockquote style=&quot;margin: 0 0 0 40px; border: none; padding: 0px;&quot;&gt;&lt;p style=&quot;text-align: justify; margin: 4px 0px 0px;&quot;&gt;&lt;b&gt;&lt;u&gt;&amp;nbsp;OGC SOS,&amp;nbsp;&lt;/u&gt;&lt;/b&gt;&lt;/p&gt;&lt;p style=&quot;text-align: justify; margin: 4px 0px 0px;&quot;&gt;&lt;b&gt;&lt;u&gt;OGC CSW,&lt;/u&gt;&lt;/b&gt;&lt;/p&gt;&lt;p style=&quot;text-align: justify; margin: 4px 0px 0px;&quot;&gt;&lt;b&gt;&lt;u&gt;&amp;nbsp;OGC WMS,&amp;nbsp;&lt;/u&gt;&lt;/b&gt;&lt;/p&gt;&lt;p style=&quot;text-align: justify; margin: 4px 0px 0px;&quot;&gt;&lt;b&gt;&lt;u&gt;ESRI Feature Service,&amp;nbsp;&lt;/u&gt;&lt;/b&gt;&lt;/p&gt;&lt;p style=&quot;text-align: justify; margin: 4px 0px 0px;&quot;&gt;&lt;b&gt;&lt;u&gt;CUAHSI WaterOneFlow,&amp;nbsp;&lt;/u&gt;&lt;/b&gt;&lt;/p&gt;&lt;p style=&quot;text-align: justify; margin: 4px 0px 0px;&quot;&gt;&lt;b&gt;&lt;u&gt;DAB API,&amp;nbsp;&lt;/u&gt;&lt;/b&gt;&lt;/p&gt;&lt;p style=&quot;text-align: justify; margin: 4px 0px 0px;&quot;&gt;&lt;b&gt;&lt;u&gt;USGS RDB,&lt;/u&gt;&lt;/b&gt;&lt;/p&gt;&lt;p style=&quot;text-align: justify; margin: 4px 0px 0px;&quot;&gt;&lt;b&gt;&lt;u&gt;&amp;nbsp;OAI-PMH/WIGOS,&lt;/u&gt;&lt;/b&gt;&lt;/p&gt;&lt;p style=&quot;text-align: justify; margin: 4px 0px 0px;&quot;&gt;&lt;b&gt;&lt;u&gt;&amp;nbsp;THREDDS&lt;/u&gt;&lt;/b&gt;&lt;/p&gt;&lt;p style=&quot;text-align: justify; margin: 4px 0px 0px;&quot;&gt;&lt;b&gt;&lt;u&gt;New APIs&lt;/u&gt;&lt;/b&gt;&lt;/p&gt;&lt;/blockquote&gt;" style="verticalAlign=top;align=left;overflow=fill;fontSize=12;fontFamily=Helvetica;html=1;strokeColor=#003366;shadow=1;fillColor=#D4E1F5;fontColor=#003366" parent="NaLUj4CSaD-ZdcwMRhFD-1" vertex="1">
          <mxGeometry x="1250" y="360" width="260" height="200" as="geometry" />
        </mxCell>
        <mxCell id="RSkblJsgO9uMwtSo--po-1" value="&lt;p style=&quot;margin: 0px; margin-top: 4px; text-align: center; text-decoration: underline;&quot;&gt;&lt;strong&gt;Data providers&lt;/strong&gt;&lt;/p&gt;&lt;hr&gt;&lt;p style=&quot;margin: 0px; margin-left: 8px;&quot;&gt;- Local&lt;/p&gt;&lt;p style=&quot;margin: 0px; margin-left: 8px;&quot;&gt;- Global&lt;/p&gt;&lt;p style=&quot;margin: 0px; margin-left: 8px;&quot;&gt;- Regional&lt;/p&gt;" style="verticalAlign=top;align=left;overflow=fill;fontSize=12;fontFamily=Helvetica;html=1;strokeColor=#003366;shadow=1;fillColor=#D4E1F5;fontColor=#003366" parent="NaLUj4CSaD-ZdcwMRhFD-1" vertex="1">
          <mxGeometry x="810" y="209.99999999999983" width="160" height="160" as="geometry" />
        </mxCell>
        <mxCell id="RSkblJsgO9uMwtSo--po-2" value="" style="endArrow=open;endSize=12;startArrow=diamondThin;startSize=14;startFill=0;edgeStyle=orthogonalEdgeStyle;exitX=0;exitY=0.5;exitDx=0;exitDy=0;" parent="NaLUj4CSaD-ZdcwMRhFD-1" source="RSkblJsgO9uMwtSo--po-1" target="NaLUj4CSaD-ZdcwMRhFD-2" edge="1">
          <mxGeometry x="620" y="340" as="geometry">
            <mxPoint x="10" y="224.5" as="sourcePoint" />
            <mxPoint x="10" y="327.5" as="targetPoint" />
          </mxGeometry>
        </mxCell>
        <mxCell id="RSkblJsgO9uMwtSo--po-3" value="0..n" style="resizable=0;align=left;verticalAlign=top;labelBackgroundColor=#ffffff;fontSize=10;strokeColor=#003366;shadow=1;fillColor=#D4E1F5;fontColor=#003366" parent="RSkblJsgO9uMwtSo--po-2" connectable="0" vertex="1">
          <mxGeometry x="-1" relative="1" as="geometry">
            <mxPoint x="10" as="offset" />
          </mxGeometry>
        </mxCell>
        <mxCell id="dwdPN1T4dXYAnOAvR70Y-0" value="" style="edgeStyle=orthogonalEdgeStyle;rounded=0;orthogonalLoop=1;jettySize=auto;html=1;" parent="NaLUj4CSaD-ZdcwMRhFD-1" source="RSkblJsgO9uMwtSo--po-6" target="NaLUj4CSaD-ZdcwMRhFD-11" edge="1">
          <mxGeometry relative="1" as="geometry" />
        </mxCell>
        <mxCell id="RSkblJsgO9uMwtSo--po-6" value="&lt;p style=&quot;margin: 0px; margin-top: 4px; text-align: center; text-decoration: underline;&quot;&gt;&lt;b&gt;Maintainance&lt;/b&gt;&lt;/p&gt;" style="verticalAlign=top;align=left;overflow=fill;fontSize=12;fontFamily=Helvetica;html=1;strokeColor=#003366;shadow=1;fillColor=#D4E1F5;fontColor=#003366" parent="NaLUj4CSaD-ZdcwMRhFD-1" vertex="1">
          <mxGeometry x="930" y="720" width="160" height="80" as="geometry" />
        </mxCell>
        <mxCell id="6oE17cKiBciDj2PAlXrP-0" value="&lt;p style=&quot;margin: 0px; margin-top: 4px; text-align: center; text-decoration: underline;&quot;&gt;&lt;b&gt;Ontology&lt;/b&gt;&lt;/p&gt;" style="verticalAlign=top;align=left;overflow=fill;fontSize=12;fontFamily=Helvetica;html=1;strokeColor=#003366;shadow=1;fillColor=#D4E1F5;fontColor=#003366" parent="NaLUj4CSaD-ZdcwMRhFD-1" vertex="1">
          <mxGeometry x="646.52" y="40" width="106.96" height="75" as="geometry" />
        </mxCell>
        <mxCell id="6oE17cKiBciDj2PAlXrP-1" value="&lt;p style=&quot;margin: 0px; margin-top: 4px; text-align: center; text-decoration: underline;&quot;&gt;&lt;b&gt;Catalog&lt;/b&gt;&lt;/p&gt;" style="verticalAlign=top;align=left;overflow=fill;fontSize=12;fontFamily=Helvetica;html=1;strokeColor=#003366;shadow=1;fillColor=#D4E1F5;fontColor=#003366" parent="NaLUj4CSaD-ZdcwMRhFD-1" vertex="1">
          <mxGeometry x="833.04" y="50" width="106.96" height="75" as="geometry" />
        </mxCell>
      </root>
    </mxGraphModel>
  </diagram>
  <diagram id="0ueWyYI1_UxM_6seUdsW" name="Page-4">
    <mxGraphModel dx="1674" dy="780" grid="1" gridSize="10" guides="1" tooltips="1" connect="1" arrows="1" fold="1" page="1" pageScale="1" pageWidth="850" pageHeight="1100" math="0" shadow="0">
      <root>
        <mxCell id="0" />
        <mxCell id="1" parent="0" />
      </root>
    </mxGraphModel>
  </diagram>
</mxfile>
